G04 #@! TF.GenerationSoftware,KiCad,Pcbnew,(5.1.5)-3*
G04 #@! TF.CreationDate,2020-05-09T23:00:35+03:00*
G04 #@! TF.ProjectId,iceCube,69636543-7562-4652-9e6b-696361645f70,rev?*
G04 #@! TF.SameCoordinates,Original*
G04 #@! TF.FileFunction,Copper,L2,Bot*
G04 #@! TF.FilePolarity,Positive*
%FSLAX46Y46*%
G04 Gerber Fmt 4.6, Leading zero omitted, Abs format (unit mm)*
G04 Created by KiCad (PCBNEW (5.1.5)-3) date 2020-05-09 23:00:35*
%MOMM*%
%LPD*%
G04 APERTURE LIST*
%ADD10O,2.000000X1.200000*%
%ADD11C,1.350000*%
%ADD12R,1.600000X1.600000*%
%ADD13C,1.600000*%
%ADD14O,1.600000X1.600000*%
%ADD15C,1.600000*%
%ADD16O,1.700000X1.700000*%
%ADD17R,1.700000X1.700000*%
%ADD18O,1.850000X3.048000*%
%ADD19C,0.400000*%
%ADD20C,0.254000*%
G04 APERTURE END LIST*
D10*
X120600000Y-160350000D03*
X120600000Y-157810000D03*
X155200000Y-157810000D03*
X120600000Y-155270000D03*
X155200000Y-155270000D03*
X120600000Y-152730000D03*
X155200000Y-152730000D03*
X120600000Y-150190000D03*
X155200000Y-150190000D03*
X120600000Y-147650000D03*
D11*
X112730000Y-140945000D03*
X121770000Y-140945000D03*
X112730000Y-125855000D03*
X121770000Y-125855000D03*
D12*
X126600000Y-118500000D03*
D13*
X121600000Y-118500000D03*
X143200000Y-114000000D03*
D14*
X143200000Y-126700000D03*
D12*
X151000000Y-133000000D03*
D14*
X158620000Y-140620000D03*
X151000000Y-135540000D03*
X158620000Y-138080000D03*
X151000000Y-138080000D03*
X158620000Y-135540000D03*
X151000000Y-140620000D03*
X158620000Y-133000000D03*
D15*
X106819744Y-157780256D02*
X106819744Y-157780256D01*
D13*
X115800000Y-148800000D03*
D16*
X102800000Y-152860000D03*
D17*
X102800000Y-155400000D03*
X137000000Y-113600000D03*
D16*
X134460000Y-113600000D03*
X131920000Y-113600000D03*
D13*
X148500000Y-127600000D03*
D14*
X148500000Y-114900000D03*
D17*
X146600000Y-133000000D03*
D16*
X146600000Y-135540000D03*
D18*
X132430000Y-141120000D03*
X137430000Y-141120000D03*
X132430000Y-128620000D03*
X137430000Y-128620000D03*
D12*
X158000000Y-127000000D03*
D13*
X155500000Y-127000000D03*
D19*
X137430000Y-143044000D02*
X137430000Y-141120000D01*
X132824000Y-147650000D02*
X137430000Y-143044000D01*
X120600000Y-147650000D02*
X132824000Y-147650000D01*
X150500000Y-141120000D02*
X151000000Y-140620000D01*
X137430000Y-141120000D02*
X150500000Y-141120000D01*
X154000000Y-150190000D02*
X155400000Y-150190000D01*
X151000000Y-147190000D02*
X154000000Y-150190000D01*
X151000000Y-140620000D02*
X151000000Y-147190000D01*
X155500000Y-135652002D02*
X155500000Y-128131370D01*
X155500000Y-128131370D02*
X155500000Y-127000000D01*
X151799999Y-139352003D02*
X155500000Y-135652002D01*
X151799999Y-139820001D02*
X151799999Y-139352003D01*
X151000000Y-140620000D02*
X151799999Y-139820001D01*
X137430000Y-139196000D02*
X137430000Y-128620000D01*
X137430000Y-141120000D02*
X137430000Y-139196000D01*
X148500000Y-120000000D02*
X155500000Y-127000000D01*
X148500000Y-114900000D02*
X148500000Y-120000000D01*
X127631370Y-113600000D02*
X130717919Y-113600000D01*
X130717919Y-113600000D02*
X131920000Y-113600000D01*
X122731370Y-118500000D02*
X127631370Y-113600000D01*
X121600000Y-118500000D02*
X122731370Y-118500000D01*
X114245000Y-125855000D02*
X121600000Y-118500000D01*
X112730000Y-125855000D02*
X114245000Y-125855000D01*
X112730000Y-125855000D02*
X112730000Y-140945000D01*
X102800000Y-150875000D02*
X102800000Y-152860000D01*
X112730000Y-140945000D02*
X102800000Y-150875000D01*
X119435000Y-147650000D02*
X120600000Y-147650000D01*
X112730000Y-140945000D02*
X119435000Y-147650000D01*
D20*
G36*
X159873000Y-110000000D02*
G01*
X159875440Y-110024776D01*
X159882667Y-110048601D01*
X159894403Y-110070557D01*
X159910197Y-110089803D01*
X159929443Y-110105597D01*
X159951399Y-110117333D01*
X159975224Y-110124560D01*
X160000000Y-110127000D01*
X169315000Y-110127000D01*
X169315001Y-159873000D01*
X160000000Y-159873000D01*
X159975224Y-159875440D01*
X159951399Y-159882667D01*
X159929443Y-159894403D01*
X159910197Y-159910197D01*
X159894403Y-159929443D01*
X159882667Y-159951399D01*
X159875440Y-159975224D01*
X159873000Y-160000000D01*
X159873000Y-169315000D01*
X110127000Y-169315000D01*
X110127000Y-160350000D01*
X118959025Y-160350000D01*
X118982870Y-160592102D01*
X119053489Y-160824901D01*
X119168167Y-161039449D01*
X119322498Y-161227502D01*
X119510551Y-161381833D01*
X119725099Y-161496511D01*
X119957898Y-161567130D01*
X120139335Y-161585000D01*
X121060665Y-161585000D01*
X121242102Y-161567130D01*
X121474901Y-161496511D01*
X121689449Y-161381833D01*
X121877502Y-161227502D01*
X122031833Y-161039449D01*
X122146511Y-160824901D01*
X122217130Y-160592102D01*
X122240975Y-160350000D01*
X122217130Y-160107898D01*
X122146511Y-159875099D01*
X122031833Y-159660551D01*
X121877502Y-159472498D01*
X121689449Y-159318167D01*
X121474901Y-159203489D01*
X121242102Y-159132870D01*
X121060665Y-159115000D01*
X120139335Y-159115000D01*
X119957898Y-159132870D01*
X119725099Y-159203489D01*
X119510551Y-159318167D01*
X119322498Y-159472498D01*
X119168167Y-159660551D01*
X119053489Y-159875099D01*
X118982870Y-160107898D01*
X118959025Y-160350000D01*
X110127000Y-160350000D01*
X110127000Y-160000000D01*
X110124560Y-159975224D01*
X110117333Y-159951399D01*
X110105597Y-159929443D01*
X110089803Y-159910197D01*
X110070557Y-159894403D01*
X110048601Y-159882667D01*
X110024776Y-159875440D01*
X110000000Y-159873000D01*
X100685000Y-159873000D01*
X100685000Y-157638921D01*
X105384744Y-157638921D01*
X105384744Y-157921591D01*
X105439891Y-158198830D01*
X105548064Y-158459983D01*
X105705107Y-158695015D01*
X105904985Y-158894893D01*
X106140017Y-159051936D01*
X106401170Y-159160109D01*
X106678409Y-159215256D01*
X106961079Y-159215256D01*
X107238318Y-159160109D01*
X107499471Y-159051936D01*
X107734503Y-158894893D01*
X107934381Y-158695015D01*
X108091424Y-158459983D01*
X108199597Y-158198830D01*
X108254744Y-157921591D01*
X108254744Y-157810000D01*
X118959025Y-157810000D01*
X118982870Y-158052102D01*
X119053489Y-158284901D01*
X119168167Y-158499449D01*
X119322498Y-158687502D01*
X119510551Y-158841833D01*
X119725099Y-158956511D01*
X119957898Y-159027130D01*
X120139335Y-159045000D01*
X121060665Y-159045000D01*
X121242102Y-159027130D01*
X121474901Y-158956511D01*
X121689449Y-158841833D01*
X121877502Y-158687502D01*
X122031833Y-158499449D01*
X122146511Y-158284901D01*
X122217130Y-158052102D01*
X122240975Y-157810000D01*
X153559025Y-157810000D01*
X153582870Y-158052102D01*
X153653489Y-158284901D01*
X153768167Y-158499449D01*
X153922498Y-158687502D01*
X154110551Y-158841833D01*
X154325099Y-158956511D01*
X154557898Y-159027130D01*
X154739335Y-159045000D01*
X155660665Y-159045000D01*
X155842102Y-159027130D01*
X156074901Y-158956511D01*
X156289449Y-158841833D01*
X156477502Y-158687502D01*
X156631833Y-158499449D01*
X156746511Y-158284901D01*
X156817130Y-158052102D01*
X156840975Y-157810000D01*
X156817130Y-157567898D01*
X156746511Y-157335099D01*
X156631833Y-157120551D01*
X156477502Y-156932498D01*
X156289449Y-156778167D01*
X156074901Y-156663489D01*
X155842102Y-156592870D01*
X155660665Y-156575000D01*
X154739335Y-156575000D01*
X154557898Y-156592870D01*
X154325099Y-156663489D01*
X154110551Y-156778167D01*
X153922498Y-156932498D01*
X153768167Y-157120551D01*
X153653489Y-157335099D01*
X153582870Y-157567898D01*
X153559025Y-157810000D01*
X122240975Y-157810000D01*
X122217130Y-157567898D01*
X122146511Y-157335099D01*
X122031833Y-157120551D01*
X121877502Y-156932498D01*
X121689449Y-156778167D01*
X121474901Y-156663489D01*
X121242102Y-156592870D01*
X121060665Y-156575000D01*
X120139335Y-156575000D01*
X119957898Y-156592870D01*
X119725099Y-156663489D01*
X119510551Y-156778167D01*
X119322498Y-156932498D01*
X119168167Y-157120551D01*
X119053489Y-157335099D01*
X118982870Y-157567898D01*
X118959025Y-157810000D01*
X108254744Y-157810000D01*
X108254744Y-157638921D01*
X108199597Y-157361682D01*
X108091424Y-157100529D01*
X107934381Y-156865497D01*
X107734503Y-156665619D01*
X107499471Y-156508576D01*
X107238318Y-156400403D01*
X106961079Y-156345256D01*
X106678409Y-156345256D01*
X106401170Y-156400403D01*
X106140017Y-156508576D01*
X105904985Y-156665619D01*
X105705107Y-156865497D01*
X105548064Y-157100529D01*
X105439891Y-157361682D01*
X105384744Y-157638921D01*
X100685000Y-157638921D01*
X100685000Y-154550000D01*
X101311928Y-154550000D01*
X101311928Y-156250000D01*
X101324188Y-156374482D01*
X101360498Y-156494180D01*
X101419463Y-156604494D01*
X101498815Y-156701185D01*
X101595506Y-156780537D01*
X101705820Y-156839502D01*
X101825518Y-156875812D01*
X101950000Y-156888072D01*
X103650000Y-156888072D01*
X103774482Y-156875812D01*
X103894180Y-156839502D01*
X104004494Y-156780537D01*
X104101185Y-156701185D01*
X104180537Y-156604494D01*
X104239502Y-156494180D01*
X104275812Y-156374482D01*
X104288072Y-156250000D01*
X104288072Y-155270000D01*
X118959025Y-155270000D01*
X118982870Y-155512102D01*
X119053489Y-155744901D01*
X119168167Y-155959449D01*
X119322498Y-156147502D01*
X119510551Y-156301833D01*
X119725099Y-156416511D01*
X119957898Y-156487130D01*
X120139335Y-156505000D01*
X121060665Y-156505000D01*
X121242102Y-156487130D01*
X121474901Y-156416511D01*
X121689449Y-156301833D01*
X121877502Y-156147502D01*
X122031833Y-155959449D01*
X122146511Y-155744901D01*
X122217130Y-155512102D01*
X122240975Y-155270000D01*
X153559025Y-155270000D01*
X153582870Y-155512102D01*
X153653489Y-155744901D01*
X153768167Y-155959449D01*
X153922498Y-156147502D01*
X154110551Y-156301833D01*
X154325099Y-156416511D01*
X154557898Y-156487130D01*
X154739335Y-156505000D01*
X155660665Y-156505000D01*
X155842102Y-156487130D01*
X156074901Y-156416511D01*
X156289449Y-156301833D01*
X156477502Y-156147502D01*
X156631833Y-155959449D01*
X156746511Y-155744901D01*
X156817130Y-155512102D01*
X156840975Y-155270000D01*
X156817130Y-155027898D01*
X156746511Y-154795099D01*
X156631833Y-154580551D01*
X156477502Y-154392498D01*
X156289449Y-154238167D01*
X156074901Y-154123489D01*
X155842102Y-154052870D01*
X155660665Y-154035000D01*
X154739335Y-154035000D01*
X154557898Y-154052870D01*
X154325099Y-154123489D01*
X154110551Y-154238167D01*
X153922498Y-154392498D01*
X153768167Y-154580551D01*
X153653489Y-154795099D01*
X153582870Y-155027898D01*
X153559025Y-155270000D01*
X122240975Y-155270000D01*
X122217130Y-155027898D01*
X122146511Y-154795099D01*
X122031833Y-154580551D01*
X121877502Y-154392498D01*
X121689449Y-154238167D01*
X121474901Y-154123489D01*
X121242102Y-154052870D01*
X121060665Y-154035000D01*
X120139335Y-154035000D01*
X119957898Y-154052870D01*
X119725099Y-154123489D01*
X119510551Y-154238167D01*
X119322498Y-154392498D01*
X119168167Y-154580551D01*
X119053489Y-154795099D01*
X118982870Y-155027898D01*
X118959025Y-155270000D01*
X104288072Y-155270000D01*
X104288072Y-154550000D01*
X104275812Y-154425518D01*
X104239502Y-154305820D01*
X104180537Y-154195506D01*
X104101185Y-154098815D01*
X104004494Y-154019463D01*
X103894180Y-153960498D01*
X103813534Y-153936034D01*
X103897588Y-153860269D01*
X104071641Y-153626920D01*
X104196825Y-153364099D01*
X104241476Y-153216890D01*
X104120155Y-152987000D01*
X102927000Y-152987000D01*
X102927000Y-153007000D01*
X102673000Y-153007000D01*
X102673000Y-152987000D01*
X101479845Y-152987000D01*
X101358524Y-153216890D01*
X101403175Y-153364099D01*
X101528359Y-153626920D01*
X101702412Y-153860269D01*
X101786466Y-153936034D01*
X101705820Y-153960498D01*
X101595506Y-154019463D01*
X101498815Y-154098815D01*
X101419463Y-154195506D01*
X101360498Y-154305820D01*
X101324188Y-154425518D01*
X101311928Y-154550000D01*
X100685000Y-154550000D01*
X100685000Y-152503110D01*
X101358524Y-152503110D01*
X101479845Y-152733000D01*
X102673000Y-152733000D01*
X102673000Y-151539186D01*
X102927000Y-151539186D01*
X102927000Y-152733000D01*
X104120155Y-152733000D01*
X104121738Y-152730000D01*
X118959025Y-152730000D01*
X118982870Y-152972102D01*
X119053489Y-153204901D01*
X119168167Y-153419449D01*
X119322498Y-153607502D01*
X119510551Y-153761833D01*
X119725099Y-153876511D01*
X119957898Y-153947130D01*
X120139335Y-153965000D01*
X121060665Y-153965000D01*
X121242102Y-153947130D01*
X121474901Y-153876511D01*
X121689449Y-153761833D01*
X121877502Y-153607502D01*
X122031833Y-153419449D01*
X122146511Y-153204901D01*
X122217130Y-152972102D01*
X122240975Y-152730000D01*
X153559025Y-152730000D01*
X153582870Y-152972102D01*
X153653489Y-153204901D01*
X153768167Y-153419449D01*
X153922498Y-153607502D01*
X154110551Y-153761833D01*
X154325099Y-153876511D01*
X154557898Y-153947130D01*
X154739335Y-153965000D01*
X155660665Y-153965000D01*
X155842102Y-153947130D01*
X156074901Y-153876511D01*
X156289449Y-153761833D01*
X156477502Y-153607502D01*
X156631833Y-153419449D01*
X156746511Y-153204901D01*
X156817130Y-152972102D01*
X156840975Y-152730000D01*
X156817130Y-152487898D01*
X156746511Y-152255099D01*
X156631833Y-152040551D01*
X156477502Y-151852498D01*
X156289449Y-151698167D01*
X156074901Y-151583489D01*
X155842102Y-151512870D01*
X155660665Y-151495000D01*
X154739335Y-151495000D01*
X154557898Y-151512870D01*
X154325099Y-151583489D01*
X154110551Y-151698167D01*
X153922498Y-151852498D01*
X153768167Y-152040551D01*
X153653489Y-152255099D01*
X153582870Y-152487898D01*
X153559025Y-152730000D01*
X122240975Y-152730000D01*
X122217130Y-152487898D01*
X122146511Y-152255099D01*
X122031833Y-152040551D01*
X121877502Y-151852498D01*
X121689449Y-151698167D01*
X121474901Y-151583489D01*
X121242102Y-151512870D01*
X121060665Y-151495000D01*
X120139335Y-151495000D01*
X119957898Y-151512870D01*
X119725099Y-151583489D01*
X119510551Y-151698167D01*
X119322498Y-151852498D01*
X119168167Y-152040551D01*
X119053489Y-152255099D01*
X118982870Y-152487898D01*
X118959025Y-152730000D01*
X104121738Y-152730000D01*
X104241476Y-152503110D01*
X104196825Y-152355901D01*
X104071641Y-152093080D01*
X103897588Y-151859731D01*
X103681355Y-151664822D01*
X103431252Y-151515843D01*
X103156891Y-151418519D01*
X102927000Y-151539186D01*
X102673000Y-151539186D01*
X102443109Y-151418519D01*
X102168748Y-151515843D01*
X101918645Y-151664822D01*
X101702412Y-151859731D01*
X101528359Y-152093080D01*
X101403175Y-152355901D01*
X101358524Y-152503110D01*
X100685000Y-152503110D01*
X100685000Y-148658665D01*
X114365000Y-148658665D01*
X114365000Y-148941335D01*
X114420147Y-149218574D01*
X114528320Y-149479727D01*
X114685363Y-149714759D01*
X114885241Y-149914637D01*
X115120273Y-150071680D01*
X115381426Y-150179853D01*
X115658665Y-150235000D01*
X115941335Y-150235000D01*
X116167562Y-150190000D01*
X118959025Y-150190000D01*
X118982870Y-150432102D01*
X119053489Y-150664901D01*
X119168167Y-150879449D01*
X119322498Y-151067502D01*
X119510551Y-151221833D01*
X119725099Y-151336511D01*
X119957898Y-151407130D01*
X120139335Y-151425000D01*
X121060665Y-151425000D01*
X121242102Y-151407130D01*
X121474901Y-151336511D01*
X121689449Y-151221833D01*
X121877502Y-151067502D01*
X122031833Y-150879449D01*
X122146511Y-150664901D01*
X122194225Y-150507609D01*
X153606538Y-150507609D01*
X153610409Y-150545282D01*
X153702579Y-150770533D01*
X153836922Y-150973474D01*
X154008275Y-151146307D01*
X154210054Y-151282390D01*
X154434504Y-151376493D01*
X154673000Y-151425000D01*
X155073000Y-151425000D01*
X155073000Y-150317000D01*
X155327000Y-150317000D01*
X155327000Y-151425000D01*
X155727000Y-151425000D01*
X155965496Y-151376493D01*
X156189946Y-151282390D01*
X156391725Y-151146307D01*
X156563078Y-150973474D01*
X156697421Y-150770533D01*
X156789591Y-150545282D01*
X156793462Y-150507609D01*
X156668731Y-150317000D01*
X155327000Y-150317000D01*
X155073000Y-150317000D01*
X153731269Y-150317000D01*
X153606538Y-150507609D01*
X122194225Y-150507609D01*
X122217130Y-150432102D01*
X122240975Y-150190000D01*
X122217130Y-149947898D01*
X122194226Y-149872391D01*
X153606538Y-149872391D01*
X153731269Y-150063000D01*
X155073000Y-150063000D01*
X155073000Y-148955000D01*
X155327000Y-148955000D01*
X155327000Y-150063000D01*
X156668731Y-150063000D01*
X156793462Y-149872391D01*
X156789591Y-149834718D01*
X156697421Y-149609467D01*
X156563078Y-149406526D01*
X156391725Y-149233693D01*
X156189946Y-149097610D01*
X155965496Y-149003507D01*
X155727000Y-148955000D01*
X155327000Y-148955000D01*
X155073000Y-148955000D01*
X154673000Y-148955000D01*
X154434504Y-149003507D01*
X154210054Y-149097610D01*
X154008275Y-149233693D01*
X153836922Y-149406526D01*
X153702579Y-149609467D01*
X153610409Y-149834718D01*
X153606538Y-149872391D01*
X122194226Y-149872391D01*
X122146511Y-149715099D01*
X122031833Y-149500551D01*
X121877502Y-149312498D01*
X121689449Y-149158167D01*
X121474901Y-149043489D01*
X121242102Y-148972870D01*
X121060665Y-148955000D01*
X120139335Y-148955000D01*
X119957898Y-148972870D01*
X119725099Y-149043489D01*
X119510551Y-149158167D01*
X119322498Y-149312498D01*
X119168167Y-149500551D01*
X119053489Y-149715099D01*
X118982870Y-149947898D01*
X118959025Y-150190000D01*
X116167562Y-150190000D01*
X116218574Y-150179853D01*
X116479727Y-150071680D01*
X116714759Y-149914637D01*
X116914637Y-149714759D01*
X117071680Y-149479727D01*
X117179853Y-149218574D01*
X117235000Y-148941335D01*
X117235000Y-148658665D01*
X117179853Y-148381426D01*
X117071680Y-148120273D01*
X116969674Y-147967609D01*
X119006538Y-147967609D01*
X119010409Y-148005282D01*
X119102579Y-148230533D01*
X119236922Y-148433474D01*
X119408275Y-148606307D01*
X119610054Y-148742390D01*
X119834504Y-148836493D01*
X120073000Y-148885000D01*
X120473000Y-148885000D01*
X120473000Y-147777000D01*
X120727000Y-147777000D01*
X120727000Y-148885000D01*
X121127000Y-148885000D01*
X121365496Y-148836493D01*
X121589946Y-148742390D01*
X121791725Y-148606307D01*
X121963078Y-148433474D01*
X122097421Y-148230533D01*
X122189591Y-148005282D01*
X122193462Y-147967609D01*
X122068731Y-147777000D01*
X120727000Y-147777000D01*
X120473000Y-147777000D01*
X119131269Y-147777000D01*
X119006538Y-147967609D01*
X116969674Y-147967609D01*
X116914637Y-147885241D01*
X116714759Y-147685363D01*
X116479727Y-147528320D01*
X116218574Y-147420147D01*
X115941335Y-147365000D01*
X115658665Y-147365000D01*
X115381426Y-147420147D01*
X115120273Y-147528320D01*
X114885241Y-147685363D01*
X114685363Y-147885241D01*
X114528320Y-148120273D01*
X114420147Y-148381426D01*
X114365000Y-148658665D01*
X100685000Y-148658665D01*
X100685000Y-147332391D01*
X119006538Y-147332391D01*
X119131269Y-147523000D01*
X120473000Y-147523000D01*
X120473000Y-146415000D01*
X120727000Y-146415000D01*
X120727000Y-147523000D01*
X122068731Y-147523000D01*
X122193462Y-147332391D01*
X122189591Y-147294718D01*
X122097421Y-147069467D01*
X121963078Y-146866526D01*
X121791725Y-146693693D01*
X121589946Y-146557610D01*
X121365496Y-146463507D01*
X121127000Y-146415000D01*
X120727000Y-146415000D01*
X120473000Y-146415000D01*
X120073000Y-146415000D01*
X119834504Y-146463507D01*
X119610054Y-146557610D01*
X119408275Y-146693693D01*
X119236922Y-146866526D01*
X119102579Y-147069467D01*
X119010409Y-147294718D01*
X119006538Y-147332391D01*
X100685000Y-147332391D01*
X100685000Y-141848400D01*
X112006205Y-141848400D01*
X112062630Y-142079621D01*
X112296808Y-142188017D01*
X112547633Y-142248645D01*
X112805465Y-142259174D01*
X113060398Y-142219200D01*
X113302633Y-142130259D01*
X113397370Y-142079621D01*
X113453795Y-141848400D01*
X112730000Y-141124605D01*
X112006205Y-141848400D01*
X100685000Y-141848400D01*
X100685000Y-141020465D01*
X111415826Y-141020465D01*
X111455800Y-141275398D01*
X111544741Y-141517633D01*
X111595379Y-141612370D01*
X111826600Y-141668795D01*
X112550395Y-140945000D01*
X112909605Y-140945000D01*
X113633400Y-141668795D01*
X113864621Y-141612370D01*
X113973017Y-141378192D01*
X114033645Y-141127367D01*
X114044174Y-140869535D01*
X114035776Y-140815976D01*
X120460000Y-140815976D01*
X120460000Y-141074024D01*
X120510342Y-141327113D01*
X120609093Y-141565518D01*
X120752456Y-141780077D01*
X120934923Y-141962544D01*
X121149482Y-142105907D01*
X121387887Y-142204658D01*
X121640976Y-142255000D01*
X121899024Y-142255000D01*
X122152113Y-142204658D01*
X122390518Y-142105907D01*
X122605077Y-141962544D01*
X122787544Y-141780077D01*
X122930907Y-141565518D01*
X123029658Y-141327113D01*
X123080000Y-141074024D01*
X123080000Y-140815976D01*
X123029658Y-140562887D01*
X122980564Y-140444364D01*
X130870000Y-140444364D01*
X130870000Y-141795635D01*
X130892572Y-142024812D01*
X130981774Y-142318874D01*
X131126631Y-142589882D01*
X131321576Y-142827424D01*
X131559117Y-143022369D01*
X131830125Y-143167226D01*
X132124187Y-143256428D01*
X132430000Y-143286548D01*
X132735812Y-143256428D01*
X133029874Y-143167226D01*
X133300882Y-143022369D01*
X133538424Y-142827424D01*
X133733369Y-142589883D01*
X133878226Y-142318875D01*
X133967428Y-142024813D01*
X133990000Y-141795636D01*
X133990000Y-141247000D01*
X135870000Y-141247000D01*
X135870000Y-141846000D01*
X135924751Y-142147901D01*
X136037348Y-142433319D01*
X136203464Y-142691286D01*
X136416715Y-142911889D01*
X136668906Y-143086650D01*
X136950345Y-143208853D01*
X137061336Y-143234812D01*
X137303000Y-143114483D01*
X137303000Y-141247000D01*
X137557000Y-141247000D01*
X137557000Y-143114483D01*
X137798664Y-143234812D01*
X137909655Y-143208853D01*
X138191094Y-143086650D01*
X138443285Y-142911889D01*
X138656536Y-142691286D01*
X138822652Y-142433319D01*
X138935249Y-142147901D01*
X138990000Y-141846000D01*
X138990000Y-141247000D01*
X137557000Y-141247000D01*
X137303000Y-141247000D01*
X135870000Y-141247000D01*
X133990000Y-141247000D01*
X133990000Y-140444364D01*
X133985040Y-140394000D01*
X135870000Y-140394000D01*
X135870000Y-140993000D01*
X137303000Y-140993000D01*
X137303000Y-139125517D01*
X137557000Y-139125517D01*
X137557000Y-140993000D01*
X138990000Y-140993000D01*
X138990000Y-140969039D01*
X149608096Y-140969039D01*
X149648754Y-141103087D01*
X149768963Y-141357420D01*
X149936481Y-141583414D01*
X150144869Y-141772385D01*
X150386119Y-141917070D01*
X150650960Y-142011909D01*
X150873000Y-141890624D01*
X150873000Y-140747000D01*
X151127000Y-140747000D01*
X151127000Y-141890624D01*
X151349040Y-142011909D01*
X151613881Y-141917070D01*
X151855131Y-141772385D01*
X152063519Y-141583414D01*
X152231037Y-141357420D01*
X152351246Y-141103087D01*
X152391904Y-140969039D01*
X152269915Y-140747000D01*
X151127000Y-140747000D01*
X150873000Y-140747000D01*
X149730085Y-140747000D01*
X149608096Y-140969039D01*
X138990000Y-140969039D01*
X138990000Y-140394000D01*
X138935249Y-140092099D01*
X138822652Y-139806681D01*
X138656536Y-139548714D01*
X138443285Y-139328111D01*
X138191094Y-139153350D01*
X137909655Y-139031147D01*
X137798664Y-139005188D01*
X137557000Y-139125517D01*
X137303000Y-139125517D01*
X137061336Y-139005188D01*
X136950345Y-139031147D01*
X136668906Y-139153350D01*
X136416715Y-139328111D01*
X136203464Y-139548714D01*
X136037348Y-139806681D01*
X135924751Y-140092099D01*
X135870000Y-140394000D01*
X133985040Y-140394000D01*
X133967428Y-140215187D01*
X133878226Y-139921125D01*
X133733369Y-139650117D01*
X133538424Y-139412576D01*
X133300883Y-139217631D01*
X133029875Y-139072774D01*
X132735813Y-138983572D01*
X132430000Y-138953452D01*
X132124188Y-138983572D01*
X131830126Y-139072774D01*
X131559118Y-139217631D01*
X131321577Y-139412576D01*
X131126632Y-139650117D01*
X130981774Y-139921125D01*
X130892572Y-140215187D01*
X130870000Y-140444364D01*
X122980564Y-140444364D01*
X122930907Y-140324482D01*
X122787544Y-140109923D01*
X122605077Y-139927456D01*
X122390518Y-139784093D01*
X122152113Y-139685342D01*
X121899024Y-139635000D01*
X121640976Y-139635000D01*
X121387887Y-139685342D01*
X121149482Y-139784093D01*
X120934923Y-139927456D01*
X120752456Y-140109923D01*
X120609093Y-140324482D01*
X120510342Y-140562887D01*
X120460000Y-140815976D01*
X114035776Y-140815976D01*
X114004200Y-140614602D01*
X113915259Y-140372367D01*
X113864621Y-140277630D01*
X113633400Y-140221205D01*
X112909605Y-140945000D01*
X112550395Y-140945000D01*
X111826600Y-140221205D01*
X111595379Y-140277630D01*
X111486983Y-140511808D01*
X111426355Y-140762633D01*
X111415826Y-141020465D01*
X100685000Y-141020465D01*
X100685000Y-140041600D01*
X112006205Y-140041600D01*
X112730000Y-140765395D01*
X113453795Y-140041600D01*
X113397370Y-139810379D01*
X113163192Y-139701983D01*
X112912367Y-139641355D01*
X112654535Y-139630826D01*
X112399602Y-139670800D01*
X112157367Y-139759741D01*
X112062630Y-139810379D01*
X112006205Y-140041600D01*
X100685000Y-140041600D01*
X100685000Y-132150000D01*
X145111928Y-132150000D01*
X145111928Y-133850000D01*
X145124188Y-133974482D01*
X145160498Y-134094180D01*
X145219463Y-134204494D01*
X145298815Y-134301185D01*
X145395506Y-134380537D01*
X145505820Y-134439502D01*
X145578380Y-134461513D01*
X145446525Y-134593368D01*
X145284010Y-134836589D01*
X145172068Y-135106842D01*
X145115000Y-135393740D01*
X145115000Y-135686260D01*
X145172068Y-135973158D01*
X145284010Y-136243411D01*
X145446525Y-136486632D01*
X145653368Y-136693475D01*
X145896589Y-136855990D01*
X146166842Y-136967932D01*
X146453740Y-137025000D01*
X146746260Y-137025000D01*
X147033158Y-136967932D01*
X147303411Y-136855990D01*
X147546632Y-136693475D01*
X147753475Y-136486632D01*
X147915990Y-136243411D01*
X148027932Y-135973158D01*
X148085000Y-135686260D01*
X148085000Y-135393740D01*
X148027932Y-135106842D01*
X147915990Y-134836589D01*
X147753475Y-134593368D01*
X147621620Y-134461513D01*
X147694180Y-134439502D01*
X147804494Y-134380537D01*
X147901185Y-134301185D01*
X147980537Y-134204494D01*
X148039502Y-134094180D01*
X148075812Y-133974482D01*
X148088072Y-133850000D01*
X148088072Y-132200000D01*
X149561928Y-132200000D01*
X149561928Y-133800000D01*
X149574188Y-133924482D01*
X149610498Y-134044180D01*
X149669463Y-134154494D01*
X149748815Y-134251185D01*
X149845506Y-134330537D01*
X149955820Y-134389502D01*
X150075518Y-134425812D01*
X150083961Y-134426643D01*
X149885363Y-134625241D01*
X149728320Y-134860273D01*
X149620147Y-135121426D01*
X149565000Y-135398665D01*
X149565000Y-135681335D01*
X149620147Y-135958574D01*
X149728320Y-136219727D01*
X149885363Y-136454759D01*
X150085241Y-136654637D01*
X150317759Y-136810000D01*
X150085241Y-136965363D01*
X149885363Y-137165241D01*
X149728320Y-137400273D01*
X149620147Y-137661426D01*
X149565000Y-137938665D01*
X149565000Y-138221335D01*
X149620147Y-138498574D01*
X149728320Y-138759727D01*
X149885363Y-138994759D01*
X150085241Y-139194637D01*
X150320273Y-139351680D01*
X150330865Y-139356067D01*
X150144869Y-139467615D01*
X149936481Y-139656586D01*
X149768963Y-139882580D01*
X149648754Y-140136913D01*
X149608096Y-140270961D01*
X149730085Y-140493000D01*
X150873000Y-140493000D01*
X150873000Y-140473000D01*
X151127000Y-140473000D01*
X151127000Y-140493000D01*
X152269915Y-140493000D01*
X152391904Y-140270961D01*
X152351246Y-140136913D01*
X152231037Y-139882580D01*
X152063519Y-139656586D01*
X151855131Y-139467615D01*
X151669135Y-139356067D01*
X151679727Y-139351680D01*
X151914759Y-139194637D01*
X152114637Y-138994759D01*
X152271680Y-138759727D01*
X152379853Y-138498574D01*
X152435000Y-138221335D01*
X152435000Y-137938665D01*
X152379853Y-137661426D01*
X152271680Y-137400273D01*
X152114637Y-137165241D01*
X151914759Y-136965363D01*
X151682241Y-136810000D01*
X151914759Y-136654637D01*
X152114637Y-136454759D01*
X152271680Y-136219727D01*
X152379853Y-135958574D01*
X152435000Y-135681335D01*
X152435000Y-135398665D01*
X152379853Y-135121426D01*
X152271680Y-134860273D01*
X152114637Y-134625241D01*
X151916039Y-134426643D01*
X151924482Y-134425812D01*
X152044180Y-134389502D01*
X152154494Y-134330537D01*
X152251185Y-134251185D01*
X152330537Y-134154494D01*
X152389502Y-134044180D01*
X152425812Y-133924482D01*
X152438072Y-133800000D01*
X152438072Y-132858665D01*
X157185000Y-132858665D01*
X157185000Y-133141335D01*
X157240147Y-133418574D01*
X157348320Y-133679727D01*
X157505363Y-133914759D01*
X157705241Y-134114637D01*
X157937759Y-134270000D01*
X157705241Y-134425363D01*
X157505363Y-134625241D01*
X157348320Y-134860273D01*
X157240147Y-135121426D01*
X157185000Y-135398665D01*
X157185000Y-135681335D01*
X157240147Y-135958574D01*
X157348320Y-136219727D01*
X157505363Y-136454759D01*
X157705241Y-136654637D01*
X157937759Y-136810000D01*
X157705241Y-136965363D01*
X157505363Y-137165241D01*
X157348320Y-137400273D01*
X157240147Y-137661426D01*
X157185000Y-137938665D01*
X157185000Y-138221335D01*
X157240147Y-138498574D01*
X157348320Y-138759727D01*
X157505363Y-138994759D01*
X157705241Y-139194637D01*
X157937759Y-139350000D01*
X157705241Y-139505363D01*
X157505363Y-139705241D01*
X157348320Y-139940273D01*
X157240147Y-140201426D01*
X157185000Y-140478665D01*
X157185000Y-140761335D01*
X157240147Y-141038574D01*
X157348320Y-141299727D01*
X157505363Y-141534759D01*
X157705241Y-141734637D01*
X157940273Y-141891680D01*
X158201426Y-141999853D01*
X158478665Y-142055000D01*
X158761335Y-142055000D01*
X159038574Y-141999853D01*
X159299727Y-141891680D01*
X159534759Y-141734637D01*
X159734637Y-141534759D01*
X159891680Y-141299727D01*
X159999853Y-141038574D01*
X160055000Y-140761335D01*
X160055000Y-140478665D01*
X159999853Y-140201426D01*
X159891680Y-139940273D01*
X159734637Y-139705241D01*
X159534759Y-139505363D01*
X159302241Y-139350000D01*
X159534759Y-139194637D01*
X159734637Y-138994759D01*
X159891680Y-138759727D01*
X159999853Y-138498574D01*
X160055000Y-138221335D01*
X160055000Y-137938665D01*
X159999853Y-137661426D01*
X159891680Y-137400273D01*
X159734637Y-137165241D01*
X159534759Y-136965363D01*
X159302241Y-136810000D01*
X159534759Y-136654637D01*
X159734637Y-136454759D01*
X159891680Y-136219727D01*
X159999853Y-135958574D01*
X160055000Y-135681335D01*
X160055000Y-135398665D01*
X159999853Y-135121426D01*
X159891680Y-134860273D01*
X159734637Y-134625241D01*
X159534759Y-134425363D01*
X159302241Y-134270000D01*
X159534759Y-134114637D01*
X159734637Y-133914759D01*
X159891680Y-133679727D01*
X159999853Y-133418574D01*
X160055000Y-133141335D01*
X160055000Y-132858665D01*
X159999853Y-132581426D01*
X159891680Y-132320273D01*
X159734637Y-132085241D01*
X159534759Y-131885363D01*
X159299727Y-131728320D01*
X159038574Y-131620147D01*
X158761335Y-131565000D01*
X158478665Y-131565000D01*
X158201426Y-131620147D01*
X157940273Y-131728320D01*
X157705241Y-131885363D01*
X157505363Y-132085241D01*
X157348320Y-132320273D01*
X157240147Y-132581426D01*
X157185000Y-132858665D01*
X152438072Y-132858665D01*
X152438072Y-132200000D01*
X152425812Y-132075518D01*
X152389502Y-131955820D01*
X152330537Y-131845506D01*
X152251185Y-131748815D01*
X152154494Y-131669463D01*
X152044180Y-131610498D01*
X151924482Y-131574188D01*
X151800000Y-131561928D01*
X150200000Y-131561928D01*
X150075518Y-131574188D01*
X149955820Y-131610498D01*
X149845506Y-131669463D01*
X149748815Y-131748815D01*
X149669463Y-131845506D01*
X149610498Y-131955820D01*
X149574188Y-132075518D01*
X149561928Y-132200000D01*
X148088072Y-132200000D01*
X148088072Y-132150000D01*
X148075812Y-132025518D01*
X148039502Y-131905820D01*
X147980537Y-131795506D01*
X147901185Y-131698815D01*
X147804494Y-131619463D01*
X147694180Y-131560498D01*
X147574482Y-131524188D01*
X147450000Y-131511928D01*
X145750000Y-131511928D01*
X145625518Y-131524188D01*
X145505820Y-131560498D01*
X145395506Y-131619463D01*
X145298815Y-131698815D01*
X145219463Y-131795506D01*
X145160498Y-131905820D01*
X145124188Y-132025518D01*
X145111928Y-132150000D01*
X100685000Y-132150000D01*
X100685000Y-127944364D01*
X130870000Y-127944364D01*
X130870000Y-129295635D01*
X130892572Y-129524812D01*
X130981774Y-129818874D01*
X131126631Y-130089882D01*
X131321576Y-130327424D01*
X131559117Y-130522369D01*
X131830125Y-130667226D01*
X132124187Y-130756428D01*
X132430000Y-130786548D01*
X132735812Y-130756428D01*
X133029874Y-130667226D01*
X133300882Y-130522369D01*
X133538424Y-130327424D01*
X133733369Y-130089883D01*
X133878226Y-129818875D01*
X133967428Y-129524813D01*
X133990000Y-129295636D01*
X133990000Y-128747000D01*
X135870000Y-128747000D01*
X135870000Y-129346000D01*
X135924751Y-129647901D01*
X136037348Y-129933319D01*
X136203464Y-130191286D01*
X136416715Y-130411889D01*
X136668906Y-130586650D01*
X136950345Y-130708853D01*
X137061336Y-130734812D01*
X137303000Y-130614483D01*
X137303000Y-128747000D01*
X137557000Y-128747000D01*
X137557000Y-130614483D01*
X137798664Y-130734812D01*
X137909655Y-130708853D01*
X138191094Y-130586650D01*
X138443285Y-130411889D01*
X138656536Y-130191286D01*
X138822652Y-129933319D01*
X138935249Y-129647901D01*
X138990000Y-129346000D01*
X138990000Y-128747000D01*
X137557000Y-128747000D01*
X137303000Y-128747000D01*
X135870000Y-128747000D01*
X133990000Y-128747000D01*
X133990000Y-127944364D01*
X133985040Y-127894000D01*
X135870000Y-127894000D01*
X135870000Y-128493000D01*
X137303000Y-128493000D01*
X137303000Y-126625517D01*
X137557000Y-126625517D01*
X137557000Y-128493000D01*
X138990000Y-128493000D01*
X138990000Y-127894000D01*
X138935249Y-127592099D01*
X138822652Y-127306681D01*
X138656536Y-127048714D01*
X138443285Y-126828111D01*
X138191094Y-126653350D01*
X137973031Y-126558665D01*
X141765000Y-126558665D01*
X141765000Y-126841335D01*
X141820147Y-127118574D01*
X141928320Y-127379727D01*
X142085363Y-127614759D01*
X142285241Y-127814637D01*
X142520273Y-127971680D01*
X142781426Y-128079853D01*
X143058665Y-128135000D01*
X143341335Y-128135000D01*
X143618574Y-128079853D01*
X143879727Y-127971680D01*
X144114759Y-127814637D01*
X144314637Y-127614759D01*
X144418935Y-127458665D01*
X147065000Y-127458665D01*
X147065000Y-127741335D01*
X147120147Y-128018574D01*
X147228320Y-128279727D01*
X147385363Y-128514759D01*
X147585241Y-128714637D01*
X147820273Y-128871680D01*
X148081426Y-128979853D01*
X148358665Y-129035000D01*
X148641335Y-129035000D01*
X148918574Y-128979853D01*
X149179727Y-128871680D01*
X149414759Y-128714637D01*
X149614637Y-128514759D01*
X149771680Y-128279727D01*
X149879853Y-128018574D01*
X149884999Y-127992702D01*
X154686903Y-127992702D01*
X154758486Y-128236671D01*
X155013996Y-128357571D01*
X155288184Y-128426300D01*
X155570512Y-128440217D01*
X155850130Y-128398787D01*
X156116292Y-128303603D01*
X156241514Y-128236671D01*
X156313097Y-127992702D01*
X155500000Y-127179605D01*
X154686903Y-127992702D01*
X149884999Y-127992702D01*
X149935000Y-127741335D01*
X149935000Y-127458665D01*
X149879853Y-127181426D01*
X149833911Y-127070512D01*
X154059783Y-127070512D01*
X154101213Y-127350130D01*
X154196397Y-127616292D01*
X154263329Y-127741514D01*
X154507298Y-127813097D01*
X155320395Y-127000000D01*
X155679605Y-127000000D01*
X156492702Y-127813097D01*
X156561928Y-127792785D01*
X156561928Y-127800000D01*
X156574188Y-127924482D01*
X156610498Y-128044180D01*
X156669463Y-128154494D01*
X156748815Y-128251185D01*
X156845506Y-128330537D01*
X156955820Y-128389502D01*
X157075518Y-128425812D01*
X157200000Y-128438072D01*
X158800000Y-128438072D01*
X158924482Y-128425812D01*
X159044180Y-128389502D01*
X159154494Y-128330537D01*
X159251185Y-128251185D01*
X159330537Y-128154494D01*
X159389502Y-128044180D01*
X159425812Y-127924482D01*
X159438072Y-127800000D01*
X159438072Y-126200000D01*
X159425812Y-126075518D01*
X159389502Y-125955820D01*
X159330537Y-125845506D01*
X159251185Y-125748815D01*
X159154494Y-125669463D01*
X159044180Y-125610498D01*
X158924482Y-125574188D01*
X158800000Y-125561928D01*
X157200000Y-125561928D01*
X157075518Y-125574188D01*
X156955820Y-125610498D01*
X156845506Y-125669463D01*
X156748815Y-125748815D01*
X156669463Y-125845506D01*
X156610498Y-125955820D01*
X156574188Y-126075518D01*
X156561928Y-126200000D01*
X156561928Y-126207215D01*
X156492702Y-126186903D01*
X155679605Y-127000000D01*
X155320395Y-127000000D01*
X154507298Y-126186903D01*
X154263329Y-126258486D01*
X154142429Y-126513996D01*
X154073700Y-126788184D01*
X154059783Y-127070512D01*
X149833911Y-127070512D01*
X149771680Y-126920273D01*
X149614637Y-126685241D01*
X149414759Y-126485363D01*
X149179727Y-126328320D01*
X148918574Y-126220147D01*
X148641335Y-126165000D01*
X148358665Y-126165000D01*
X148081426Y-126220147D01*
X147820273Y-126328320D01*
X147585241Y-126485363D01*
X147385363Y-126685241D01*
X147228320Y-126920273D01*
X147120147Y-127181426D01*
X147065000Y-127458665D01*
X144418935Y-127458665D01*
X144471680Y-127379727D01*
X144579853Y-127118574D01*
X144635000Y-126841335D01*
X144635000Y-126558665D01*
X144579853Y-126281426D01*
X144471680Y-126020273D01*
X144463011Y-126007298D01*
X154686903Y-126007298D01*
X155500000Y-126820395D01*
X156313097Y-126007298D01*
X156241514Y-125763329D01*
X155986004Y-125642429D01*
X155711816Y-125573700D01*
X155429488Y-125559783D01*
X155149870Y-125601213D01*
X154883708Y-125696397D01*
X154758486Y-125763329D01*
X154686903Y-126007298D01*
X144463011Y-126007298D01*
X144314637Y-125785241D01*
X144114759Y-125585363D01*
X143879727Y-125428320D01*
X143618574Y-125320147D01*
X143341335Y-125265000D01*
X143058665Y-125265000D01*
X142781426Y-125320147D01*
X142520273Y-125428320D01*
X142285241Y-125585363D01*
X142085363Y-125785241D01*
X141928320Y-126020273D01*
X141820147Y-126281426D01*
X141765000Y-126558665D01*
X137973031Y-126558665D01*
X137909655Y-126531147D01*
X137798664Y-126505188D01*
X137557000Y-126625517D01*
X137303000Y-126625517D01*
X137061336Y-126505188D01*
X136950345Y-126531147D01*
X136668906Y-126653350D01*
X136416715Y-126828111D01*
X136203464Y-127048714D01*
X136037348Y-127306681D01*
X135924751Y-127592099D01*
X135870000Y-127894000D01*
X133985040Y-127894000D01*
X133967428Y-127715187D01*
X133878226Y-127421125D01*
X133733369Y-127150117D01*
X133538424Y-126912576D01*
X133300883Y-126717631D01*
X133029875Y-126572774D01*
X132735813Y-126483572D01*
X132430000Y-126453452D01*
X132124188Y-126483572D01*
X131830126Y-126572774D01*
X131559118Y-126717631D01*
X131321577Y-126912576D01*
X131126632Y-127150117D01*
X130981774Y-127421125D01*
X130892572Y-127715187D01*
X130870000Y-127944364D01*
X100685000Y-127944364D01*
X100685000Y-126758400D01*
X112006205Y-126758400D01*
X112062630Y-126989621D01*
X112296808Y-127098017D01*
X112547633Y-127158645D01*
X112805465Y-127169174D01*
X113060398Y-127129200D01*
X113302633Y-127040259D01*
X113397370Y-126989621D01*
X113453795Y-126758400D01*
X112730000Y-126034605D01*
X112006205Y-126758400D01*
X100685000Y-126758400D01*
X100685000Y-125930465D01*
X111415826Y-125930465D01*
X111455800Y-126185398D01*
X111544741Y-126427633D01*
X111595379Y-126522370D01*
X111826600Y-126578795D01*
X112550395Y-125855000D01*
X112909605Y-125855000D01*
X113633400Y-126578795D01*
X113864621Y-126522370D01*
X113973017Y-126288192D01*
X114033645Y-126037367D01*
X114044174Y-125779535D01*
X114035776Y-125725976D01*
X120460000Y-125725976D01*
X120460000Y-125984024D01*
X120510342Y-126237113D01*
X120609093Y-126475518D01*
X120752456Y-126690077D01*
X120934923Y-126872544D01*
X121149482Y-127015907D01*
X121387887Y-127114658D01*
X121640976Y-127165000D01*
X121899024Y-127165000D01*
X122152113Y-127114658D01*
X122390518Y-127015907D01*
X122605077Y-126872544D01*
X122787544Y-126690077D01*
X122930907Y-126475518D01*
X123029658Y-126237113D01*
X123080000Y-125984024D01*
X123080000Y-125725976D01*
X123029658Y-125472887D01*
X122930907Y-125234482D01*
X122787544Y-125019923D01*
X122605077Y-124837456D01*
X122390518Y-124694093D01*
X122152113Y-124595342D01*
X121899024Y-124545000D01*
X121640976Y-124545000D01*
X121387887Y-124595342D01*
X121149482Y-124694093D01*
X120934923Y-124837456D01*
X120752456Y-125019923D01*
X120609093Y-125234482D01*
X120510342Y-125472887D01*
X120460000Y-125725976D01*
X114035776Y-125725976D01*
X114004200Y-125524602D01*
X113915259Y-125282367D01*
X113864621Y-125187630D01*
X113633400Y-125131205D01*
X112909605Y-125855000D01*
X112550395Y-125855000D01*
X111826600Y-125131205D01*
X111595379Y-125187630D01*
X111486983Y-125421808D01*
X111426355Y-125672633D01*
X111415826Y-125930465D01*
X100685000Y-125930465D01*
X100685000Y-124951600D01*
X112006205Y-124951600D01*
X112730000Y-125675395D01*
X113453795Y-124951600D01*
X113397370Y-124720379D01*
X113163192Y-124611983D01*
X112912367Y-124551355D01*
X112654535Y-124540826D01*
X112399602Y-124580800D01*
X112157367Y-124669741D01*
X112062630Y-124720379D01*
X112006205Y-124951600D01*
X100685000Y-124951600D01*
X100685000Y-119492702D01*
X120786903Y-119492702D01*
X120858486Y-119736671D01*
X121113996Y-119857571D01*
X121388184Y-119926300D01*
X121670512Y-119940217D01*
X121950130Y-119898787D01*
X122216292Y-119803603D01*
X122341514Y-119736671D01*
X122413097Y-119492702D01*
X121600000Y-118679605D01*
X120786903Y-119492702D01*
X100685000Y-119492702D01*
X100685000Y-118570512D01*
X120159783Y-118570512D01*
X120201213Y-118850130D01*
X120296397Y-119116292D01*
X120363329Y-119241514D01*
X120607298Y-119313097D01*
X121420395Y-118500000D01*
X121779605Y-118500000D01*
X122592702Y-119313097D01*
X122836671Y-119241514D01*
X122957571Y-118986004D01*
X123026300Y-118711816D01*
X123040217Y-118429488D01*
X122998787Y-118149870D01*
X122903603Y-117883708D01*
X122836671Y-117758486D01*
X122637340Y-117700000D01*
X125161928Y-117700000D01*
X125161928Y-119300000D01*
X125174188Y-119424482D01*
X125210498Y-119544180D01*
X125269463Y-119654494D01*
X125348815Y-119751185D01*
X125445506Y-119830537D01*
X125555820Y-119889502D01*
X125675518Y-119925812D01*
X125800000Y-119938072D01*
X127400000Y-119938072D01*
X127524482Y-119925812D01*
X127644180Y-119889502D01*
X127754494Y-119830537D01*
X127851185Y-119751185D01*
X127930537Y-119654494D01*
X127989502Y-119544180D01*
X128025812Y-119424482D01*
X128038072Y-119300000D01*
X128038072Y-117700000D01*
X128025812Y-117575518D01*
X127989502Y-117455820D01*
X127930537Y-117345506D01*
X127851185Y-117248815D01*
X127754494Y-117169463D01*
X127644180Y-117110498D01*
X127524482Y-117074188D01*
X127400000Y-117061928D01*
X125800000Y-117061928D01*
X125675518Y-117074188D01*
X125555820Y-117110498D01*
X125445506Y-117169463D01*
X125348815Y-117248815D01*
X125269463Y-117345506D01*
X125210498Y-117455820D01*
X125174188Y-117575518D01*
X125161928Y-117700000D01*
X122637340Y-117700000D01*
X122592702Y-117686903D01*
X121779605Y-118500000D01*
X121420395Y-118500000D01*
X120607298Y-117686903D01*
X120363329Y-117758486D01*
X120242429Y-118013996D01*
X120173700Y-118288184D01*
X120159783Y-118570512D01*
X100685000Y-118570512D01*
X100685000Y-117507298D01*
X120786903Y-117507298D01*
X121600000Y-118320395D01*
X122413097Y-117507298D01*
X122341514Y-117263329D01*
X122086004Y-117142429D01*
X121811816Y-117073700D01*
X121529488Y-117059783D01*
X121249870Y-117101213D01*
X120983708Y-117196397D01*
X120858486Y-117263329D01*
X120786903Y-117507298D01*
X100685000Y-117507298D01*
X100685000Y-113956891D01*
X130478519Y-113956891D01*
X130575843Y-114231252D01*
X130724822Y-114481355D01*
X130919731Y-114697588D01*
X131153080Y-114871641D01*
X131415901Y-114996825D01*
X131563110Y-115041476D01*
X131793000Y-114920155D01*
X131793000Y-113727000D01*
X130599186Y-113727000D01*
X130478519Y-113956891D01*
X100685000Y-113956891D01*
X100685000Y-113243109D01*
X130478519Y-113243109D01*
X130599186Y-113473000D01*
X131793000Y-113473000D01*
X131793000Y-112279845D01*
X132047000Y-112279845D01*
X132047000Y-113473000D01*
X132067000Y-113473000D01*
X132067000Y-113727000D01*
X132047000Y-113727000D01*
X132047000Y-114920155D01*
X132276890Y-115041476D01*
X132424099Y-114996825D01*
X132686920Y-114871641D01*
X132920269Y-114697588D01*
X133115178Y-114481355D01*
X133184805Y-114364466D01*
X133306525Y-114546632D01*
X133513368Y-114753475D01*
X133756589Y-114915990D01*
X134026842Y-115027932D01*
X134313740Y-115085000D01*
X134606260Y-115085000D01*
X134893158Y-115027932D01*
X135163411Y-114915990D01*
X135406632Y-114753475D01*
X135538487Y-114621620D01*
X135560498Y-114694180D01*
X135619463Y-114804494D01*
X135698815Y-114901185D01*
X135795506Y-114980537D01*
X135905820Y-115039502D01*
X136025518Y-115075812D01*
X136150000Y-115088072D01*
X137850000Y-115088072D01*
X137974482Y-115075812D01*
X138094180Y-115039502D01*
X138204494Y-114980537D01*
X138301185Y-114901185D01*
X138380537Y-114804494D01*
X138439502Y-114694180D01*
X138475812Y-114574482D01*
X138488072Y-114450000D01*
X138488072Y-113858665D01*
X141765000Y-113858665D01*
X141765000Y-114141335D01*
X141820147Y-114418574D01*
X141928320Y-114679727D01*
X142085363Y-114914759D01*
X142285241Y-115114637D01*
X142520273Y-115271680D01*
X142781426Y-115379853D01*
X143058665Y-115435000D01*
X143341335Y-115435000D01*
X143618574Y-115379853D01*
X143879727Y-115271680D01*
X143913610Y-115249040D01*
X147108091Y-115249040D01*
X147202930Y-115513881D01*
X147347615Y-115755131D01*
X147536586Y-115963519D01*
X147762580Y-116131037D01*
X148016913Y-116251246D01*
X148150961Y-116291904D01*
X148373000Y-116169915D01*
X148373000Y-115027000D01*
X148627000Y-115027000D01*
X148627000Y-116169915D01*
X148849039Y-116291904D01*
X148983087Y-116251246D01*
X149237420Y-116131037D01*
X149463414Y-115963519D01*
X149652385Y-115755131D01*
X149797070Y-115513881D01*
X149891909Y-115249040D01*
X149770624Y-115027000D01*
X148627000Y-115027000D01*
X148373000Y-115027000D01*
X147229376Y-115027000D01*
X147108091Y-115249040D01*
X143913610Y-115249040D01*
X144114759Y-115114637D01*
X144314637Y-114914759D01*
X144471680Y-114679727D01*
X144525016Y-114550960D01*
X147108091Y-114550960D01*
X147229376Y-114773000D01*
X148373000Y-114773000D01*
X148373000Y-113630085D01*
X148627000Y-113630085D01*
X148627000Y-114773000D01*
X149770624Y-114773000D01*
X149891909Y-114550960D01*
X149797070Y-114286119D01*
X149652385Y-114044869D01*
X149463414Y-113836481D01*
X149237420Y-113668963D01*
X148983087Y-113548754D01*
X148849039Y-113508096D01*
X148627000Y-113630085D01*
X148373000Y-113630085D01*
X148150961Y-113508096D01*
X148016913Y-113548754D01*
X147762580Y-113668963D01*
X147536586Y-113836481D01*
X147347615Y-114044869D01*
X147202930Y-114286119D01*
X147108091Y-114550960D01*
X144525016Y-114550960D01*
X144579853Y-114418574D01*
X144635000Y-114141335D01*
X144635000Y-113858665D01*
X144579853Y-113581426D01*
X144471680Y-113320273D01*
X144314637Y-113085241D01*
X144114759Y-112885363D01*
X143879727Y-112728320D01*
X143618574Y-112620147D01*
X143341335Y-112565000D01*
X143058665Y-112565000D01*
X142781426Y-112620147D01*
X142520273Y-112728320D01*
X142285241Y-112885363D01*
X142085363Y-113085241D01*
X141928320Y-113320273D01*
X141820147Y-113581426D01*
X141765000Y-113858665D01*
X138488072Y-113858665D01*
X138488072Y-112750000D01*
X138475812Y-112625518D01*
X138439502Y-112505820D01*
X138380537Y-112395506D01*
X138301185Y-112298815D01*
X138204494Y-112219463D01*
X138094180Y-112160498D01*
X137974482Y-112124188D01*
X137850000Y-112111928D01*
X136150000Y-112111928D01*
X136025518Y-112124188D01*
X135905820Y-112160498D01*
X135795506Y-112219463D01*
X135698815Y-112298815D01*
X135619463Y-112395506D01*
X135560498Y-112505820D01*
X135538487Y-112578380D01*
X135406632Y-112446525D01*
X135163411Y-112284010D01*
X134893158Y-112172068D01*
X134606260Y-112115000D01*
X134313740Y-112115000D01*
X134026842Y-112172068D01*
X133756589Y-112284010D01*
X133513368Y-112446525D01*
X133306525Y-112653368D01*
X133184805Y-112835534D01*
X133115178Y-112718645D01*
X132920269Y-112502412D01*
X132686920Y-112328359D01*
X132424099Y-112203175D01*
X132276890Y-112158524D01*
X132047000Y-112279845D01*
X131793000Y-112279845D01*
X131563110Y-112158524D01*
X131415901Y-112203175D01*
X131153080Y-112328359D01*
X130919731Y-112502412D01*
X130724822Y-112718645D01*
X130575843Y-112968748D01*
X130478519Y-113243109D01*
X100685000Y-113243109D01*
X100685000Y-110127000D01*
X110000000Y-110127000D01*
X110024776Y-110124560D01*
X110048601Y-110117333D01*
X110070557Y-110105597D01*
X110089803Y-110089803D01*
X110105597Y-110070557D01*
X110117333Y-110048601D01*
X110124560Y-110024776D01*
X110127000Y-110000000D01*
X110127000Y-100685000D01*
X159873000Y-100685000D01*
X159873000Y-110000000D01*
G37*
X159873000Y-110000000D02*
X159875440Y-110024776D01*
X159882667Y-110048601D01*
X159894403Y-110070557D01*
X159910197Y-110089803D01*
X159929443Y-110105597D01*
X159951399Y-110117333D01*
X159975224Y-110124560D01*
X160000000Y-110127000D01*
X169315000Y-110127000D01*
X169315001Y-159873000D01*
X160000000Y-159873000D01*
X159975224Y-159875440D01*
X159951399Y-159882667D01*
X159929443Y-159894403D01*
X159910197Y-159910197D01*
X159894403Y-159929443D01*
X159882667Y-159951399D01*
X159875440Y-159975224D01*
X159873000Y-160000000D01*
X159873000Y-169315000D01*
X110127000Y-169315000D01*
X110127000Y-160350000D01*
X118959025Y-160350000D01*
X118982870Y-160592102D01*
X119053489Y-160824901D01*
X119168167Y-161039449D01*
X119322498Y-161227502D01*
X119510551Y-161381833D01*
X119725099Y-161496511D01*
X119957898Y-161567130D01*
X120139335Y-161585000D01*
X121060665Y-161585000D01*
X121242102Y-161567130D01*
X121474901Y-161496511D01*
X121689449Y-161381833D01*
X121877502Y-161227502D01*
X122031833Y-161039449D01*
X122146511Y-160824901D01*
X122217130Y-160592102D01*
X122240975Y-160350000D01*
X122217130Y-160107898D01*
X122146511Y-159875099D01*
X122031833Y-159660551D01*
X121877502Y-159472498D01*
X121689449Y-159318167D01*
X121474901Y-159203489D01*
X121242102Y-159132870D01*
X121060665Y-159115000D01*
X120139335Y-159115000D01*
X119957898Y-159132870D01*
X119725099Y-159203489D01*
X119510551Y-159318167D01*
X119322498Y-159472498D01*
X119168167Y-159660551D01*
X119053489Y-159875099D01*
X118982870Y-160107898D01*
X118959025Y-160350000D01*
X110127000Y-160350000D01*
X110127000Y-160000000D01*
X110124560Y-159975224D01*
X110117333Y-159951399D01*
X110105597Y-159929443D01*
X110089803Y-159910197D01*
X110070557Y-159894403D01*
X110048601Y-159882667D01*
X110024776Y-159875440D01*
X110000000Y-159873000D01*
X100685000Y-159873000D01*
X100685000Y-157638921D01*
X105384744Y-157638921D01*
X105384744Y-157921591D01*
X105439891Y-158198830D01*
X105548064Y-158459983D01*
X105705107Y-158695015D01*
X105904985Y-158894893D01*
X106140017Y-159051936D01*
X106401170Y-159160109D01*
X106678409Y-159215256D01*
X106961079Y-159215256D01*
X107238318Y-159160109D01*
X107499471Y-159051936D01*
X107734503Y-158894893D01*
X107934381Y-158695015D01*
X108091424Y-158459983D01*
X108199597Y-158198830D01*
X108254744Y-157921591D01*
X108254744Y-157810000D01*
X118959025Y-157810000D01*
X118982870Y-158052102D01*
X119053489Y-158284901D01*
X119168167Y-158499449D01*
X119322498Y-158687502D01*
X119510551Y-158841833D01*
X119725099Y-158956511D01*
X119957898Y-159027130D01*
X120139335Y-159045000D01*
X121060665Y-159045000D01*
X121242102Y-159027130D01*
X121474901Y-158956511D01*
X121689449Y-158841833D01*
X121877502Y-158687502D01*
X122031833Y-158499449D01*
X122146511Y-158284901D01*
X122217130Y-158052102D01*
X122240975Y-157810000D01*
X153559025Y-157810000D01*
X153582870Y-158052102D01*
X153653489Y-158284901D01*
X153768167Y-158499449D01*
X153922498Y-158687502D01*
X154110551Y-158841833D01*
X154325099Y-158956511D01*
X154557898Y-159027130D01*
X154739335Y-159045000D01*
X155660665Y-159045000D01*
X155842102Y-159027130D01*
X156074901Y-158956511D01*
X156289449Y-158841833D01*
X156477502Y-158687502D01*
X156631833Y-158499449D01*
X156746511Y-158284901D01*
X156817130Y-158052102D01*
X156840975Y-157810000D01*
X156817130Y-157567898D01*
X156746511Y-157335099D01*
X156631833Y-157120551D01*
X156477502Y-156932498D01*
X156289449Y-156778167D01*
X156074901Y-156663489D01*
X155842102Y-156592870D01*
X155660665Y-156575000D01*
X154739335Y-156575000D01*
X154557898Y-156592870D01*
X154325099Y-156663489D01*
X154110551Y-156778167D01*
X153922498Y-156932498D01*
X153768167Y-157120551D01*
X153653489Y-157335099D01*
X153582870Y-157567898D01*
X153559025Y-157810000D01*
X122240975Y-157810000D01*
X122217130Y-157567898D01*
X122146511Y-157335099D01*
X122031833Y-157120551D01*
X121877502Y-156932498D01*
X121689449Y-156778167D01*
X121474901Y-156663489D01*
X121242102Y-156592870D01*
X121060665Y-156575000D01*
X120139335Y-156575000D01*
X119957898Y-156592870D01*
X119725099Y-156663489D01*
X119510551Y-156778167D01*
X119322498Y-156932498D01*
X119168167Y-157120551D01*
X119053489Y-157335099D01*
X118982870Y-157567898D01*
X118959025Y-157810000D01*
X108254744Y-157810000D01*
X108254744Y-157638921D01*
X108199597Y-157361682D01*
X108091424Y-157100529D01*
X107934381Y-156865497D01*
X107734503Y-156665619D01*
X107499471Y-156508576D01*
X107238318Y-156400403D01*
X106961079Y-156345256D01*
X106678409Y-156345256D01*
X106401170Y-156400403D01*
X106140017Y-156508576D01*
X105904985Y-156665619D01*
X105705107Y-156865497D01*
X105548064Y-157100529D01*
X105439891Y-157361682D01*
X105384744Y-157638921D01*
X100685000Y-157638921D01*
X100685000Y-154550000D01*
X101311928Y-154550000D01*
X101311928Y-156250000D01*
X101324188Y-156374482D01*
X101360498Y-156494180D01*
X101419463Y-156604494D01*
X101498815Y-156701185D01*
X101595506Y-156780537D01*
X101705820Y-156839502D01*
X101825518Y-156875812D01*
X101950000Y-156888072D01*
X103650000Y-156888072D01*
X103774482Y-156875812D01*
X103894180Y-156839502D01*
X104004494Y-156780537D01*
X104101185Y-156701185D01*
X104180537Y-156604494D01*
X104239502Y-156494180D01*
X104275812Y-156374482D01*
X104288072Y-156250000D01*
X104288072Y-155270000D01*
X118959025Y-155270000D01*
X118982870Y-155512102D01*
X119053489Y-155744901D01*
X119168167Y-155959449D01*
X119322498Y-156147502D01*
X119510551Y-156301833D01*
X119725099Y-156416511D01*
X119957898Y-156487130D01*
X120139335Y-156505000D01*
X121060665Y-156505000D01*
X121242102Y-156487130D01*
X121474901Y-156416511D01*
X121689449Y-156301833D01*
X121877502Y-156147502D01*
X122031833Y-155959449D01*
X122146511Y-155744901D01*
X122217130Y-155512102D01*
X122240975Y-155270000D01*
X153559025Y-155270000D01*
X153582870Y-155512102D01*
X153653489Y-155744901D01*
X153768167Y-155959449D01*
X153922498Y-156147502D01*
X154110551Y-156301833D01*
X154325099Y-156416511D01*
X154557898Y-156487130D01*
X154739335Y-156505000D01*
X155660665Y-156505000D01*
X155842102Y-156487130D01*
X156074901Y-156416511D01*
X156289449Y-156301833D01*
X156477502Y-156147502D01*
X156631833Y-155959449D01*
X156746511Y-155744901D01*
X156817130Y-155512102D01*
X156840975Y-155270000D01*
X156817130Y-155027898D01*
X156746511Y-154795099D01*
X156631833Y-154580551D01*
X156477502Y-154392498D01*
X156289449Y-154238167D01*
X156074901Y-154123489D01*
X155842102Y-154052870D01*
X155660665Y-154035000D01*
X154739335Y-154035000D01*
X154557898Y-154052870D01*
X154325099Y-154123489D01*
X154110551Y-154238167D01*
X153922498Y-154392498D01*
X153768167Y-154580551D01*
X153653489Y-154795099D01*
X153582870Y-155027898D01*
X153559025Y-155270000D01*
X122240975Y-155270000D01*
X122217130Y-155027898D01*
X122146511Y-154795099D01*
X122031833Y-154580551D01*
X121877502Y-154392498D01*
X121689449Y-154238167D01*
X121474901Y-154123489D01*
X121242102Y-154052870D01*
X121060665Y-154035000D01*
X120139335Y-154035000D01*
X119957898Y-154052870D01*
X119725099Y-154123489D01*
X119510551Y-154238167D01*
X119322498Y-154392498D01*
X119168167Y-154580551D01*
X119053489Y-154795099D01*
X118982870Y-155027898D01*
X118959025Y-155270000D01*
X104288072Y-155270000D01*
X104288072Y-154550000D01*
X104275812Y-154425518D01*
X104239502Y-154305820D01*
X104180537Y-154195506D01*
X104101185Y-154098815D01*
X104004494Y-154019463D01*
X103894180Y-153960498D01*
X103813534Y-153936034D01*
X103897588Y-153860269D01*
X104071641Y-153626920D01*
X104196825Y-153364099D01*
X104241476Y-153216890D01*
X104120155Y-152987000D01*
X102927000Y-152987000D01*
X102927000Y-153007000D01*
X102673000Y-153007000D01*
X102673000Y-152987000D01*
X101479845Y-152987000D01*
X101358524Y-153216890D01*
X101403175Y-153364099D01*
X101528359Y-153626920D01*
X101702412Y-153860269D01*
X101786466Y-153936034D01*
X101705820Y-153960498D01*
X101595506Y-154019463D01*
X101498815Y-154098815D01*
X101419463Y-154195506D01*
X101360498Y-154305820D01*
X101324188Y-154425518D01*
X101311928Y-154550000D01*
X100685000Y-154550000D01*
X100685000Y-152503110D01*
X101358524Y-152503110D01*
X101479845Y-152733000D01*
X102673000Y-152733000D01*
X102673000Y-151539186D01*
X102927000Y-151539186D01*
X102927000Y-152733000D01*
X104120155Y-152733000D01*
X104121738Y-152730000D01*
X118959025Y-152730000D01*
X118982870Y-152972102D01*
X119053489Y-153204901D01*
X119168167Y-153419449D01*
X119322498Y-153607502D01*
X119510551Y-153761833D01*
X119725099Y-153876511D01*
X119957898Y-153947130D01*
X120139335Y-153965000D01*
X121060665Y-153965000D01*
X121242102Y-153947130D01*
X121474901Y-153876511D01*
X121689449Y-153761833D01*
X121877502Y-153607502D01*
X122031833Y-153419449D01*
X122146511Y-153204901D01*
X122217130Y-152972102D01*
X122240975Y-152730000D01*
X153559025Y-152730000D01*
X153582870Y-152972102D01*
X153653489Y-153204901D01*
X153768167Y-153419449D01*
X153922498Y-153607502D01*
X154110551Y-153761833D01*
X154325099Y-153876511D01*
X154557898Y-153947130D01*
X154739335Y-153965000D01*
X155660665Y-153965000D01*
X155842102Y-153947130D01*
X156074901Y-153876511D01*
X156289449Y-153761833D01*
X156477502Y-153607502D01*
X156631833Y-153419449D01*
X156746511Y-153204901D01*
X156817130Y-152972102D01*
X156840975Y-152730000D01*
X156817130Y-152487898D01*
X156746511Y-152255099D01*
X156631833Y-152040551D01*
X156477502Y-151852498D01*
X156289449Y-151698167D01*
X156074901Y-151583489D01*
X155842102Y-151512870D01*
X155660665Y-151495000D01*
X154739335Y-151495000D01*
X154557898Y-151512870D01*
X154325099Y-151583489D01*
X154110551Y-151698167D01*
X153922498Y-151852498D01*
X153768167Y-152040551D01*
X153653489Y-152255099D01*
X153582870Y-152487898D01*
X153559025Y-152730000D01*
X122240975Y-152730000D01*
X122217130Y-152487898D01*
X122146511Y-152255099D01*
X122031833Y-152040551D01*
X121877502Y-151852498D01*
X121689449Y-151698167D01*
X121474901Y-151583489D01*
X121242102Y-151512870D01*
X121060665Y-151495000D01*
X120139335Y-151495000D01*
X119957898Y-151512870D01*
X119725099Y-151583489D01*
X119510551Y-151698167D01*
X119322498Y-151852498D01*
X119168167Y-152040551D01*
X119053489Y-152255099D01*
X118982870Y-152487898D01*
X118959025Y-152730000D01*
X104121738Y-152730000D01*
X104241476Y-152503110D01*
X104196825Y-152355901D01*
X104071641Y-152093080D01*
X103897588Y-151859731D01*
X103681355Y-151664822D01*
X103431252Y-151515843D01*
X103156891Y-151418519D01*
X102927000Y-151539186D01*
X102673000Y-151539186D01*
X102443109Y-151418519D01*
X102168748Y-151515843D01*
X101918645Y-151664822D01*
X101702412Y-151859731D01*
X101528359Y-152093080D01*
X101403175Y-152355901D01*
X101358524Y-152503110D01*
X100685000Y-152503110D01*
X100685000Y-148658665D01*
X114365000Y-148658665D01*
X114365000Y-148941335D01*
X114420147Y-149218574D01*
X114528320Y-149479727D01*
X114685363Y-149714759D01*
X114885241Y-149914637D01*
X115120273Y-150071680D01*
X115381426Y-150179853D01*
X115658665Y-150235000D01*
X115941335Y-150235000D01*
X116167562Y-150190000D01*
X118959025Y-150190000D01*
X118982870Y-150432102D01*
X119053489Y-150664901D01*
X119168167Y-150879449D01*
X119322498Y-151067502D01*
X119510551Y-151221833D01*
X119725099Y-151336511D01*
X119957898Y-151407130D01*
X120139335Y-151425000D01*
X121060665Y-151425000D01*
X121242102Y-151407130D01*
X121474901Y-151336511D01*
X121689449Y-151221833D01*
X121877502Y-151067502D01*
X122031833Y-150879449D01*
X122146511Y-150664901D01*
X122194225Y-150507609D01*
X153606538Y-150507609D01*
X153610409Y-150545282D01*
X153702579Y-150770533D01*
X153836922Y-150973474D01*
X154008275Y-151146307D01*
X154210054Y-151282390D01*
X154434504Y-151376493D01*
X154673000Y-151425000D01*
X155073000Y-151425000D01*
X155073000Y-150317000D01*
X155327000Y-150317000D01*
X155327000Y-151425000D01*
X155727000Y-151425000D01*
X155965496Y-151376493D01*
X156189946Y-151282390D01*
X156391725Y-151146307D01*
X156563078Y-150973474D01*
X156697421Y-150770533D01*
X156789591Y-150545282D01*
X156793462Y-150507609D01*
X156668731Y-150317000D01*
X155327000Y-150317000D01*
X155073000Y-150317000D01*
X153731269Y-150317000D01*
X153606538Y-150507609D01*
X122194225Y-150507609D01*
X122217130Y-150432102D01*
X122240975Y-150190000D01*
X122217130Y-149947898D01*
X122194226Y-149872391D01*
X153606538Y-149872391D01*
X153731269Y-150063000D01*
X155073000Y-150063000D01*
X155073000Y-148955000D01*
X155327000Y-148955000D01*
X155327000Y-150063000D01*
X156668731Y-150063000D01*
X156793462Y-149872391D01*
X156789591Y-149834718D01*
X156697421Y-149609467D01*
X156563078Y-149406526D01*
X156391725Y-149233693D01*
X156189946Y-149097610D01*
X155965496Y-149003507D01*
X155727000Y-148955000D01*
X155327000Y-148955000D01*
X155073000Y-148955000D01*
X154673000Y-148955000D01*
X154434504Y-149003507D01*
X154210054Y-149097610D01*
X154008275Y-149233693D01*
X153836922Y-149406526D01*
X153702579Y-149609467D01*
X153610409Y-149834718D01*
X153606538Y-149872391D01*
X122194226Y-149872391D01*
X122146511Y-149715099D01*
X122031833Y-149500551D01*
X121877502Y-149312498D01*
X121689449Y-149158167D01*
X121474901Y-149043489D01*
X121242102Y-148972870D01*
X121060665Y-148955000D01*
X120139335Y-148955000D01*
X119957898Y-148972870D01*
X119725099Y-149043489D01*
X119510551Y-149158167D01*
X119322498Y-149312498D01*
X119168167Y-149500551D01*
X119053489Y-149715099D01*
X118982870Y-149947898D01*
X118959025Y-150190000D01*
X116167562Y-150190000D01*
X116218574Y-150179853D01*
X116479727Y-150071680D01*
X116714759Y-149914637D01*
X116914637Y-149714759D01*
X117071680Y-149479727D01*
X117179853Y-149218574D01*
X117235000Y-148941335D01*
X117235000Y-148658665D01*
X117179853Y-148381426D01*
X117071680Y-148120273D01*
X116969674Y-147967609D01*
X119006538Y-147967609D01*
X119010409Y-148005282D01*
X119102579Y-148230533D01*
X119236922Y-148433474D01*
X119408275Y-148606307D01*
X119610054Y-148742390D01*
X119834504Y-148836493D01*
X120073000Y-148885000D01*
X120473000Y-148885000D01*
X120473000Y-147777000D01*
X120727000Y-147777000D01*
X120727000Y-148885000D01*
X121127000Y-148885000D01*
X121365496Y-148836493D01*
X121589946Y-148742390D01*
X121791725Y-148606307D01*
X121963078Y-148433474D01*
X122097421Y-148230533D01*
X122189591Y-148005282D01*
X122193462Y-147967609D01*
X122068731Y-147777000D01*
X120727000Y-147777000D01*
X120473000Y-147777000D01*
X119131269Y-147777000D01*
X119006538Y-147967609D01*
X116969674Y-147967609D01*
X116914637Y-147885241D01*
X116714759Y-147685363D01*
X116479727Y-147528320D01*
X116218574Y-147420147D01*
X115941335Y-147365000D01*
X115658665Y-147365000D01*
X115381426Y-147420147D01*
X115120273Y-147528320D01*
X114885241Y-147685363D01*
X114685363Y-147885241D01*
X114528320Y-148120273D01*
X114420147Y-148381426D01*
X114365000Y-148658665D01*
X100685000Y-148658665D01*
X100685000Y-147332391D01*
X119006538Y-147332391D01*
X119131269Y-147523000D01*
X120473000Y-147523000D01*
X120473000Y-146415000D01*
X120727000Y-146415000D01*
X120727000Y-147523000D01*
X122068731Y-147523000D01*
X122193462Y-147332391D01*
X122189591Y-147294718D01*
X122097421Y-147069467D01*
X121963078Y-146866526D01*
X121791725Y-146693693D01*
X121589946Y-146557610D01*
X121365496Y-146463507D01*
X121127000Y-146415000D01*
X120727000Y-146415000D01*
X120473000Y-146415000D01*
X120073000Y-146415000D01*
X119834504Y-146463507D01*
X119610054Y-146557610D01*
X119408275Y-146693693D01*
X119236922Y-146866526D01*
X119102579Y-147069467D01*
X119010409Y-147294718D01*
X119006538Y-147332391D01*
X100685000Y-147332391D01*
X100685000Y-141848400D01*
X112006205Y-141848400D01*
X112062630Y-142079621D01*
X112296808Y-142188017D01*
X112547633Y-142248645D01*
X112805465Y-142259174D01*
X113060398Y-142219200D01*
X113302633Y-142130259D01*
X113397370Y-142079621D01*
X113453795Y-141848400D01*
X112730000Y-141124605D01*
X112006205Y-141848400D01*
X100685000Y-141848400D01*
X100685000Y-141020465D01*
X111415826Y-141020465D01*
X111455800Y-141275398D01*
X111544741Y-141517633D01*
X111595379Y-141612370D01*
X111826600Y-141668795D01*
X112550395Y-140945000D01*
X112909605Y-140945000D01*
X113633400Y-141668795D01*
X113864621Y-141612370D01*
X113973017Y-141378192D01*
X114033645Y-141127367D01*
X114044174Y-140869535D01*
X114035776Y-140815976D01*
X120460000Y-140815976D01*
X120460000Y-141074024D01*
X120510342Y-141327113D01*
X120609093Y-141565518D01*
X120752456Y-141780077D01*
X120934923Y-141962544D01*
X121149482Y-142105907D01*
X121387887Y-142204658D01*
X121640976Y-142255000D01*
X121899024Y-142255000D01*
X122152113Y-142204658D01*
X122390518Y-142105907D01*
X122605077Y-141962544D01*
X122787544Y-141780077D01*
X122930907Y-141565518D01*
X123029658Y-141327113D01*
X123080000Y-141074024D01*
X123080000Y-140815976D01*
X123029658Y-140562887D01*
X122980564Y-140444364D01*
X130870000Y-140444364D01*
X130870000Y-141795635D01*
X130892572Y-142024812D01*
X130981774Y-142318874D01*
X131126631Y-142589882D01*
X131321576Y-142827424D01*
X131559117Y-143022369D01*
X131830125Y-143167226D01*
X132124187Y-143256428D01*
X132430000Y-143286548D01*
X132735812Y-143256428D01*
X133029874Y-143167226D01*
X133300882Y-143022369D01*
X133538424Y-142827424D01*
X133733369Y-142589883D01*
X133878226Y-142318875D01*
X133967428Y-142024813D01*
X133990000Y-141795636D01*
X133990000Y-141247000D01*
X135870000Y-141247000D01*
X135870000Y-141846000D01*
X135924751Y-142147901D01*
X136037348Y-142433319D01*
X136203464Y-142691286D01*
X136416715Y-142911889D01*
X136668906Y-143086650D01*
X136950345Y-143208853D01*
X137061336Y-143234812D01*
X137303000Y-143114483D01*
X137303000Y-141247000D01*
X137557000Y-141247000D01*
X137557000Y-143114483D01*
X137798664Y-143234812D01*
X137909655Y-143208853D01*
X138191094Y-143086650D01*
X138443285Y-142911889D01*
X138656536Y-142691286D01*
X138822652Y-142433319D01*
X138935249Y-142147901D01*
X138990000Y-141846000D01*
X138990000Y-141247000D01*
X137557000Y-141247000D01*
X137303000Y-141247000D01*
X135870000Y-141247000D01*
X133990000Y-141247000D01*
X133990000Y-140444364D01*
X133985040Y-140394000D01*
X135870000Y-140394000D01*
X135870000Y-140993000D01*
X137303000Y-140993000D01*
X137303000Y-139125517D01*
X137557000Y-139125517D01*
X137557000Y-140993000D01*
X138990000Y-140993000D01*
X138990000Y-140969039D01*
X149608096Y-140969039D01*
X149648754Y-141103087D01*
X149768963Y-141357420D01*
X149936481Y-141583414D01*
X150144869Y-141772385D01*
X150386119Y-141917070D01*
X150650960Y-142011909D01*
X150873000Y-141890624D01*
X150873000Y-140747000D01*
X151127000Y-140747000D01*
X151127000Y-141890624D01*
X151349040Y-142011909D01*
X151613881Y-141917070D01*
X151855131Y-141772385D01*
X152063519Y-141583414D01*
X152231037Y-141357420D01*
X152351246Y-141103087D01*
X152391904Y-140969039D01*
X152269915Y-140747000D01*
X151127000Y-140747000D01*
X150873000Y-140747000D01*
X149730085Y-140747000D01*
X149608096Y-140969039D01*
X138990000Y-140969039D01*
X138990000Y-140394000D01*
X138935249Y-140092099D01*
X138822652Y-139806681D01*
X138656536Y-139548714D01*
X138443285Y-139328111D01*
X138191094Y-139153350D01*
X137909655Y-139031147D01*
X137798664Y-139005188D01*
X137557000Y-139125517D01*
X137303000Y-139125517D01*
X137061336Y-139005188D01*
X136950345Y-139031147D01*
X136668906Y-139153350D01*
X136416715Y-139328111D01*
X136203464Y-139548714D01*
X136037348Y-139806681D01*
X135924751Y-140092099D01*
X135870000Y-140394000D01*
X133985040Y-140394000D01*
X133967428Y-140215187D01*
X133878226Y-139921125D01*
X133733369Y-139650117D01*
X133538424Y-139412576D01*
X133300883Y-139217631D01*
X133029875Y-139072774D01*
X132735813Y-138983572D01*
X132430000Y-138953452D01*
X132124188Y-138983572D01*
X131830126Y-139072774D01*
X131559118Y-139217631D01*
X131321577Y-139412576D01*
X131126632Y-139650117D01*
X130981774Y-139921125D01*
X130892572Y-140215187D01*
X130870000Y-140444364D01*
X122980564Y-140444364D01*
X122930907Y-140324482D01*
X122787544Y-140109923D01*
X122605077Y-139927456D01*
X122390518Y-139784093D01*
X122152113Y-139685342D01*
X121899024Y-139635000D01*
X121640976Y-139635000D01*
X121387887Y-139685342D01*
X121149482Y-139784093D01*
X120934923Y-139927456D01*
X120752456Y-140109923D01*
X120609093Y-140324482D01*
X120510342Y-140562887D01*
X120460000Y-140815976D01*
X114035776Y-140815976D01*
X114004200Y-140614602D01*
X113915259Y-140372367D01*
X113864621Y-140277630D01*
X113633400Y-140221205D01*
X112909605Y-140945000D01*
X112550395Y-140945000D01*
X111826600Y-140221205D01*
X111595379Y-140277630D01*
X111486983Y-140511808D01*
X111426355Y-140762633D01*
X111415826Y-141020465D01*
X100685000Y-141020465D01*
X100685000Y-140041600D01*
X112006205Y-140041600D01*
X112730000Y-140765395D01*
X113453795Y-140041600D01*
X113397370Y-139810379D01*
X113163192Y-139701983D01*
X112912367Y-139641355D01*
X112654535Y-139630826D01*
X112399602Y-139670800D01*
X112157367Y-139759741D01*
X112062630Y-139810379D01*
X112006205Y-140041600D01*
X100685000Y-140041600D01*
X100685000Y-132150000D01*
X145111928Y-132150000D01*
X145111928Y-133850000D01*
X145124188Y-133974482D01*
X145160498Y-134094180D01*
X145219463Y-134204494D01*
X145298815Y-134301185D01*
X145395506Y-134380537D01*
X145505820Y-134439502D01*
X145578380Y-134461513D01*
X145446525Y-134593368D01*
X145284010Y-134836589D01*
X145172068Y-135106842D01*
X145115000Y-135393740D01*
X145115000Y-135686260D01*
X145172068Y-135973158D01*
X145284010Y-136243411D01*
X145446525Y-136486632D01*
X145653368Y-136693475D01*
X145896589Y-136855990D01*
X146166842Y-136967932D01*
X146453740Y-137025000D01*
X146746260Y-137025000D01*
X147033158Y-136967932D01*
X147303411Y-136855990D01*
X147546632Y-136693475D01*
X147753475Y-136486632D01*
X147915990Y-136243411D01*
X148027932Y-135973158D01*
X148085000Y-135686260D01*
X148085000Y-135393740D01*
X148027932Y-135106842D01*
X147915990Y-134836589D01*
X147753475Y-134593368D01*
X147621620Y-134461513D01*
X147694180Y-134439502D01*
X147804494Y-134380537D01*
X147901185Y-134301185D01*
X147980537Y-134204494D01*
X148039502Y-134094180D01*
X148075812Y-133974482D01*
X148088072Y-133850000D01*
X148088072Y-132200000D01*
X149561928Y-132200000D01*
X149561928Y-133800000D01*
X149574188Y-133924482D01*
X149610498Y-134044180D01*
X149669463Y-134154494D01*
X149748815Y-134251185D01*
X149845506Y-134330537D01*
X149955820Y-134389502D01*
X150075518Y-134425812D01*
X150083961Y-134426643D01*
X149885363Y-134625241D01*
X149728320Y-134860273D01*
X149620147Y-135121426D01*
X149565000Y-135398665D01*
X149565000Y-135681335D01*
X149620147Y-135958574D01*
X149728320Y-136219727D01*
X149885363Y-136454759D01*
X150085241Y-136654637D01*
X150317759Y-136810000D01*
X150085241Y-136965363D01*
X149885363Y-137165241D01*
X149728320Y-137400273D01*
X149620147Y-137661426D01*
X149565000Y-137938665D01*
X149565000Y-138221335D01*
X149620147Y-138498574D01*
X149728320Y-138759727D01*
X149885363Y-138994759D01*
X150085241Y-139194637D01*
X150320273Y-139351680D01*
X150330865Y-139356067D01*
X150144869Y-139467615D01*
X149936481Y-139656586D01*
X149768963Y-139882580D01*
X149648754Y-140136913D01*
X149608096Y-140270961D01*
X149730085Y-140493000D01*
X150873000Y-140493000D01*
X150873000Y-140473000D01*
X151127000Y-140473000D01*
X151127000Y-140493000D01*
X152269915Y-140493000D01*
X152391904Y-140270961D01*
X152351246Y-140136913D01*
X152231037Y-139882580D01*
X152063519Y-139656586D01*
X151855131Y-139467615D01*
X151669135Y-139356067D01*
X151679727Y-139351680D01*
X151914759Y-139194637D01*
X152114637Y-138994759D01*
X152271680Y-138759727D01*
X152379853Y-138498574D01*
X152435000Y-138221335D01*
X152435000Y-137938665D01*
X152379853Y-137661426D01*
X152271680Y-137400273D01*
X152114637Y-137165241D01*
X151914759Y-136965363D01*
X151682241Y-136810000D01*
X151914759Y-136654637D01*
X152114637Y-136454759D01*
X152271680Y-136219727D01*
X152379853Y-135958574D01*
X152435000Y-135681335D01*
X152435000Y-135398665D01*
X152379853Y-135121426D01*
X152271680Y-134860273D01*
X152114637Y-134625241D01*
X151916039Y-134426643D01*
X151924482Y-134425812D01*
X152044180Y-134389502D01*
X152154494Y-134330537D01*
X152251185Y-134251185D01*
X152330537Y-134154494D01*
X152389502Y-134044180D01*
X152425812Y-133924482D01*
X152438072Y-133800000D01*
X152438072Y-132858665D01*
X157185000Y-132858665D01*
X157185000Y-133141335D01*
X157240147Y-133418574D01*
X157348320Y-133679727D01*
X157505363Y-133914759D01*
X157705241Y-134114637D01*
X157937759Y-134270000D01*
X157705241Y-134425363D01*
X157505363Y-134625241D01*
X157348320Y-134860273D01*
X157240147Y-135121426D01*
X157185000Y-135398665D01*
X157185000Y-135681335D01*
X157240147Y-135958574D01*
X157348320Y-136219727D01*
X157505363Y-136454759D01*
X157705241Y-136654637D01*
X157937759Y-136810000D01*
X157705241Y-136965363D01*
X157505363Y-137165241D01*
X157348320Y-137400273D01*
X157240147Y-137661426D01*
X157185000Y-137938665D01*
X157185000Y-138221335D01*
X157240147Y-138498574D01*
X157348320Y-138759727D01*
X157505363Y-138994759D01*
X157705241Y-139194637D01*
X157937759Y-139350000D01*
X157705241Y-139505363D01*
X157505363Y-139705241D01*
X157348320Y-139940273D01*
X157240147Y-140201426D01*
X157185000Y-140478665D01*
X157185000Y-140761335D01*
X157240147Y-141038574D01*
X157348320Y-141299727D01*
X157505363Y-141534759D01*
X157705241Y-141734637D01*
X157940273Y-141891680D01*
X158201426Y-141999853D01*
X158478665Y-142055000D01*
X158761335Y-142055000D01*
X159038574Y-141999853D01*
X159299727Y-141891680D01*
X159534759Y-141734637D01*
X159734637Y-141534759D01*
X159891680Y-141299727D01*
X159999853Y-141038574D01*
X160055000Y-140761335D01*
X160055000Y-140478665D01*
X159999853Y-140201426D01*
X159891680Y-139940273D01*
X159734637Y-139705241D01*
X159534759Y-139505363D01*
X159302241Y-139350000D01*
X159534759Y-139194637D01*
X159734637Y-138994759D01*
X159891680Y-138759727D01*
X159999853Y-138498574D01*
X160055000Y-138221335D01*
X160055000Y-137938665D01*
X159999853Y-137661426D01*
X159891680Y-137400273D01*
X159734637Y-137165241D01*
X159534759Y-136965363D01*
X159302241Y-136810000D01*
X159534759Y-136654637D01*
X159734637Y-136454759D01*
X159891680Y-136219727D01*
X159999853Y-135958574D01*
X160055000Y-135681335D01*
X160055000Y-135398665D01*
X159999853Y-135121426D01*
X159891680Y-134860273D01*
X159734637Y-134625241D01*
X159534759Y-134425363D01*
X159302241Y-134270000D01*
X159534759Y-134114637D01*
X159734637Y-133914759D01*
X159891680Y-133679727D01*
X159999853Y-133418574D01*
X160055000Y-133141335D01*
X160055000Y-132858665D01*
X159999853Y-132581426D01*
X159891680Y-132320273D01*
X159734637Y-132085241D01*
X159534759Y-131885363D01*
X159299727Y-131728320D01*
X159038574Y-131620147D01*
X158761335Y-131565000D01*
X158478665Y-131565000D01*
X158201426Y-131620147D01*
X157940273Y-131728320D01*
X157705241Y-131885363D01*
X157505363Y-132085241D01*
X157348320Y-132320273D01*
X157240147Y-132581426D01*
X157185000Y-132858665D01*
X152438072Y-132858665D01*
X152438072Y-132200000D01*
X152425812Y-132075518D01*
X152389502Y-131955820D01*
X152330537Y-131845506D01*
X152251185Y-131748815D01*
X152154494Y-131669463D01*
X152044180Y-131610498D01*
X151924482Y-131574188D01*
X151800000Y-131561928D01*
X150200000Y-131561928D01*
X150075518Y-131574188D01*
X149955820Y-131610498D01*
X149845506Y-131669463D01*
X149748815Y-131748815D01*
X149669463Y-131845506D01*
X149610498Y-131955820D01*
X149574188Y-132075518D01*
X149561928Y-132200000D01*
X148088072Y-132200000D01*
X148088072Y-132150000D01*
X148075812Y-132025518D01*
X148039502Y-131905820D01*
X147980537Y-131795506D01*
X147901185Y-131698815D01*
X147804494Y-131619463D01*
X147694180Y-131560498D01*
X147574482Y-131524188D01*
X147450000Y-131511928D01*
X145750000Y-131511928D01*
X145625518Y-131524188D01*
X145505820Y-131560498D01*
X145395506Y-131619463D01*
X145298815Y-131698815D01*
X145219463Y-131795506D01*
X145160498Y-131905820D01*
X145124188Y-132025518D01*
X145111928Y-132150000D01*
X100685000Y-132150000D01*
X100685000Y-127944364D01*
X130870000Y-127944364D01*
X130870000Y-129295635D01*
X130892572Y-129524812D01*
X130981774Y-129818874D01*
X131126631Y-130089882D01*
X131321576Y-130327424D01*
X131559117Y-130522369D01*
X131830125Y-130667226D01*
X132124187Y-130756428D01*
X132430000Y-130786548D01*
X132735812Y-130756428D01*
X133029874Y-130667226D01*
X133300882Y-130522369D01*
X133538424Y-130327424D01*
X133733369Y-130089883D01*
X133878226Y-129818875D01*
X133967428Y-129524813D01*
X133990000Y-129295636D01*
X133990000Y-128747000D01*
X135870000Y-128747000D01*
X135870000Y-129346000D01*
X135924751Y-129647901D01*
X136037348Y-129933319D01*
X136203464Y-130191286D01*
X136416715Y-130411889D01*
X136668906Y-130586650D01*
X136950345Y-130708853D01*
X137061336Y-130734812D01*
X137303000Y-130614483D01*
X137303000Y-128747000D01*
X137557000Y-128747000D01*
X137557000Y-130614483D01*
X137798664Y-130734812D01*
X137909655Y-130708853D01*
X138191094Y-130586650D01*
X138443285Y-130411889D01*
X138656536Y-130191286D01*
X138822652Y-129933319D01*
X138935249Y-129647901D01*
X138990000Y-129346000D01*
X138990000Y-128747000D01*
X137557000Y-128747000D01*
X137303000Y-128747000D01*
X135870000Y-128747000D01*
X133990000Y-128747000D01*
X133990000Y-127944364D01*
X133985040Y-127894000D01*
X135870000Y-127894000D01*
X135870000Y-128493000D01*
X137303000Y-128493000D01*
X137303000Y-126625517D01*
X137557000Y-126625517D01*
X137557000Y-128493000D01*
X138990000Y-128493000D01*
X138990000Y-127894000D01*
X138935249Y-127592099D01*
X138822652Y-127306681D01*
X138656536Y-127048714D01*
X138443285Y-126828111D01*
X138191094Y-126653350D01*
X137973031Y-126558665D01*
X141765000Y-126558665D01*
X141765000Y-126841335D01*
X141820147Y-127118574D01*
X141928320Y-127379727D01*
X142085363Y-127614759D01*
X142285241Y-127814637D01*
X142520273Y-127971680D01*
X142781426Y-128079853D01*
X143058665Y-128135000D01*
X143341335Y-128135000D01*
X143618574Y-128079853D01*
X143879727Y-127971680D01*
X144114759Y-127814637D01*
X144314637Y-127614759D01*
X144418935Y-127458665D01*
X147065000Y-127458665D01*
X147065000Y-127741335D01*
X147120147Y-128018574D01*
X147228320Y-128279727D01*
X147385363Y-128514759D01*
X147585241Y-128714637D01*
X147820273Y-128871680D01*
X148081426Y-128979853D01*
X148358665Y-129035000D01*
X148641335Y-129035000D01*
X148918574Y-128979853D01*
X149179727Y-128871680D01*
X149414759Y-128714637D01*
X149614637Y-128514759D01*
X149771680Y-128279727D01*
X149879853Y-128018574D01*
X149884999Y-127992702D01*
X154686903Y-127992702D01*
X154758486Y-128236671D01*
X155013996Y-128357571D01*
X155288184Y-128426300D01*
X155570512Y-128440217D01*
X155850130Y-128398787D01*
X156116292Y-128303603D01*
X156241514Y-128236671D01*
X156313097Y-127992702D01*
X155500000Y-127179605D01*
X154686903Y-127992702D01*
X149884999Y-127992702D01*
X149935000Y-127741335D01*
X149935000Y-127458665D01*
X149879853Y-127181426D01*
X149833911Y-127070512D01*
X154059783Y-127070512D01*
X154101213Y-127350130D01*
X154196397Y-127616292D01*
X154263329Y-127741514D01*
X154507298Y-127813097D01*
X155320395Y-127000000D01*
X155679605Y-127000000D01*
X156492702Y-127813097D01*
X156561928Y-127792785D01*
X156561928Y-127800000D01*
X156574188Y-127924482D01*
X156610498Y-128044180D01*
X156669463Y-128154494D01*
X156748815Y-128251185D01*
X156845506Y-128330537D01*
X156955820Y-128389502D01*
X157075518Y-128425812D01*
X157200000Y-128438072D01*
X158800000Y-128438072D01*
X158924482Y-128425812D01*
X159044180Y-128389502D01*
X159154494Y-128330537D01*
X159251185Y-128251185D01*
X159330537Y-128154494D01*
X159389502Y-128044180D01*
X159425812Y-127924482D01*
X159438072Y-127800000D01*
X159438072Y-126200000D01*
X159425812Y-126075518D01*
X159389502Y-125955820D01*
X159330537Y-125845506D01*
X159251185Y-125748815D01*
X159154494Y-125669463D01*
X159044180Y-125610498D01*
X158924482Y-125574188D01*
X158800000Y-125561928D01*
X157200000Y-125561928D01*
X157075518Y-125574188D01*
X156955820Y-125610498D01*
X156845506Y-125669463D01*
X156748815Y-125748815D01*
X156669463Y-125845506D01*
X156610498Y-125955820D01*
X156574188Y-126075518D01*
X156561928Y-126200000D01*
X156561928Y-126207215D01*
X156492702Y-126186903D01*
X155679605Y-127000000D01*
X155320395Y-127000000D01*
X154507298Y-126186903D01*
X154263329Y-126258486D01*
X154142429Y-126513996D01*
X154073700Y-126788184D01*
X154059783Y-127070512D01*
X149833911Y-127070512D01*
X149771680Y-126920273D01*
X149614637Y-126685241D01*
X149414759Y-126485363D01*
X149179727Y-126328320D01*
X148918574Y-126220147D01*
X148641335Y-126165000D01*
X148358665Y-126165000D01*
X148081426Y-126220147D01*
X147820273Y-126328320D01*
X147585241Y-126485363D01*
X147385363Y-126685241D01*
X147228320Y-126920273D01*
X147120147Y-127181426D01*
X147065000Y-127458665D01*
X144418935Y-127458665D01*
X144471680Y-127379727D01*
X144579853Y-127118574D01*
X144635000Y-126841335D01*
X144635000Y-126558665D01*
X144579853Y-126281426D01*
X144471680Y-126020273D01*
X144463011Y-126007298D01*
X154686903Y-126007298D01*
X155500000Y-126820395D01*
X156313097Y-126007298D01*
X156241514Y-125763329D01*
X155986004Y-125642429D01*
X155711816Y-125573700D01*
X155429488Y-125559783D01*
X155149870Y-125601213D01*
X154883708Y-125696397D01*
X154758486Y-125763329D01*
X154686903Y-126007298D01*
X144463011Y-126007298D01*
X144314637Y-125785241D01*
X144114759Y-125585363D01*
X143879727Y-125428320D01*
X143618574Y-125320147D01*
X143341335Y-125265000D01*
X143058665Y-125265000D01*
X142781426Y-125320147D01*
X142520273Y-125428320D01*
X142285241Y-125585363D01*
X142085363Y-125785241D01*
X141928320Y-126020273D01*
X141820147Y-126281426D01*
X141765000Y-126558665D01*
X137973031Y-126558665D01*
X137909655Y-126531147D01*
X137798664Y-126505188D01*
X137557000Y-126625517D01*
X137303000Y-126625517D01*
X137061336Y-126505188D01*
X136950345Y-126531147D01*
X136668906Y-126653350D01*
X136416715Y-126828111D01*
X136203464Y-127048714D01*
X136037348Y-127306681D01*
X135924751Y-127592099D01*
X135870000Y-127894000D01*
X133985040Y-127894000D01*
X133967428Y-127715187D01*
X133878226Y-127421125D01*
X133733369Y-127150117D01*
X133538424Y-126912576D01*
X133300883Y-126717631D01*
X133029875Y-126572774D01*
X132735813Y-126483572D01*
X132430000Y-126453452D01*
X132124188Y-126483572D01*
X131830126Y-126572774D01*
X131559118Y-126717631D01*
X131321577Y-126912576D01*
X131126632Y-127150117D01*
X130981774Y-127421125D01*
X130892572Y-127715187D01*
X130870000Y-127944364D01*
X100685000Y-127944364D01*
X100685000Y-126758400D01*
X112006205Y-126758400D01*
X112062630Y-126989621D01*
X112296808Y-127098017D01*
X112547633Y-127158645D01*
X112805465Y-127169174D01*
X113060398Y-127129200D01*
X113302633Y-127040259D01*
X113397370Y-126989621D01*
X113453795Y-126758400D01*
X112730000Y-126034605D01*
X112006205Y-126758400D01*
X100685000Y-126758400D01*
X100685000Y-125930465D01*
X111415826Y-125930465D01*
X111455800Y-126185398D01*
X111544741Y-126427633D01*
X111595379Y-126522370D01*
X111826600Y-126578795D01*
X112550395Y-125855000D01*
X112909605Y-125855000D01*
X113633400Y-126578795D01*
X113864621Y-126522370D01*
X113973017Y-126288192D01*
X114033645Y-126037367D01*
X114044174Y-125779535D01*
X114035776Y-125725976D01*
X120460000Y-125725976D01*
X120460000Y-125984024D01*
X120510342Y-126237113D01*
X120609093Y-126475518D01*
X120752456Y-126690077D01*
X120934923Y-126872544D01*
X121149482Y-127015907D01*
X121387887Y-127114658D01*
X121640976Y-127165000D01*
X121899024Y-127165000D01*
X122152113Y-127114658D01*
X122390518Y-127015907D01*
X122605077Y-126872544D01*
X122787544Y-126690077D01*
X122930907Y-126475518D01*
X123029658Y-126237113D01*
X123080000Y-125984024D01*
X123080000Y-125725976D01*
X123029658Y-125472887D01*
X122930907Y-125234482D01*
X122787544Y-125019923D01*
X122605077Y-124837456D01*
X122390518Y-124694093D01*
X122152113Y-124595342D01*
X121899024Y-124545000D01*
X121640976Y-124545000D01*
X121387887Y-124595342D01*
X121149482Y-124694093D01*
X120934923Y-124837456D01*
X120752456Y-125019923D01*
X120609093Y-125234482D01*
X120510342Y-125472887D01*
X120460000Y-125725976D01*
X114035776Y-125725976D01*
X114004200Y-125524602D01*
X113915259Y-125282367D01*
X113864621Y-125187630D01*
X113633400Y-125131205D01*
X112909605Y-125855000D01*
X112550395Y-125855000D01*
X111826600Y-125131205D01*
X111595379Y-125187630D01*
X111486983Y-125421808D01*
X111426355Y-125672633D01*
X111415826Y-125930465D01*
X100685000Y-125930465D01*
X100685000Y-124951600D01*
X112006205Y-124951600D01*
X112730000Y-125675395D01*
X113453795Y-124951600D01*
X113397370Y-124720379D01*
X113163192Y-124611983D01*
X112912367Y-124551355D01*
X112654535Y-124540826D01*
X112399602Y-124580800D01*
X112157367Y-124669741D01*
X112062630Y-124720379D01*
X112006205Y-124951600D01*
X100685000Y-124951600D01*
X100685000Y-119492702D01*
X120786903Y-119492702D01*
X120858486Y-119736671D01*
X121113996Y-119857571D01*
X121388184Y-119926300D01*
X121670512Y-119940217D01*
X121950130Y-119898787D01*
X122216292Y-119803603D01*
X122341514Y-119736671D01*
X122413097Y-119492702D01*
X121600000Y-118679605D01*
X120786903Y-119492702D01*
X100685000Y-119492702D01*
X100685000Y-118570512D01*
X120159783Y-118570512D01*
X120201213Y-118850130D01*
X120296397Y-119116292D01*
X120363329Y-119241514D01*
X120607298Y-119313097D01*
X121420395Y-118500000D01*
X121779605Y-118500000D01*
X122592702Y-119313097D01*
X122836671Y-119241514D01*
X122957571Y-118986004D01*
X123026300Y-118711816D01*
X123040217Y-118429488D01*
X122998787Y-118149870D01*
X122903603Y-117883708D01*
X122836671Y-117758486D01*
X122637340Y-117700000D01*
X125161928Y-117700000D01*
X125161928Y-119300000D01*
X125174188Y-119424482D01*
X125210498Y-119544180D01*
X125269463Y-119654494D01*
X125348815Y-119751185D01*
X125445506Y-119830537D01*
X125555820Y-119889502D01*
X125675518Y-119925812D01*
X125800000Y-119938072D01*
X127400000Y-119938072D01*
X127524482Y-119925812D01*
X127644180Y-119889502D01*
X127754494Y-119830537D01*
X127851185Y-119751185D01*
X127930537Y-119654494D01*
X127989502Y-119544180D01*
X128025812Y-119424482D01*
X128038072Y-119300000D01*
X128038072Y-117700000D01*
X128025812Y-117575518D01*
X127989502Y-117455820D01*
X127930537Y-117345506D01*
X127851185Y-117248815D01*
X127754494Y-117169463D01*
X127644180Y-117110498D01*
X127524482Y-117074188D01*
X127400000Y-117061928D01*
X125800000Y-117061928D01*
X125675518Y-117074188D01*
X125555820Y-117110498D01*
X125445506Y-117169463D01*
X125348815Y-117248815D01*
X125269463Y-117345506D01*
X125210498Y-117455820D01*
X125174188Y-117575518D01*
X125161928Y-117700000D01*
X122637340Y-117700000D01*
X122592702Y-117686903D01*
X121779605Y-118500000D01*
X121420395Y-118500000D01*
X120607298Y-117686903D01*
X120363329Y-117758486D01*
X120242429Y-118013996D01*
X120173700Y-118288184D01*
X120159783Y-118570512D01*
X100685000Y-118570512D01*
X100685000Y-117507298D01*
X120786903Y-117507298D01*
X121600000Y-118320395D01*
X122413097Y-117507298D01*
X122341514Y-117263329D01*
X122086004Y-117142429D01*
X121811816Y-117073700D01*
X121529488Y-117059783D01*
X121249870Y-117101213D01*
X120983708Y-117196397D01*
X120858486Y-117263329D01*
X120786903Y-117507298D01*
X100685000Y-117507298D01*
X100685000Y-113956891D01*
X130478519Y-113956891D01*
X130575843Y-114231252D01*
X130724822Y-114481355D01*
X130919731Y-114697588D01*
X131153080Y-114871641D01*
X131415901Y-114996825D01*
X131563110Y-115041476D01*
X131793000Y-114920155D01*
X131793000Y-113727000D01*
X130599186Y-113727000D01*
X130478519Y-113956891D01*
X100685000Y-113956891D01*
X100685000Y-113243109D01*
X130478519Y-113243109D01*
X130599186Y-113473000D01*
X131793000Y-113473000D01*
X131793000Y-112279845D01*
X132047000Y-112279845D01*
X132047000Y-113473000D01*
X132067000Y-113473000D01*
X132067000Y-113727000D01*
X132047000Y-113727000D01*
X132047000Y-114920155D01*
X132276890Y-115041476D01*
X132424099Y-114996825D01*
X132686920Y-114871641D01*
X132920269Y-114697588D01*
X133115178Y-114481355D01*
X133184805Y-114364466D01*
X133306525Y-114546632D01*
X133513368Y-114753475D01*
X133756589Y-114915990D01*
X134026842Y-115027932D01*
X134313740Y-115085000D01*
X134606260Y-115085000D01*
X134893158Y-115027932D01*
X135163411Y-114915990D01*
X135406632Y-114753475D01*
X135538487Y-114621620D01*
X135560498Y-114694180D01*
X135619463Y-114804494D01*
X135698815Y-114901185D01*
X135795506Y-114980537D01*
X135905820Y-115039502D01*
X136025518Y-115075812D01*
X136150000Y-115088072D01*
X137850000Y-115088072D01*
X137974482Y-115075812D01*
X138094180Y-115039502D01*
X138204494Y-114980537D01*
X138301185Y-114901185D01*
X138380537Y-114804494D01*
X138439502Y-114694180D01*
X138475812Y-114574482D01*
X138488072Y-114450000D01*
X138488072Y-113858665D01*
X141765000Y-113858665D01*
X141765000Y-114141335D01*
X141820147Y-114418574D01*
X141928320Y-114679727D01*
X142085363Y-114914759D01*
X142285241Y-115114637D01*
X142520273Y-115271680D01*
X142781426Y-115379853D01*
X143058665Y-115435000D01*
X143341335Y-115435000D01*
X143618574Y-115379853D01*
X143879727Y-115271680D01*
X143913610Y-115249040D01*
X147108091Y-115249040D01*
X147202930Y-115513881D01*
X147347615Y-115755131D01*
X147536586Y-115963519D01*
X147762580Y-116131037D01*
X148016913Y-116251246D01*
X148150961Y-116291904D01*
X148373000Y-116169915D01*
X148373000Y-115027000D01*
X148627000Y-115027000D01*
X148627000Y-116169915D01*
X148849039Y-116291904D01*
X148983087Y-116251246D01*
X149237420Y-116131037D01*
X149463414Y-115963519D01*
X149652385Y-115755131D01*
X149797070Y-115513881D01*
X149891909Y-115249040D01*
X149770624Y-115027000D01*
X148627000Y-115027000D01*
X148373000Y-115027000D01*
X147229376Y-115027000D01*
X147108091Y-115249040D01*
X143913610Y-115249040D01*
X144114759Y-115114637D01*
X144314637Y-114914759D01*
X144471680Y-114679727D01*
X144525016Y-114550960D01*
X147108091Y-114550960D01*
X147229376Y-114773000D01*
X148373000Y-114773000D01*
X148373000Y-113630085D01*
X148627000Y-113630085D01*
X148627000Y-114773000D01*
X149770624Y-114773000D01*
X149891909Y-114550960D01*
X149797070Y-114286119D01*
X149652385Y-114044869D01*
X149463414Y-113836481D01*
X149237420Y-113668963D01*
X148983087Y-113548754D01*
X148849039Y-113508096D01*
X148627000Y-113630085D01*
X148373000Y-113630085D01*
X148150961Y-113508096D01*
X148016913Y-113548754D01*
X147762580Y-113668963D01*
X147536586Y-113836481D01*
X147347615Y-114044869D01*
X147202930Y-114286119D01*
X147108091Y-114550960D01*
X144525016Y-114550960D01*
X144579853Y-114418574D01*
X144635000Y-114141335D01*
X144635000Y-113858665D01*
X144579853Y-113581426D01*
X144471680Y-113320273D01*
X144314637Y-113085241D01*
X144114759Y-112885363D01*
X143879727Y-112728320D01*
X143618574Y-112620147D01*
X143341335Y-112565000D01*
X143058665Y-112565000D01*
X142781426Y-112620147D01*
X142520273Y-112728320D01*
X142285241Y-112885363D01*
X142085363Y-113085241D01*
X141928320Y-113320273D01*
X141820147Y-113581426D01*
X141765000Y-113858665D01*
X138488072Y-113858665D01*
X138488072Y-112750000D01*
X138475812Y-112625518D01*
X138439502Y-112505820D01*
X138380537Y-112395506D01*
X138301185Y-112298815D01*
X138204494Y-112219463D01*
X138094180Y-112160498D01*
X137974482Y-112124188D01*
X137850000Y-112111928D01*
X136150000Y-112111928D01*
X136025518Y-112124188D01*
X135905820Y-112160498D01*
X135795506Y-112219463D01*
X135698815Y-112298815D01*
X135619463Y-112395506D01*
X135560498Y-112505820D01*
X135538487Y-112578380D01*
X135406632Y-112446525D01*
X135163411Y-112284010D01*
X134893158Y-112172068D01*
X134606260Y-112115000D01*
X134313740Y-112115000D01*
X134026842Y-112172068D01*
X133756589Y-112284010D01*
X133513368Y-112446525D01*
X133306525Y-112653368D01*
X133184805Y-112835534D01*
X133115178Y-112718645D01*
X132920269Y-112502412D01*
X132686920Y-112328359D01*
X132424099Y-112203175D01*
X132276890Y-112158524D01*
X132047000Y-112279845D01*
X131793000Y-112279845D01*
X131563110Y-112158524D01*
X131415901Y-112203175D01*
X131153080Y-112328359D01*
X130919731Y-112502412D01*
X130724822Y-112718645D01*
X130575843Y-112968748D01*
X130478519Y-113243109D01*
X100685000Y-113243109D01*
X100685000Y-110127000D01*
X110000000Y-110127000D01*
X110024776Y-110124560D01*
X110048601Y-110117333D01*
X110070557Y-110105597D01*
X110089803Y-110089803D01*
X110105597Y-110070557D01*
X110117333Y-110048601D01*
X110124560Y-110024776D01*
X110127000Y-110000000D01*
X110127000Y-100685000D01*
X159873000Y-100685000D01*
X159873000Y-110000000D01*
M02*
