G04 #@! TF.GenerationSoftware,KiCad,Pcbnew,(5.1.5)-3*
G04 #@! TF.CreationDate,2020-05-09T23:00:35+03:00*
G04 #@! TF.ProjectId,iceCube,69636543-7562-4652-9e6b-696361645f70,rev?*
G04 #@! TF.SameCoordinates,Original*
G04 #@! TF.FileFunction,Legend,Bot*
G04 #@! TF.FilePolarity,Positive*
%FSLAX46Y46*%
G04 Gerber Fmt 4.6, Leading zero omitted, Abs format (unit mm)*
G04 Created by KiCad (PCBNEW (5.1.5)-3) date 2020-05-09 23:00:35*
%MOMM*%
%LPD*%
G04 APERTURE LIST*
%ADD10C,0.120000*%
%ADD11C,0.150000*%
G04 APERTURE END LIST*
D10*
X161500000Y-135000000D02*
G75*
G03X161500000Y-135000000I-26500000J0D01*
G01*
X168500000Y-135000000D02*
G75*
G03X168500000Y-135000000I-33500000J0D01*
G01*
X147930000Y-136870000D02*
X145270000Y-136870000D01*
X147930000Y-134270000D02*
X147930000Y-136870000D01*
X145270000Y-134270000D02*
X145270000Y-136870000D01*
X147930000Y-134270000D02*
X145270000Y-134270000D01*
X147930000Y-133000000D02*
X147930000Y-131670000D01*
X147930000Y-131670000D02*
X146600000Y-131670000D01*
X128780000Y-128720000D02*
X128780000Y-141020000D01*
X133360000Y-141020000D02*
X136500000Y-141020000D01*
X141080000Y-141020000D02*
X141080000Y-128720000D01*
X131500000Y-128720000D02*
X128780000Y-128720000D01*
X139549050Y-134970000D02*
G75*
G03X139549050Y-134970000I-4579050J0D01*
G01*
X141080000Y-128720000D02*
X138360000Y-128720000D01*
X136500000Y-128720000D02*
X133360000Y-128720000D01*
X138360000Y-141020000D02*
X141080000Y-141020000D01*
X128780000Y-141020000D02*
X131500000Y-141020000D01*
D11*
X144402380Y-131859047D02*
X143402380Y-131859047D01*
X143402380Y-132240000D01*
X143450000Y-132335238D01*
X143497619Y-132382857D01*
X143592857Y-132430476D01*
X143735714Y-132430476D01*
X143830952Y-132382857D01*
X143878571Y-132335238D01*
X143926190Y-132240000D01*
X143926190Y-131859047D01*
X144402380Y-132859047D02*
X143402380Y-132859047D01*
X144402380Y-133287619D02*
X143878571Y-133287619D01*
X143783333Y-133240000D01*
X143735714Y-133144761D01*
X143735714Y-133001904D01*
X143783333Y-132906666D01*
X143830952Y-132859047D01*
X144402380Y-133906666D02*
X144354761Y-133811428D01*
X144307142Y-133763809D01*
X144211904Y-133716190D01*
X143926190Y-133716190D01*
X143830952Y-133763809D01*
X143783333Y-133811428D01*
X143735714Y-133906666D01*
X143735714Y-134049523D01*
X143783333Y-134144761D01*
X143830952Y-134192380D01*
X143926190Y-134240000D01*
X144211904Y-134240000D01*
X144307142Y-134192380D01*
X144354761Y-134144761D01*
X144402380Y-134049523D01*
X144402380Y-133906666D01*
X143735714Y-134525714D02*
X143735714Y-134906666D01*
X143402380Y-134668571D02*
X144259523Y-134668571D01*
X144354761Y-134716190D01*
X144402380Y-134811428D01*
X144402380Y-134906666D01*
X144402380Y-135382857D02*
X144354761Y-135287619D01*
X144307142Y-135240000D01*
X144211904Y-135192380D01*
X143926190Y-135192380D01*
X143830952Y-135240000D01*
X143783333Y-135287619D01*
X143735714Y-135382857D01*
X143735714Y-135525714D01*
X143783333Y-135620952D01*
X143830952Y-135668571D01*
X143926190Y-135716190D01*
X144211904Y-135716190D01*
X144307142Y-135668571D01*
X144354761Y-135620952D01*
X144402380Y-135525714D01*
X144402380Y-135382857D01*
X144402380Y-136668571D02*
X144402380Y-136097142D01*
X144402380Y-136382857D02*
X143402380Y-136382857D01*
X143545238Y-136287619D01*
X143640476Y-136192380D01*
X143688095Y-136097142D01*
X128174761Y-133366666D02*
X128222380Y-133509523D01*
X128222380Y-133747619D01*
X128174761Y-133842857D01*
X128127142Y-133890476D01*
X128031904Y-133938095D01*
X127936666Y-133938095D01*
X127841428Y-133890476D01*
X127793809Y-133842857D01*
X127746190Y-133747619D01*
X127698571Y-133557142D01*
X127650952Y-133461904D01*
X127603333Y-133414285D01*
X127508095Y-133366666D01*
X127412857Y-133366666D01*
X127317619Y-133414285D01*
X127270000Y-133461904D01*
X127222380Y-133557142D01*
X127222380Y-133795238D01*
X127270000Y-133938095D01*
X127222380Y-134271428D02*
X128222380Y-134509523D01*
X127508095Y-134700000D01*
X128222380Y-134890476D01*
X127222380Y-135128571D01*
X128222380Y-136033333D02*
X128222380Y-135461904D01*
X128222380Y-135747619D02*
X127222380Y-135747619D01*
X127365238Y-135652380D01*
X127460476Y-135557142D01*
X127508095Y-135461904D01*
M02*
