M48
; DRILL file {KiCad (5.1.5)-3} date 2020-05-09 23:00:38
; FORMAT={-:-/ absolute / inch / decimal}
; #@! TF.CreationDate,2020-05-09T23:00:38+03:00
; #@! TF.GenerationSoftware,Kicad,Pcbnew,(5.1.5)-3
; #@! TF.FileFunction,Plated,1,2,PTH
FMAT,2
INCH
T1C0.0315
T2C0.0394
T3C0.0512
%
G90
G05
T1
X5.8465Y-4.5236
X5.8465Y-5.0236
X6.122Y-5.0
X6.2205Y-5.0
X4.4382Y-4.9549
X4.4382Y-5.549
X4.7941Y-4.9549
X4.7941Y-5.549
X4.748Y-5.813
X4.748Y-5.913
X4.748Y-6.013
X4.748Y-6.113
X4.748Y-6.213
X4.748Y-6.313
X6.1102Y-5.913
X6.1102Y-6.013
X6.1102Y-6.113
X6.1102Y-6.213
X5.9449Y-5.2362
X5.9449Y-5.3362
X5.9449Y-5.4362
X5.9449Y-5.5362
X6.2449Y-5.2362
X6.2449Y-5.3362
X6.2449Y-5.4362
X6.2449Y-5.5362
X5.6378Y-4.4882
X5.6378Y-4.9882
X4.2055Y-6.2118
X4.5591Y-5.8583
X4.7874Y-4.6654
X4.9843Y-4.6654
T2
X5.1937Y-4.4724
X5.2937Y-4.4724
X5.3937Y-4.4724
X5.7717Y-5.2362
X5.7717Y-5.3362
X4.0472Y-6.0181
X4.0472Y-6.1181
T3
X5.2138Y-5.0638
X5.2138Y-5.5559
X5.4106Y-5.0638
X5.4106Y-5.5559
T0
M30
