G04 #@! TF.GenerationSoftware,KiCad,Pcbnew,(5.1.5)-3*
G04 #@! TF.CreationDate,2020-05-09T23:00:35+03:00*
G04 #@! TF.ProjectId,iceCube,69636543-7562-4652-9e6b-696361645f70,rev?*
G04 #@! TF.SameCoordinates,Original*
G04 #@! TF.FileFunction,Copper,L1,Top*
G04 #@! TF.FilePolarity,Positive*
%FSLAX46Y46*%
G04 Gerber Fmt 4.6, Leading zero omitted, Abs format (unit mm)*
G04 Created by KiCad (PCBNEW (5.1.5)-3) date 2020-05-09 23:00:35*
%MOMM*%
%LPD*%
G04 APERTURE LIST*
%ADD10O,2.000000X1.200000*%
%ADD11C,1.350000*%
%ADD12R,1.600000X1.600000*%
%ADD13C,1.600000*%
%ADD14O,1.600000X1.600000*%
%ADD15C,1.600000*%
%ADD16O,1.700000X1.700000*%
%ADD17R,1.700000X1.700000*%
%ADD18O,1.850000X3.048000*%
%ADD19C,0.700000*%
%ADD20C,0.400000*%
%ADD21C,0.254000*%
G04 APERTURE END LIST*
D10*
X120600000Y-160350000D03*
X120600000Y-157810000D03*
X155200000Y-157810000D03*
X120600000Y-155270000D03*
X155200000Y-155270000D03*
X120600000Y-152730000D03*
X155200000Y-152730000D03*
X120600000Y-150190000D03*
X155200000Y-150190000D03*
X120600000Y-147650000D03*
D11*
X112730000Y-140945000D03*
X121770000Y-140945000D03*
X112730000Y-125855000D03*
X121770000Y-125855000D03*
D12*
X126600000Y-118500000D03*
D13*
X121600000Y-118500000D03*
X143200000Y-114000000D03*
D14*
X143200000Y-126700000D03*
D12*
X151000000Y-133000000D03*
D14*
X158620000Y-140620000D03*
X151000000Y-135540000D03*
X158620000Y-138080000D03*
X151000000Y-138080000D03*
X158620000Y-135540000D03*
X151000000Y-140620000D03*
X158620000Y-133000000D03*
D15*
X106819744Y-157780256D02*
X106819744Y-157780256D01*
D13*
X115800000Y-148800000D03*
D16*
X102800000Y-152860000D03*
D17*
X102800000Y-155400000D03*
X137000000Y-113600000D03*
D16*
X134460000Y-113600000D03*
X131920000Y-113600000D03*
D13*
X148500000Y-127600000D03*
D14*
X148500000Y-114900000D03*
D17*
X146600000Y-133000000D03*
D16*
X146600000Y-135540000D03*
D18*
X132430000Y-141120000D03*
X137430000Y-141120000D03*
X132430000Y-128620000D03*
X137430000Y-128620000D03*
D12*
X158000000Y-127000000D03*
D13*
X155500000Y-127000000D03*
D19*
X104439488Y-155400000D02*
X106819744Y-157780256D01*
X102800000Y-155400000D02*
X104439488Y-155400000D01*
X115800000Y-146915000D02*
X117715000Y-145000000D01*
X115800000Y-148800000D02*
X115800000Y-146915000D01*
X117715000Y-145000000D02*
X120000000Y-145000000D01*
X121770000Y-143230000D02*
X121770000Y-140945000D01*
X120000000Y-145000000D02*
X121770000Y-143230000D01*
D20*
X156800000Y-155270000D02*
X155400000Y-155270000D01*
X162000000Y-150070000D02*
X156800000Y-155270000D01*
X162000000Y-144000000D02*
X162000000Y-150070000D01*
X158620000Y-140620000D02*
X162000000Y-144000000D01*
X155400000Y-155270000D02*
X127270000Y-155270000D01*
X124730000Y-152730000D02*
X120600000Y-152730000D01*
X127270000Y-155270000D02*
X124730000Y-152730000D01*
X159419999Y-136339999D02*
X159419999Y-136419999D01*
X158620000Y-135540000D02*
X159419999Y-136339999D01*
X159419999Y-136419999D02*
X164000000Y-141000000D01*
X156800000Y-157810000D02*
X155400000Y-157810000D01*
X164000000Y-150610000D02*
X156800000Y-157810000D01*
X164000000Y-141000000D02*
X164000000Y-150610000D01*
X121000000Y-155270000D02*
X120600000Y-155270000D01*
X155400000Y-157810000D02*
X126810000Y-157810000D01*
X124270000Y-155270000D02*
X120600000Y-155270000D01*
X126810000Y-157810000D02*
X124270000Y-155270000D01*
X158000000Y-132380000D02*
X158620000Y-133000000D01*
X158000000Y-127000000D02*
X158000000Y-132380000D01*
X121000000Y-150190000D02*
X120600000Y-150190000D01*
X154000000Y-152730000D02*
X151460000Y-150190000D01*
X122000000Y-150190000D02*
X120600000Y-150190000D01*
X155400000Y-152730000D02*
X154000000Y-152730000D01*
X147200000Y-121500000D02*
X153700000Y-121500000D01*
X158000000Y-125800000D02*
X158000000Y-127000000D01*
X153700000Y-121500000D02*
X158000000Y-125800000D01*
X146600000Y-122100000D02*
X147200000Y-121500000D01*
X146600000Y-133000000D02*
X146600000Y-122100000D01*
X135309999Y-114690001D02*
X142719998Y-122100000D01*
X142719998Y-122100000D02*
X146600000Y-122100000D01*
X135309999Y-114449999D02*
X135309999Y-114690001D01*
X134460000Y-113600000D02*
X135309999Y-114449999D01*
X129560000Y-118500000D02*
X134460000Y-113600000D01*
X126600000Y-118500000D02*
X129560000Y-118500000D01*
D19*
X126600000Y-121025000D02*
X126600000Y-118500000D01*
X121770000Y-125855000D02*
X126600000Y-121025000D01*
D20*
X151460000Y-150190000D02*
X126800000Y-150200000D01*
X126800000Y-150200000D02*
X122000000Y-150190000D01*
X126800000Y-121225000D02*
X126600000Y-121025000D01*
X126800000Y-150200000D02*
X126800000Y-121225000D01*
X132440000Y-143440000D02*
X132440000Y-141320000D01*
X134000000Y-145000000D02*
X132440000Y-143440000D01*
X158620000Y-138080000D02*
X151700000Y-145000000D01*
X151700000Y-145000000D02*
X134000000Y-145000000D01*
X132440000Y-130744000D02*
X132440000Y-141320000D01*
X132440000Y-128820000D02*
X132440000Y-130744000D01*
X142800000Y-113600000D02*
X143200000Y-114000000D01*
X137000000Y-113600000D02*
X142800000Y-113600000D01*
X147802081Y-135540000D02*
X151000000Y-135540000D01*
X147802081Y-135540000D02*
X146600000Y-135540000D01*
X148500000Y-134842081D02*
X147802081Y-135540000D01*
X148500000Y-127600000D02*
X148500000Y-134842081D01*
X150980000Y-138100000D02*
X151000000Y-138080000D01*
X144680000Y-138080000D02*
X151000000Y-138080000D01*
X143200000Y-126700000D02*
X143200000Y-136600000D01*
X143200000Y-136600000D02*
X144680000Y-138080000D01*
D21*
G36*
X159873000Y-110000000D02*
G01*
X159875440Y-110024776D01*
X159882667Y-110048601D01*
X159894403Y-110070557D01*
X159910197Y-110089803D01*
X159929443Y-110105597D01*
X159951399Y-110117333D01*
X159975224Y-110124560D01*
X160000000Y-110127000D01*
X169315000Y-110127000D01*
X169315001Y-159873000D01*
X160000000Y-159873000D01*
X159975224Y-159875440D01*
X159951399Y-159882667D01*
X159929443Y-159894403D01*
X159910197Y-159910197D01*
X159894403Y-159929443D01*
X159882667Y-159951399D01*
X159875440Y-159975224D01*
X159873000Y-160000000D01*
X159873000Y-169315000D01*
X110127000Y-169315000D01*
X110127000Y-160350000D01*
X118959025Y-160350000D01*
X118982870Y-160592102D01*
X119053489Y-160824901D01*
X119168167Y-161039449D01*
X119322498Y-161227502D01*
X119510551Y-161381833D01*
X119725099Y-161496511D01*
X119957898Y-161567130D01*
X120139335Y-161585000D01*
X121060665Y-161585000D01*
X121242102Y-161567130D01*
X121474901Y-161496511D01*
X121689449Y-161381833D01*
X121877502Y-161227502D01*
X122031833Y-161039449D01*
X122146511Y-160824901D01*
X122217130Y-160592102D01*
X122240975Y-160350000D01*
X122217130Y-160107898D01*
X122146511Y-159875099D01*
X122031833Y-159660551D01*
X121877502Y-159472498D01*
X121689449Y-159318167D01*
X121474901Y-159203489D01*
X121242102Y-159132870D01*
X121060665Y-159115000D01*
X120139335Y-159115000D01*
X119957898Y-159132870D01*
X119725099Y-159203489D01*
X119510551Y-159318167D01*
X119322498Y-159472498D01*
X119168167Y-159660551D01*
X119053489Y-159875099D01*
X118982870Y-160107898D01*
X118959025Y-160350000D01*
X110127000Y-160350000D01*
X110127000Y-160000000D01*
X110124560Y-159975224D01*
X110117333Y-159951399D01*
X110105597Y-159929443D01*
X110089803Y-159910197D01*
X110070557Y-159894403D01*
X110048601Y-159882667D01*
X110024776Y-159875440D01*
X110000000Y-159873000D01*
X100685000Y-159873000D01*
X100685000Y-154550000D01*
X101311928Y-154550000D01*
X101311928Y-156250000D01*
X101324188Y-156374482D01*
X101360498Y-156494180D01*
X101419463Y-156604494D01*
X101498815Y-156701185D01*
X101595506Y-156780537D01*
X101705820Y-156839502D01*
X101825518Y-156875812D01*
X101950000Y-156888072D01*
X103650000Y-156888072D01*
X103774482Y-156875812D01*
X103894180Y-156839502D01*
X104004494Y-156780537D01*
X104101185Y-156701185D01*
X104180537Y-156604494D01*
X104205075Y-156558587D01*
X105384744Y-157738256D01*
X105384744Y-157921591D01*
X105439891Y-158198830D01*
X105548064Y-158459983D01*
X105705107Y-158695015D01*
X105904985Y-158894893D01*
X106140017Y-159051936D01*
X106401170Y-159160109D01*
X106678409Y-159215256D01*
X106961079Y-159215256D01*
X107238318Y-159160109D01*
X107499471Y-159051936D01*
X107734503Y-158894893D01*
X107934381Y-158695015D01*
X108091424Y-158459983D01*
X108199597Y-158198830D01*
X108254744Y-157921591D01*
X108254744Y-157810000D01*
X118959025Y-157810000D01*
X118982870Y-158052102D01*
X119053489Y-158284901D01*
X119168167Y-158499449D01*
X119322498Y-158687502D01*
X119510551Y-158841833D01*
X119725099Y-158956511D01*
X119957898Y-159027130D01*
X120139335Y-159045000D01*
X121060665Y-159045000D01*
X121242102Y-159027130D01*
X121474901Y-158956511D01*
X121689449Y-158841833D01*
X121877502Y-158687502D01*
X122031833Y-158499449D01*
X122146511Y-158284901D01*
X122217130Y-158052102D01*
X122240975Y-157810000D01*
X122217130Y-157567898D01*
X122146511Y-157335099D01*
X122031833Y-157120551D01*
X121877502Y-156932498D01*
X121689449Y-156778167D01*
X121474901Y-156663489D01*
X121242102Y-156592870D01*
X121060665Y-156575000D01*
X120139335Y-156575000D01*
X119957898Y-156592870D01*
X119725099Y-156663489D01*
X119510551Y-156778167D01*
X119322498Y-156932498D01*
X119168167Y-157120551D01*
X119053489Y-157335099D01*
X118982870Y-157567898D01*
X118959025Y-157810000D01*
X108254744Y-157810000D01*
X108254744Y-157638921D01*
X108199597Y-157361682D01*
X108091424Y-157100529D01*
X107934381Y-156865497D01*
X107734503Y-156665619D01*
X107499471Y-156508576D01*
X107238318Y-156400403D01*
X106961079Y-156345256D01*
X106777744Y-156345256D01*
X105170204Y-154737716D01*
X105139358Y-154700130D01*
X104989372Y-154577040D01*
X104818255Y-154485576D01*
X104632582Y-154429253D01*
X104487868Y-154415000D01*
X104439488Y-154410235D01*
X104391108Y-154415000D01*
X104272621Y-154415000D01*
X104239502Y-154305820D01*
X104180537Y-154195506D01*
X104101185Y-154098815D01*
X104004494Y-154019463D01*
X103894180Y-153960498D01*
X103821620Y-153938487D01*
X103953475Y-153806632D01*
X104115990Y-153563411D01*
X104227932Y-153293158D01*
X104285000Y-153006260D01*
X104285000Y-152730000D01*
X118959025Y-152730000D01*
X118982870Y-152972102D01*
X119053489Y-153204901D01*
X119168167Y-153419449D01*
X119322498Y-153607502D01*
X119510551Y-153761833D01*
X119725099Y-153876511D01*
X119957898Y-153947130D01*
X120139335Y-153965000D01*
X121060665Y-153965000D01*
X121242102Y-153947130D01*
X121474901Y-153876511D01*
X121689449Y-153761833D01*
X121877502Y-153607502D01*
X121912382Y-153565000D01*
X124384133Y-153565000D01*
X126650559Y-155831427D01*
X126676709Y-155863291D01*
X126803854Y-155967636D01*
X126948913Y-156045172D01*
X127106311Y-156092918D01*
X127228981Y-156105000D01*
X127228991Y-156105000D01*
X127269999Y-156109039D01*
X127311007Y-156105000D01*
X153887618Y-156105000D01*
X153922498Y-156147502D01*
X154110551Y-156301833D01*
X154325099Y-156416511D01*
X154557898Y-156487130D01*
X154739335Y-156505000D01*
X155660665Y-156505000D01*
X155842102Y-156487130D01*
X156074901Y-156416511D01*
X156289449Y-156301833D01*
X156477502Y-156147502D01*
X156512382Y-156105000D01*
X156758982Y-156105000D01*
X156800000Y-156109040D01*
X156841018Y-156105000D01*
X156841019Y-156105000D01*
X156963689Y-156092918D01*
X157121087Y-156045172D01*
X157266146Y-155967636D01*
X157393291Y-155863291D01*
X157419446Y-155831421D01*
X162561432Y-150689437D01*
X162593291Y-150663291D01*
X162697636Y-150536146D01*
X162775172Y-150391087D01*
X162822918Y-150233689D01*
X162835000Y-150111019D01*
X162835000Y-150111018D01*
X162839040Y-150070000D01*
X162835000Y-150028982D01*
X162835000Y-144041018D01*
X162839040Y-144000000D01*
X162822918Y-143836311D01*
X162775172Y-143678913D01*
X162697636Y-143533854D01*
X162619439Y-143438570D01*
X162619437Y-143438568D01*
X162593291Y-143406709D01*
X162561433Y-143380564D01*
X160036285Y-140855418D01*
X160055000Y-140761335D01*
X160055000Y-140478665D01*
X159999853Y-140201426D01*
X159891680Y-139940273D01*
X159734637Y-139705241D01*
X159534759Y-139505363D01*
X159302241Y-139350000D01*
X159534759Y-139194637D01*
X159734637Y-138994759D01*
X159891680Y-138759727D01*
X159999853Y-138498574D01*
X160052589Y-138233456D01*
X163165000Y-141345869D01*
X163165001Y-150264130D01*
X156486126Y-156943007D01*
X156477502Y-156932498D01*
X156289449Y-156778167D01*
X156074901Y-156663489D01*
X155842102Y-156592870D01*
X155660665Y-156575000D01*
X154739335Y-156575000D01*
X154557898Y-156592870D01*
X154325099Y-156663489D01*
X154110551Y-156778167D01*
X153922498Y-156932498D01*
X153887618Y-156975000D01*
X127155868Y-156975000D01*
X124889446Y-154708579D01*
X124863291Y-154676709D01*
X124736146Y-154572364D01*
X124591087Y-154494828D01*
X124433689Y-154447082D01*
X124311019Y-154435000D01*
X124311018Y-154435000D01*
X124270000Y-154430960D01*
X124228982Y-154435000D01*
X121912382Y-154435000D01*
X121877502Y-154392498D01*
X121689449Y-154238167D01*
X121474901Y-154123489D01*
X121242102Y-154052870D01*
X121060665Y-154035000D01*
X120139335Y-154035000D01*
X119957898Y-154052870D01*
X119725099Y-154123489D01*
X119510551Y-154238167D01*
X119322498Y-154392498D01*
X119168167Y-154580551D01*
X119053489Y-154795099D01*
X118982870Y-155027898D01*
X118959025Y-155270000D01*
X118982870Y-155512102D01*
X119053489Y-155744901D01*
X119168167Y-155959449D01*
X119322498Y-156147502D01*
X119510551Y-156301833D01*
X119725099Y-156416511D01*
X119957898Y-156487130D01*
X120139335Y-156505000D01*
X121060665Y-156505000D01*
X121242102Y-156487130D01*
X121474901Y-156416511D01*
X121689449Y-156301833D01*
X121877502Y-156147502D01*
X121912382Y-156105000D01*
X123924133Y-156105000D01*
X126190559Y-158371427D01*
X126216709Y-158403291D01*
X126343854Y-158507636D01*
X126488913Y-158585172D01*
X126646311Y-158632918D01*
X126768981Y-158645000D01*
X126768991Y-158645000D01*
X126809999Y-158649039D01*
X126851007Y-158645000D01*
X153887618Y-158645000D01*
X153922498Y-158687502D01*
X154110551Y-158841833D01*
X154325099Y-158956511D01*
X154557898Y-159027130D01*
X154739335Y-159045000D01*
X155660665Y-159045000D01*
X155842102Y-159027130D01*
X156074901Y-158956511D01*
X156289449Y-158841833D01*
X156477502Y-158687502D01*
X156512382Y-158645000D01*
X156758982Y-158645000D01*
X156800000Y-158649040D01*
X156841018Y-158645000D01*
X156841019Y-158645000D01*
X156963689Y-158632918D01*
X157121087Y-158585172D01*
X157266146Y-158507636D01*
X157393291Y-158403291D01*
X157419446Y-158371421D01*
X164561432Y-151229437D01*
X164593291Y-151203291D01*
X164640057Y-151146307D01*
X164697636Y-151076146D01*
X164775172Y-150931087D01*
X164822918Y-150773688D01*
X164839040Y-150610000D01*
X164835000Y-150568982D01*
X164835000Y-141041018D01*
X164839040Y-141000000D01*
X164822918Y-140836312D01*
X164775172Y-140678913D01*
X164714943Y-140566233D01*
X164697636Y-140533854D01*
X164593291Y-140406709D01*
X164561433Y-140380564D01*
X160189880Y-136009012D01*
X160117635Y-135873853D01*
X160036396Y-135774863D01*
X160055000Y-135681335D01*
X160055000Y-135398665D01*
X159999853Y-135121426D01*
X159891680Y-134860273D01*
X159734637Y-134625241D01*
X159534759Y-134425363D01*
X159299727Y-134268320D01*
X159289135Y-134263933D01*
X159475131Y-134152385D01*
X159683519Y-133963414D01*
X159851037Y-133737420D01*
X159971246Y-133483087D01*
X160011904Y-133349039D01*
X159889915Y-133127000D01*
X158747000Y-133127000D01*
X158747000Y-133147000D01*
X158493000Y-133147000D01*
X158493000Y-133127000D01*
X157350085Y-133127000D01*
X157228096Y-133349039D01*
X157268754Y-133483087D01*
X157388963Y-133737420D01*
X157556481Y-133963414D01*
X157764869Y-134152385D01*
X157950865Y-134263933D01*
X157940273Y-134268320D01*
X157705241Y-134425363D01*
X157505363Y-134625241D01*
X157348320Y-134860273D01*
X157240147Y-135121426D01*
X157185000Y-135398665D01*
X157185000Y-135681335D01*
X157240147Y-135958574D01*
X157348320Y-136219727D01*
X157505363Y-136454759D01*
X157705241Y-136654637D01*
X157937759Y-136810000D01*
X157705241Y-136965363D01*
X157505363Y-137165241D01*
X157348320Y-137400273D01*
X157240147Y-137661426D01*
X157185000Y-137938665D01*
X157185000Y-138221335D01*
X157203714Y-138315417D01*
X151354133Y-144165000D01*
X134345868Y-144165000D01*
X133275000Y-143094133D01*
X133275000Y-143036203D01*
X133300882Y-143022369D01*
X133538424Y-142827424D01*
X133733369Y-142589883D01*
X133878226Y-142318875D01*
X133967428Y-142024813D01*
X133990000Y-141795636D01*
X133990000Y-140444364D01*
X135870000Y-140444364D01*
X135870000Y-141795635D01*
X135892572Y-142024812D01*
X135981774Y-142318874D01*
X136126631Y-142589882D01*
X136321576Y-142827424D01*
X136559117Y-143022369D01*
X136830125Y-143167226D01*
X137124187Y-143256428D01*
X137430000Y-143286548D01*
X137735812Y-143256428D01*
X138029874Y-143167226D01*
X138300882Y-143022369D01*
X138538424Y-142827424D01*
X138733369Y-142589883D01*
X138878226Y-142318875D01*
X138967428Y-142024813D01*
X138990000Y-141795636D01*
X138990000Y-140444364D01*
X138967428Y-140215187D01*
X138878226Y-139921125D01*
X138733369Y-139650117D01*
X138538424Y-139412576D01*
X138300883Y-139217631D01*
X138029875Y-139072774D01*
X137735813Y-138983572D01*
X137430000Y-138953452D01*
X137124188Y-138983572D01*
X136830126Y-139072774D01*
X136559118Y-139217631D01*
X136321577Y-139412576D01*
X136126632Y-139650117D01*
X135981774Y-139921125D01*
X135892572Y-140215187D01*
X135870000Y-140444364D01*
X133990000Y-140444364D01*
X133967428Y-140215187D01*
X133878226Y-139921125D01*
X133733369Y-139650117D01*
X133538424Y-139412576D01*
X133300883Y-139217631D01*
X133275000Y-139203796D01*
X133275000Y-130536203D01*
X133300882Y-130522369D01*
X133538424Y-130327424D01*
X133733369Y-130089883D01*
X133878226Y-129818875D01*
X133967428Y-129524813D01*
X133990000Y-129295636D01*
X133990000Y-127944364D01*
X135870000Y-127944364D01*
X135870000Y-129295635D01*
X135892572Y-129524812D01*
X135981774Y-129818874D01*
X136126631Y-130089882D01*
X136321576Y-130327424D01*
X136559117Y-130522369D01*
X136830125Y-130667226D01*
X137124187Y-130756428D01*
X137430000Y-130786548D01*
X137735812Y-130756428D01*
X138029874Y-130667226D01*
X138300882Y-130522369D01*
X138538424Y-130327424D01*
X138733369Y-130089883D01*
X138878226Y-129818875D01*
X138967428Y-129524813D01*
X138990000Y-129295636D01*
X138990000Y-127944364D01*
X138967428Y-127715187D01*
X138878226Y-127421125D01*
X138733369Y-127150117D01*
X138538424Y-126912576D01*
X138300883Y-126717631D01*
X138029875Y-126572774D01*
X137983364Y-126558665D01*
X141765000Y-126558665D01*
X141765000Y-126841335D01*
X141820147Y-127118574D01*
X141928320Y-127379727D01*
X142085363Y-127614759D01*
X142285241Y-127814637D01*
X142365000Y-127867930D01*
X142365001Y-136558971D01*
X142360960Y-136600000D01*
X142377082Y-136763688D01*
X142424828Y-136921086D01*
X142487125Y-137037635D01*
X142502365Y-137066146D01*
X142606710Y-137193291D01*
X142638574Y-137219441D01*
X144060559Y-138641426D01*
X144086709Y-138673291D01*
X144192032Y-138759727D01*
X144213854Y-138777636D01*
X144358913Y-138855172D01*
X144516311Y-138902918D01*
X144679999Y-138919040D01*
X144721018Y-138915000D01*
X149832070Y-138915000D01*
X149885363Y-138994759D01*
X150085241Y-139194637D01*
X150317759Y-139350000D01*
X150085241Y-139505363D01*
X149885363Y-139705241D01*
X149728320Y-139940273D01*
X149620147Y-140201426D01*
X149565000Y-140478665D01*
X149565000Y-140761335D01*
X149620147Y-141038574D01*
X149728320Y-141299727D01*
X149885363Y-141534759D01*
X150085241Y-141734637D01*
X150320273Y-141891680D01*
X150581426Y-141999853D01*
X150858665Y-142055000D01*
X151141335Y-142055000D01*
X151418574Y-141999853D01*
X151679727Y-141891680D01*
X151914759Y-141734637D01*
X152114637Y-141534759D01*
X152271680Y-141299727D01*
X152379853Y-141038574D01*
X152435000Y-140761335D01*
X152435000Y-140478665D01*
X152379853Y-140201426D01*
X152271680Y-139940273D01*
X152114637Y-139705241D01*
X151914759Y-139505363D01*
X151682241Y-139350000D01*
X151914759Y-139194637D01*
X152114637Y-138994759D01*
X152271680Y-138759727D01*
X152379853Y-138498574D01*
X152435000Y-138221335D01*
X152435000Y-137938665D01*
X152379853Y-137661426D01*
X152271680Y-137400273D01*
X152114637Y-137165241D01*
X151914759Y-136965363D01*
X151682241Y-136810000D01*
X151914759Y-136654637D01*
X152114637Y-136454759D01*
X152271680Y-136219727D01*
X152379853Y-135958574D01*
X152435000Y-135681335D01*
X152435000Y-135398665D01*
X152379853Y-135121426D01*
X152271680Y-134860273D01*
X152114637Y-134625241D01*
X151916039Y-134426643D01*
X151924482Y-134425812D01*
X152044180Y-134389502D01*
X152154494Y-134330537D01*
X152251185Y-134251185D01*
X152330537Y-134154494D01*
X152389502Y-134044180D01*
X152425812Y-133924482D01*
X152438072Y-133800000D01*
X152438072Y-132650961D01*
X157228096Y-132650961D01*
X157350085Y-132873000D01*
X158493000Y-132873000D01*
X158493000Y-131729376D01*
X158747000Y-131729376D01*
X158747000Y-132873000D01*
X159889915Y-132873000D01*
X160011904Y-132650961D01*
X159971246Y-132516913D01*
X159851037Y-132262580D01*
X159683519Y-132036586D01*
X159475131Y-131847615D01*
X159233881Y-131702930D01*
X158969040Y-131608091D01*
X158747000Y-131729376D01*
X158493000Y-131729376D01*
X158270960Y-131608091D01*
X158006119Y-131702930D01*
X157764869Y-131847615D01*
X157556481Y-132036586D01*
X157388963Y-132262580D01*
X157268754Y-132516913D01*
X157228096Y-132650961D01*
X152438072Y-132650961D01*
X152438072Y-132200000D01*
X152425812Y-132075518D01*
X152389502Y-131955820D01*
X152330537Y-131845506D01*
X152251185Y-131748815D01*
X152154494Y-131669463D01*
X152044180Y-131610498D01*
X151924482Y-131574188D01*
X151800000Y-131561928D01*
X150200000Y-131561928D01*
X150075518Y-131574188D01*
X149955820Y-131610498D01*
X149845506Y-131669463D01*
X149748815Y-131748815D01*
X149669463Y-131845506D01*
X149610498Y-131955820D01*
X149574188Y-132075518D01*
X149561928Y-132200000D01*
X149561928Y-133800000D01*
X149574188Y-133924482D01*
X149610498Y-134044180D01*
X149669463Y-134154494D01*
X149748815Y-134251185D01*
X149845506Y-134330537D01*
X149955820Y-134389502D01*
X150075518Y-134425812D01*
X150083961Y-134426643D01*
X149885363Y-134625241D01*
X149832070Y-134705000D01*
X149335000Y-134705000D01*
X149335000Y-128767930D01*
X149414759Y-128714637D01*
X149614637Y-128514759D01*
X149771680Y-128279727D01*
X149879853Y-128018574D01*
X149935000Y-127741335D01*
X149935000Y-127458665D01*
X149879853Y-127181426D01*
X149771680Y-126920273D01*
X149730515Y-126858665D01*
X154065000Y-126858665D01*
X154065000Y-127141335D01*
X154120147Y-127418574D01*
X154228320Y-127679727D01*
X154385363Y-127914759D01*
X154585241Y-128114637D01*
X154820273Y-128271680D01*
X155081426Y-128379853D01*
X155358665Y-128435000D01*
X155641335Y-128435000D01*
X155918574Y-128379853D01*
X156179727Y-128271680D01*
X156414759Y-128114637D01*
X156581339Y-127948057D01*
X156610498Y-128044180D01*
X156669463Y-128154494D01*
X156748815Y-128251185D01*
X156845506Y-128330537D01*
X156955820Y-128389502D01*
X157075518Y-128425812D01*
X157200000Y-128438072D01*
X157714250Y-128435000D01*
X157873000Y-128276250D01*
X157873000Y-127127000D01*
X158127000Y-127127000D01*
X158127000Y-128276250D01*
X158285750Y-128435000D01*
X158800000Y-128438072D01*
X158924482Y-128425812D01*
X159044180Y-128389502D01*
X159154494Y-128330537D01*
X159251185Y-128251185D01*
X159330537Y-128154494D01*
X159389502Y-128044180D01*
X159425812Y-127924482D01*
X159438072Y-127800000D01*
X159435000Y-127285750D01*
X159276250Y-127127000D01*
X158127000Y-127127000D01*
X157873000Y-127127000D01*
X157853000Y-127127000D01*
X157853000Y-126873000D01*
X157873000Y-126873000D01*
X157873000Y-125723750D01*
X158127000Y-125723750D01*
X158127000Y-126873000D01*
X159276250Y-126873000D01*
X159435000Y-126714250D01*
X159438072Y-126200000D01*
X159425812Y-126075518D01*
X159389502Y-125955820D01*
X159330537Y-125845506D01*
X159251185Y-125748815D01*
X159154494Y-125669463D01*
X159044180Y-125610498D01*
X158924482Y-125574188D01*
X158800000Y-125561928D01*
X158285750Y-125565000D01*
X158127000Y-125723750D01*
X157873000Y-125723750D01*
X157714250Y-125565000D01*
X157200000Y-125561928D01*
X157075518Y-125574188D01*
X156955820Y-125610498D01*
X156845506Y-125669463D01*
X156748815Y-125748815D01*
X156669463Y-125845506D01*
X156610498Y-125955820D01*
X156581339Y-126051943D01*
X156414759Y-125885363D01*
X156179727Y-125728320D01*
X155918574Y-125620147D01*
X155641335Y-125565000D01*
X155358665Y-125565000D01*
X155081426Y-125620147D01*
X154820273Y-125728320D01*
X154585241Y-125885363D01*
X154385363Y-126085241D01*
X154228320Y-126320273D01*
X154120147Y-126581426D01*
X154065000Y-126858665D01*
X149730515Y-126858665D01*
X149614637Y-126685241D01*
X149414759Y-126485363D01*
X149179727Y-126328320D01*
X148918574Y-126220147D01*
X148641335Y-126165000D01*
X148358665Y-126165000D01*
X148081426Y-126220147D01*
X147820273Y-126328320D01*
X147585241Y-126485363D01*
X147385363Y-126685241D01*
X147228320Y-126920273D01*
X147120147Y-127181426D01*
X147065000Y-127458665D01*
X147065000Y-127741335D01*
X147120147Y-128018574D01*
X147228320Y-128279727D01*
X147385363Y-128514759D01*
X147585241Y-128714637D01*
X147665000Y-128767930D01*
X147665001Y-131551647D01*
X147574482Y-131524188D01*
X147450000Y-131511928D01*
X146885750Y-131515000D01*
X146727000Y-131673750D01*
X146727000Y-132873000D01*
X146747000Y-132873000D01*
X146747000Y-133127000D01*
X146727000Y-133127000D01*
X146727000Y-133147000D01*
X146473000Y-133147000D01*
X146473000Y-133127000D01*
X145273750Y-133127000D01*
X145115000Y-133285750D01*
X145111928Y-133850000D01*
X145124188Y-133974482D01*
X145160498Y-134094180D01*
X145219463Y-134204494D01*
X145298815Y-134301185D01*
X145395506Y-134380537D01*
X145505820Y-134439502D01*
X145578380Y-134461513D01*
X145446525Y-134593368D01*
X145284010Y-134836589D01*
X145172068Y-135106842D01*
X145115000Y-135393740D01*
X145115000Y-135686260D01*
X145172068Y-135973158D01*
X145284010Y-136243411D01*
X145446525Y-136486632D01*
X145653368Y-136693475D01*
X145896589Y-136855990D01*
X146166842Y-136967932D01*
X146453740Y-137025000D01*
X146746260Y-137025000D01*
X147033158Y-136967932D01*
X147303411Y-136855990D01*
X147546632Y-136693475D01*
X147753475Y-136486632D01*
X147827006Y-136376585D01*
X147843099Y-136375000D01*
X149832070Y-136375000D01*
X149885363Y-136454759D01*
X150085241Y-136654637D01*
X150317759Y-136810000D01*
X150085241Y-136965363D01*
X149885363Y-137165241D01*
X149832070Y-137245000D01*
X145025868Y-137245000D01*
X144035000Y-136254133D01*
X144035000Y-132150000D01*
X145111928Y-132150000D01*
X145115000Y-132714250D01*
X145273750Y-132873000D01*
X146473000Y-132873000D01*
X146473000Y-131673750D01*
X146314250Y-131515000D01*
X145750000Y-131511928D01*
X145625518Y-131524188D01*
X145505820Y-131560498D01*
X145395506Y-131619463D01*
X145298815Y-131698815D01*
X145219463Y-131795506D01*
X145160498Y-131905820D01*
X145124188Y-132025518D01*
X145111928Y-132150000D01*
X144035000Y-132150000D01*
X144035000Y-127867930D01*
X144114759Y-127814637D01*
X144314637Y-127614759D01*
X144471680Y-127379727D01*
X144579853Y-127118574D01*
X144635000Y-126841335D01*
X144635000Y-126558665D01*
X144579853Y-126281426D01*
X144471680Y-126020273D01*
X144314637Y-125785241D01*
X144114759Y-125585363D01*
X143879727Y-125428320D01*
X143618574Y-125320147D01*
X143341335Y-125265000D01*
X143058665Y-125265000D01*
X142781426Y-125320147D01*
X142520273Y-125428320D01*
X142285241Y-125585363D01*
X142085363Y-125785241D01*
X141928320Y-126020273D01*
X141820147Y-126281426D01*
X141765000Y-126558665D01*
X137983364Y-126558665D01*
X137735813Y-126483572D01*
X137430000Y-126453452D01*
X137124188Y-126483572D01*
X136830126Y-126572774D01*
X136559118Y-126717631D01*
X136321577Y-126912576D01*
X136126632Y-127150117D01*
X135981774Y-127421125D01*
X135892572Y-127715187D01*
X135870000Y-127944364D01*
X133990000Y-127944364D01*
X133967428Y-127715187D01*
X133878226Y-127421125D01*
X133733369Y-127150117D01*
X133538424Y-126912576D01*
X133300883Y-126717631D01*
X133029875Y-126572774D01*
X132735813Y-126483572D01*
X132430000Y-126453452D01*
X132124188Y-126483572D01*
X131830126Y-126572774D01*
X131559118Y-126717631D01*
X131321577Y-126912576D01*
X131126632Y-127150117D01*
X130981774Y-127421125D01*
X130892572Y-127715187D01*
X130870000Y-127944364D01*
X130870000Y-129295635D01*
X130892572Y-129524812D01*
X130981774Y-129818874D01*
X131126631Y-130089882D01*
X131321576Y-130327424D01*
X131559117Y-130522369D01*
X131605001Y-130546894D01*
X131605001Y-130702972D01*
X131605000Y-130702982D01*
X131605001Y-139193106D01*
X131559118Y-139217631D01*
X131321577Y-139412576D01*
X131126632Y-139650117D01*
X130981774Y-139921125D01*
X130892572Y-140215187D01*
X130870000Y-140444364D01*
X130870000Y-141795635D01*
X130892572Y-142024812D01*
X130981774Y-142318874D01*
X131126631Y-142589882D01*
X131321576Y-142827424D01*
X131559117Y-143022369D01*
X131605000Y-143046894D01*
X131605000Y-143398981D01*
X131600960Y-143440000D01*
X131605000Y-143481018D01*
X131617082Y-143603688D01*
X131664828Y-143761086D01*
X131742364Y-143906145D01*
X131846709Y-144033291D01*
X131878579Y-144059446D01*
X133380559Y-145561426D01*
X133406709Y-145593291D01*
X133490786Y-145662291D01*
X133533854Y-145697636D01*
X133678913Y-145775172D01*
X133836311Y-145822918D01*
X133999999Y-145839040D01*
X134041018Y-145835000D01*
X151658982Y-145835000D01*
X151700000Y-145839040D01*
X151741018Y-145835000D01*
X151741019Y-145835000D01*
X151863689Y-145822918D01*
X152021087Y-145775172D01*
X152166146Y-145697636D01*
X152293291Y-145593291D01*
X152319446Y-145561421D01*
X157185000Y-140695868D01*
X157185000Y-140761335D01*
X157240147Y-141038574D01*
X157348320Y-141299727D01*
X157505363Y-141534759D01*
X157705241Y-141734637D01*
X157940273Y-141891680D01*
X158201426Y-141999853D01*
X158478665Y-142055000D01*
X158761335Y-142055000D01*
X158855418Y-142036285D01*
X161165000Y-144345869D01*
X161165001Y-149724130D01*
X156486126Y-154403007D01*
X156477502Y-154392498D01*
X156289449Y-154238167D01*
X156074901Y-154123489D01*
X155842102Y-154052870D01*
X155660665Y-154035000D01*
X154739335Y-154035000D01*
X154557898Y-154052870D01*
X154325099Y-154123489D01*
X154110551Y-154238167D01*
X153922498Y-154392498D01*
X153887618Y-154435000D01*
X127615868Y-154435000D01*
X126228477Y-153047609D01*
X153606538Y-153047609D01*
X153610409Y-153085282D01*
X153702579Y-153310533D01*
X153836922Y-153513474D01*
X154008275Y-153686307D01*
X154210054Y-153822390D01*
X154434504Y-153916493D01*
X154673000Y-153965000D01*
X155073000Y-153965000D01*
X155073000Y-152857000D01*
X155327000Y-152857000D01*
X155327000Y-153965000D01*
X155727000Y-153965000D01*
X155965496Y-153916493D01*
X156189946Y-153822390D01*
X156391725Y-153686307D01*
X156563078Y-153513474D01*
X156697421Y-153310533D01*
X156789591Y-153085282D01*
X156793462Y-153047609D01*
X156668731Y-152857000D01*
X155327000Y-152857000D01*
X155073000Y-152857000D01*
X153731269Y-152857000D01*
X153606538Y-153047609D01*
X126228477Y-153047609D01*
X125593259Y-152412391D01*
X153606538Y-152412391D01*
X153731269Y-152603000D01*
X155073000Y-152603000D01*
X155073000Y-151495000D01*
X155327000Y-151495000D01*
X155327000Y-152603000D01*
X156668731Y-152603000D01*
X156793462Y-152412391D01*
X156789591Y-152374718D01*
X156697421Y-152149467D01*
X156563078Y-151946526D01*
X156391725Y-151773693D01*
X156189946Y-151637610D01*
X155965496Y-151543507D01*
X155727000Y-151495000D01*
X155327000Y-151495000D01*
X155073000Y-151495000D01*
X154673000Y-151495000D01*
X154434504Y-151543507D01*
X154210054Y-151637610D01*
X154008275Y-151773693D01*
X153836922Y-151946526D01*
X153702579Y-152149467D01*
X153610409Y-152374718D01*
X153606538Y-152412391D01*
X125593259Y-152412391D01*
X125349446Y-152168579D01*
X125323291Y-152136709D01*
X125196146Y-152032364D01*
X125051087Y-151954828D01*
X124893689Y-151907082D01*
X124771019Y-151895000D01*
X124771018Y-151895000D01*
X124730000Y-151890960D01*
X124688982Y-151895000D01*
X121912382Y-151895000D01*
X121877502Y-151852498D01*
X121689449Y-151698167D01*
X121474901Y-151583489D01*
X121242102Y-151512870D01*
X121060665Y-151495000D01*
X120139335Y-151495000D01*
X119957898Y-151512870D01*
X119725099Y-151583489D01*
X119510551Y-151698167D01*
X119322498Y-151852498D01*
X119168167Y-152040551D01*
X119053489Y-152255099D01*
X118982870Y-152487898D01*
X118959025Y-152730000D01*
X104285000Y-152730000D01*
X104285000Y-152713740D01*
X104227932Y-152426842D01*
X104115990Y-152156589D01*
X103953475Y-151913368D01*
X103746632Y-151706525D01*
X103503411Y-151544010D01*
X103233158Y-151432068D01*
X102946260Y-151375000D01*
X102653740Y-151375000D01*
X102366842Y-151432068D01*
X102096589Y-151544010D01*
X101853368Y-151706525D01*
X101646525Y-151913368D01*
X101484010Y-152156589D01*
X101372068Y-152426842D01*
X101315000Y-152713740D01*
X101315000Y-153006260D01*
X101372068Y-153293158D01*
X101484010Y-153563411D01*
X101646525Y-153806632D01*
X101778380Y-153938487D01*
X101705820Y-153960498D01*
X101595506Y-154019463D01*
X101498815Y-154098815D01*
X101419463Y-154195506D01*
X101360498Y-154305820D01*
X101324188Y-154425518D01*
X101311928Y-154550000D01*
X100685000Y-154550000D01*
X100685000Y-150507609D01*
X119006538Y-150507609D01*
X119010409Y-150545282D01*
X119102579Y-150770533D01*
X119236922Y-150973474D01*
X119408275Y-151146307D01*
X119610054Y-151282390D01*
X119834504Y-151376493D01*
X120073000Y-151425000D01*
X120473000Y-151425000D01*
X120473000Y-150317000D01*
X120727000Y-150317000D01*
X120727000Y-151425000D01*
X121127000Y-151425000D01*
X121365496Y-151376493D01*
X121589946Y-151282390D01*
X121791725Y-151146307D01*
X121963078Y-150973474D01*
X122097421Y-150770533D01*
X122189591Y-150545282D01*
X122193462Y-150507609D01*
X122068731Y-150317000D01*
X120727000Y-150317000D01*
X120473000Y-150317000D01*
X119131269Y-150317000D01*
X119006538Y-150507609D01*
X100685000Y-150507609D01*
X100685000Y-123000000D01*
X109873000Y-123000000D01*
X109873000Y-144000000D01*
X109875440Y-144024776D01*
X109882667Y-144048601D01*
X109894403Y-144070557D01*
X109910197Y-144089803D01*
X109929443Y-144105597D01*
X109951399Y-144117333D01*
X109975224Y-144124560D01*
X110000000Y-144127000D01*
X117258734Y-144127000D01*
X117165116Y-144177040D01*
X117015130Y-144300130D01*
X116984289Y-144337710D01*
X115137711Y-146184289D01*
X115100131Y-146215130D01*
X114977041Y-146365116D01*
X114940826Y-146432870D01*
X114885576Y-146536234D01*
X114829253Y-146721907D01*
X114810235Y-146915000D01*
X114815001Y-146963390D01*
X114815001Y-147755603D01*
X114685363Y-147885241D01*
X114528320Y-148120273D01*
X114420147Y-148381426D01*
X114365000Y-148658665D01*
X114365000Y-148941335D01*
X114420147Y-149218574D01*
X114528320Y-149479727D01*
X114685363Y-149714759D01*
X114885241Y-149914637D01*
X115120273Y-150071680D01*
X115381426Y-150179853D01*
X115658665Y-150235000D01*
X115941335Y-150235000D01*
X116167562Y-150190000D01*
X153559025Y-150190000D01*
X153582870Y-150432102D01*
X153653489Y-150664901D01*
X153768167Y-150879449D01*
X153922498Y-151067502D01*
X154110551Y-151221833D01*
X154325099Y-151336511D01*
X154557898Y-151407130D01*
X154739335Y-151425000D01*
X155660665Y-151425000D01*
X155842102Y-151407130D01*
X156074901Y-151336511D01*
X156289449Y-151221833D01*
X156477502Y-151067502D01*
X156631833Y-150879449D01*
X156746511Y-150664901D01*
X156817130Y-150432102D01*
X156840975Y-150190000D01*
X156817130Y-149947898D01*
X156746511Y-149715099D01*
X156631833Y-149500551D01*
X156477502Y-149312498D01*
X156289449Y-149158167D01*
X156074901Y-149043489D01*
X155842102Y-148972870D01*
X155660665Y-148955000D01*
X154739335Y-148955000D01*
X154557898Y-148972870D01*
X154325099Y-149043489D01*
X154110551Y-149158167D01*
X153922498Y-149312498D01*
X153768167Y-149500551D01*
X153653489Y-149715099D01*
X153582870Y-149947898D01*
X153559025Y-150190000D01*
X116167562Y-150190000D01*
X116218574Y-150179853D01*
X116479727Y-150071680D01*
X116714759Y-149914637D01*
X116757005Y-149872391D01*
X119006538Y-149872391D01*
X119131269Y-150063000D01*
X120473000Y-150063000D01*
X120473000Y-148955000D01*
X120727000Y-148955000D01*
X120727000Y-150063000D01*
X122068731Y-150063000D01*
X122193462Y-149872391D01*
X122189591Y-149834718D01*
X122097421Y-149609467D01*
X121963078Y-149406526D01*
X121791725Y-149233693D01*
X121589946Y-149097610D01*
X121365496Y-149003507D01*
X121127000Y-148955000D01*
X120727000Y-148955000D01*
X120473000Y-148955000D01*
X120073000Y-148955000D01*
X119834504Y-149003507D01*
X119610054Y-149097610D01*
X119408275Y-149233693D01*
X119236922Y-149406526D01*
X119102579Y-149609467D01*
X119010409Y-149834718D01*
X119006538Y-149872391D01*
X116757005Y-149872391D01*
X116914637Y-149714759D01*
X117071680Y-149479727D01*
X117179853Y-149218574D01*
X117235000Y-148941335D01*
X117235000Y-148658665D01*
X117179853Y-148381426D01*
X117071680Y-148120273D01*
X116914637Y-147885241D01*
X116785000Y-147755604D01*
X116785000Y-147650000D01*
X118959025Y-147650000D01*
X118982870Y-147892102D01*
X119053489Y-148124901D01*
X119168167Y-148339449D01*
X119322498Y-148527502D01*
X119510551Y-148681833D01*
X119725099Y-148796511D01*
X119957898Y-148867130D01*
X120139335Y-148885000D01*
X121060665Y-148885000D01*
X121242102Y-148867130D01*
X121474901Y-148796511D01*
X121689449Y-148681833D01*
X121877502Y-148527502D01*
X122031833Y-148339449D01*
X122146511Y-148124901D01*
X122217130Y-147892102D01*
X122240975Y-147650000D01*
X122217130Y-147407898D01*
X122146511Y-147175099D01*
X122031833Y-146960551D01*
X121877502Y-146772498D01*
X121689449Y-146618167D01*
X121474901Y-146503489D01*
X121242102Y-146432870D01*
X121060665Y-146415000D01*
X120139335Y-146415000D01*
X119957898Y-146432870D01*
X119725099Y-146503489D01*
X119510551Y-146618167D01*
X119322498Y-146772498D01*
X119168167Y-146960551D01*
X119053489Y-147175099D01*
X118982870Y-147407898D01*
X118959025Y-147650000D01*
X116785000Y-147650000D01*
X116785000Y-147323000D01*
X118123001Y-145985000D01*
X119951620Y-145985000D01*
X120000000Y-145989765D01*
X120048380Y-145985000D01*
X120193094Y-145970747D01*
X120378767Y-145914424D01*
X120549884Y-145822960D01*
X120699870Y-145699870D01*
X120730716Y-145662284D01*
X122266001Y-144127000D01*
X124000000Y-144127000D01*
X124024776Y-144124560D01*
X124048601Y-144117333D01*
X124070557Y-144105597D01*
X124089803Y-144089803D01*
X124105597Y-144070557D01*
X124117333Y-144048601D01*
X124124560Y-144024776D01*
X124127000Y-144000000D01*
X124127000Y-123000000D01*
X124124560Y-122975224D01*
X124117333Y-122951399D01*
X124105597Y-122929443D01*
X124089803Y-122910197D01*
X124070557Y-122894403D01*
X124048601Y-122882667D01*
X124024776Y-122875440D01*
X124000000Y-122873000D01*
X110000000Y-122873000D01*
X109975224Y-122875440D01*
X109951399Y-122882667D01*
X109929443Y-122894403D01*
X109910197Y-122910197D01*
X109894403Y-122929443D01*
X109882667Y-122951399D01*
X109875440Y-122975224D01*
X109873000Y-123000000D01*
X100685000Y-123000000D01*
X100685000Y-118358665D01*
X120165000Y-118358665D01*
X120165000Y-118641335D01*
X120220147Y-118918574D01*
X120328320Y-119179727D01*
X120485363Y-119414759D01*
X120685241Y-119614637D01*
X120920273Y-119771680D01*
X121181426Y-119879853D01*
X121458665Y-119935000D01*
X121741335Y-119935000D01*
X122018574Y-119879853D01*
X122279727Y-119771680D01*
X122514759Y-119614637D01*
X122714637Y-119414759D01*
X122791316Y-119300000D01*
X125161928Y-119300000D01*
X125174188Y-119424482D01*
X125210498Y-119544180D01*
X125269463Y-119654494D01*
X125348815Y-119751185D01*
X125445506Y-119830537D01*
X125555820Y-119889502D01*
X125675518Y-119925812D01*
X125800000Y-119938072D01*
X126314250Y-119935000D01*
X126473000Y-119776250D01*
X126473000Y-118627000D01*
X126727000Y-118627000D01*
X126727000Y-119776250D01*
X126885750Y-119935000D01*
X127400000Y-119938072D01*
X127524482Y-119925812D01*
X127644180Y-119889502D01*
X127754494Y-119830537D01*
X127851185Y-119751185D01*
X127930537Y-119654494D01*
X127989502Y-119544180D01*
X128025812Y-119424482D01*
X128038072Y-119300000D01*
X128035000Y-118785750D01*
X127876250Y-118627000D01*
X126727000Y-118627000D01*
X126473000Y-118627000D01*
X125323750Y-118627000D01*
X125165000Y-118785750D01*
X125161928Y-119300000D01*
X122791316Y-119300000D01*
X122871680Y-119179727D01*
X122979853Y-118918574D01*
X123035000Y-118641335D01*
X123035000Y-118358665D01*
X122979853Y-118081426D01*
X122871680Y-117820273D01*
X122791317Y-117700000D01*
X125161928Y-117700000D01*
X125165000Y-118214250D01*
X125323750Y-118373000D01*
X126473000Y-118373000D01*
X126473000Y-117223750D01*
X126727000Y-117223750D01*
X126727000Y-118373000D01*
X127876250Y-118373000D01*
X128035000Y-118214250D01*
X128038072Y-117700000D01*
X128025812Y-117575518D01*
X127989502Y-117455820D01*
X127930537Y-117345506D01*
X127851185Y-117248815D01*
X127754494Y-117169463D01*
X127644180Y-117110498D01*
X127524482Y-117074188D01*
X127400000Y-117061928D01*
X126885750Y-117065000D01*
X126727000Y-117223750D01*
X126473000Y-117223750D01*
X126314250Y-117065000D01*
X125800000Y-117061928D01*
X125675518Y-117074188D01*
X125555820Y-117110498D01*
X125445506Y-117169463D01*
X125348815Y-117248815D01*
X125269463Y-117345506D01*
X125210498Y-117455820D01*
X125174188Y-117575518D01*
X125161928Y-117700000D01*
X122791317Y-117700000D01*
X122714637Y-117585241D01*
X122514759Y-117385363D01*
X122279727Y-117228320D01*
X122018574Y-117120147D01*
X121741335Y-117065000D01*
X121458665Y-117065000D01*
X121181426Y-117120147D01*
X120920273Y-117228320D01*
X120685241Y-117385363D01*
X120485363Y-117585241D01*
X120328320Y-117820273D01*
X120220147Y-118081426D01*
X120165000Y-118358665D01*
X100685000Y-118358665D01*
X100685000Y-113453740D01*
X130435000Y-113453740D01*
X130435000Y-113746260D01*
X130492068Y-114033158D01*
X130604010Y-114303411D01*
X130766525Y-114546632D01*
X130973368Y-114753475D01*
X131216589Y-114915990D01*
X131486842Y-115027932D01*
X131773740Y-115085000D01*
X132066260Y-115085000D01*
X132353158Y-115027932D01*
X132623411Y-114915990D01*
X132866632Y-114753475D01*
X133073475Y-114546632D01*
X133195195Y-114364466D01*
X133264822Y-114481355D01*
X133459731Y-114697588D01*
X133693080Y-114871641D01*
X133955901Y-114996825D01*
X134103110Y-115041476D01*
X134333000Y-114920155D01*
X134333000Y-113727000D01*
X134313000Y-113727000D01*
X134313000Y-113473000D01*
X134333000Y-113473000D01*
X134333000Y-112279845D01*
X134587000Y-112279845D01*
X134587000Y-113473000D01*
X134607000Y-113473000D01*
X134607000Y-113727000D01*
X134587000Y-113727000D01*
X134587000Y-114920155D01*
X134816890Y-115041476D01*
X134964099Y-114996825D01*
X135226920Y-114871641D01*
X135460269Y-114697588D01*
X135536034Y-114613534D01*
X135560498Y-114694180D01*
X135619463Y-114804494D01*
X135698815Y-114901185D01*
X135795506Y-114980537D01*
X135905820Y-115039502D01*
X136025518Y-115075812D01*
X136150000Y-115088072D01*
X137850000Y-115088072D01*
X137974482Y-115075812D01*
X138094180Y-115039502D01*
X138204494Y-114980537D01*
X138301185Y-114901185D01*
X138380537Y-114804494D01*
X138439502Y-114694180D01*
X138475812Y-114574482D01*
X138488072Y-114450000D01*
X138488072Y-114435000D01*
X141826951Y-114435000D01*
X141928320Y-114679727D01*
X142085363Y-114914759D01*
X142285241Y-115114637D01*
X142520273Y-115271680D01*
X142781426Y-115379853D01*
X143058665Y-115435000D01*
X143341335Y-115435000D01*
X143618574Y-115379853D01*
X143879727Y-115271680D01*
X144114759Y-115114637D01*
X144314637Y-114914759D01*
X144418935Y-114758665D01*
X147065000Y-114758665D01*
X147065000Y-115041335D01*
X147120147Y-115318574D01*
X147228320Y-115579727D01*
X147385363Y-115814759D01*
X147585241Y-116014637D01*
X147820273Y-116171680D01*
X148081426Y-116279853D01*
X148358665Y-116335000D01*
X148641335Y-116335000D01*
X148918574Y-116279853D01*
X149179727Y-116171680D01*
X149414759Y-116014637D01*
X149614637Y-115814759D01*
X149771680Y-115579727D01*
X149879853Y-115318574D01*
X149935000Y-115041335D01*
X149935000Y-114758665D01*
X149879853Y-114481426D01*
X149771680Y-114220273D01*
X149614637Y-113985241D01*
X149414759Y-113785363D01*
X149179727Y-113628320D01*
X148918574Y-113520147D01*
X148641335Y-113465000D01*
X148358665Y-113465000D01*
X148081426Y-113520147D01*
X147820273Y-113628320D01*
X147585241Y-113785363D01*
X147385363Y-113985241D01*
X147228320Y-114220273D01*
X147120147Y-114481426D01*
X147065000Y-114758665D01*
X144418935Y-114758665D01*
X144471680Y-114679727D01*
X144579853Y-114418574D01*
X144635000Y-114141335D01*
X144635000Y-113858665D01*
X144579853Y-113581426D01*
X144471680Y-113320273D01*
X144314637Y-113085241D01*
X144114759Y-112885363D01*
X143879727Y-112728320D01*
X143618574Y-112620147D01*
X143341335Y-112565000D01*
X143058665Y-112565000D01*
X142781426Y-112620147D01*
X142520273Y-112728320D01*
X142465377Y-112765000D01*
X138488072Y-112765000D01*
X138488072Y-112750000D01*
X138475812Y-112625518D01*
X138439502Y-112505820D01*
X138380537Y-112395506D01*
X138301185Y-112298815D01*
X138204494Y-112219463D01*
X138094180Y-112160498D01*
X137974482Y-112124188D01*
X137850000Y-112111928D01*
X136150000Y-112111928D01*
X136025518Y-112124188D01*
X135905820Y-112160498D01*
X135795506Y-112219463D01*
X135698815Y-112298815D01*
X135619463Y-112395506D01*
X135560498Y-112505820D01*
X135536034Y-112586466D01*
X135460269Y-112502412D01*
X135226920Y-112328359D01*
X134964099Y-112203175D01*
X134816890Y-112158524D01*
X134587000Y-112279845D01*
X134333000Y-112279845D01*
X134103110Y-112158524D01*
X133955901Y-112203175D01*
X133693080Y-112328359D01*
X133459731Y-112502412D01*
X133264822Y-112718645D01*
X133195195Y-112835534D01*
X133073475Y-112653368D01*
X132866632Y-112446525D01*
X132623411Y-112284010D01*
X132353158Y-112172068D01*
X132066260Y-112115000D01*
X131773740Y-112115000D01*
X131486842Y-112172068D01*
X131216589Y-112284010D01*
X130973368Y-112446525D01*
X130766525Y-112653368D01*
X130604010Y-112896589D01*
X130492068Y-113166842D01*
X130435000Y-113453740D01*
X100685000Y-113453740D01*
X100685000Y-110127000D01*
X110000000Y-110127000D01*
X110024776Y-110124560D01*
X110048601Y-110117333D01*
X110070557Y-110105597D01*
X110089803Y-110089803D01*
X110105597Y-110070557D01*
X110117333Y-110048601D01*
X110124560Y-110024776D01*
X110127000Y-110000000D01*
X110127000Y-100685000D01*
X159873000Y-100685000D01*
X159873000Y-110000000D01*
G37*
X159873000Y-110000000D02*
X159875440Y-110024776D01*
X159882667Y-110048601D01*
X159894403Y-110070557D01*
X159910197Y-110089803D01*
X159929443Y-110105597D01*
X159951399Y-110117333D01*
X159975224Y-110124560D01*
X160000000Y-110127000D01*
X169315000Y-110127000D01*
X169315001Y-159873000D01*
X160000000Y-159873000D01*
X159975224Y-159875440D01*
X159951399Y-159882667D01*
X159929443Y-159894403D01*
X159910197Y-159910197D01*
X159894403Y-159929443D01*
X159882667Y-159951399D01*
X159875440Y-159975224D01*
X159873000Y-160000000D01*
X159873000Y-169315000D01*
X110127000Y-169315000D01*
X110127000Y-160350000D01*
X118959025Y-160350000D01*
X118982870Y-160592102D01*
X119053489Y-160824901D01*
X119168167Y-161039449D01*
X119322498Y-161227502D01*
X119510551Y-161381833D01*
X119725099Y-161496511D01*
X119957898Y-161567130D01*
X120139335Y-161585000D01*
X121060665Y-161585000D01*
X121242102Y-161567130D01*
X121474901Y-161496511D01*
X121689449Y-161381833D01*
X121877502Y-161227502D01*
X122031833Y-161039449D01*
X122146511Y-160824901D01*
X122217130Y-160592102D01*
X122240975Y-160350000D01*
X122217130Y-160107898D01*
X122146511Y-159875099D01*
X122031833Y-159660551D01*
X121877502Y-159472498D01*
X121689449Y-159318167D01*
X121474901Y-159203489D01*
X121242102Y-159132870D01*
X121060665Y-159115000D01*
X120139335Y-159115000D01*
X119957898Y-159132870D01*
X119725099Y-159203489D01*
X119510551Y-159318167D01*
X119322498Y-159472498D01*
X119168167Y-159660551D01*
X119053489Y-159875099D01*
X118982870Y-160107898D01*
X118959025Y-160350000D01*
X110127000Y-160350000D01*
X110127000Y-160000000D01*
X110124560Y-159975224D01*
X110117333Y-159951399D01*
X110105597Y-159929443D01*
X110089803Y-159910197D01*
X110070557Y-159894403D01*
X110048601Y-159882667D01*
X110024776Y-159875440D01*
X110000000Y-159873000D01*
X100685000Y-159873000D01*
X100685000Y-154550000D01*
X101311928Y-154550000D01*
X101311928Y-156250000D01*
X101324188Y-156374482D01*
X101360498Y-156494180D01*
X101419463Y-156604494D01*
X101498815Y-156701185D01*
X101595506Y-156780537D01*
X101705820Y-156839502D01*
X101825518Y-156875812D01*
X101950000Y-156888072D01*
X103650000Y-156888072D01*
X103774482Y-156875812D01*
X103894180Y-156839502D01*
X104004494Y-156780537D01*
X104101185Y-156701185D01*
X104180537Y-156604494D01*
X104205075Y-156558587D01*
X105384744Y-157738256D01*
X105384744Y-157921591D01*
X105439891Y-158198830D01*
X105548064Y-158459983D01*
X105705107Y-158695015D01*
X105904985Y-158894893D01*
X106140017Y-159051936D01*
X106401170Y-159160109D01*
X106678409Y-159215256D01*
X106961079Y-159215256D01*
X107238318Y-159160109D01*
X107499471Y-159051936D01*
X107734503Y-158894893D01*
X107934381Y-158695015D01*
X108091424Y-158459983D01*
X108199597Y-158198830D01*
X108254744Y-157921591D01*
X108254744Y-157810000D01*
X118959025Y-157810000D01*
X118982870Y-158052102D01*
X119053489Y-158284901D01*
X119168167Y-158499449D01*
X119322498Y-158687502D01*
X119510551Y-158841833D01*
X119725099Y-158956511D01*
X119957898Y-159027130D01*
X120139335Y-159045000D01*
X121060665Y-159045000D01*
X121242102Y-159027130D01*
X121474901Y-158956511D01*
X121689449Y-158841833D01*
X121877502Y-158687502D01*
X122031833Y-158499449D01*
X122146511Y-158284901D01*
X122217130Y-158052102D01*
X122240975Y-157810000D01*
X122217130Y-157567898D01*
X122146511Y-157335099D01*
X122031833Y-157120551D01*
X121877502Y-156932498D01*
X121689449Y-156778167D01*
X121474901Y-156663489D01*
X121242102Y-156592870D01*
X121060665Y-156575000D01*
X120139335Y-156575000D01*
X119957898Y-156592870D01*
X119725099Y-156663489D01*
X119510551Y-156778167D01*
X119322498Y-156932498D01*
X119168167Y-157120551D01*
X119053489Y-157335099D01*
X118982870Y-157567898D01*
X118959025Y-157810000D01*
X108254744Y-157810000D01*
X108254744Y-157638921D01*
X108199597Y-157361682D01*
X108091424Y-157100529D01*
X107934381Y-156865497D01*
X107734503Y-156665619D01*
X107499471Y-156508576D01*
X107238318Y-156400403D01*
X106961079Y-156345256D01*
X106777744Y-156345256D01*
X105170204Y-154737716D01*
X105139358Y-154700130D01*
X104989372Y-154577040D01*
X104818255Y-154485576D01*
X104632582Y-154429253D01*
X104487868Y-154415000D01*
X104439488Y-154410235D01*
X104391108Y-154415000D01*
X104272621Y-154415000D01*
X104239502Y-154305820D01*
X104180537Y-154195506D01*
X104101185Y-154098815D01*
X104004494Y-154019463D01*
X103894180Y-153960498D01*
X103821620Y-153938487D01*
X103953475Y-153806632D01*
X104115990Y-153563411D01*
X104227932Y-153293158D01*
X104285000Y-153006260D01*
X104285000Y-152730000D01*
X118959025Y-152730000D01*
X118982870Y-152972102D01*
X119053489Y-153204901D01*
X119168167Y-153419449D01*
X119322498Y-153607502D01*
X119510551Y-153761833D01*
X119725099Y-153876511D01*
X119957898Y-153947130D01*
X120139335Y-153965000D01*
X121060665Y-153965000D01*
X121242102Y-153947130D01*
X121474901Y-153876511D01*
X121689449Y-153761833D01*
X121877502Y-153607502D01*
X121912382Y-153565000D01*
X124384133Y-153565000D01*
X126650559Y-155831427D01*
X126676709Y-155863291D01*
X126803854Y-155967636D01*
X126948913Y-156045172D01*
X127106311Y-156092918D01*
X127228981Y-156105000D01*
X127228991Y-156105000D01*
X127269999Y-156109039D01*
X127311007Y-156105000D01*
X153887618Y-156105000D01*
X153922498Y-156147502D01*
X154110551Y-156301833D01*
X154325099Y-156416511D01*
X154557898Y-156487130D01*
X154739335Y-156505000D01*
X155660665Y-156505000D01*
X155842102Y-156487130D01*
X156074901Y-156416511D01*
X156289449Y-156301833D01*
X156477502Y-156147502D01*
X156512382Y-156105000D01*
X156758982Y-156105000D01*
X156800000Y-156109040D01*
X156841018Y-156105000D01*
X156841019Y-156105000D01*
X156963689Y-156092918D01*
X157121087Y-156045172D01*
X157266146Y-155967636D01*
X157393291Y-155863291D01*
X157419446Y-155831421D01*
X162561432Y-150689437D01*
X162593291Y-150663291D01*
X162697636Y-150536146D01*
X162775172Y-150391087D01*
X162822918Y-150233689D01*
X162835000Y-150111019D01*
X162835000Y-150111018D01*
X162839040Y-150070000D01*
X162835000Y-150028982D01*
X162835000Y-144041018D01*
X162839040Y-144000000D01*
X162822918Y-143836311D01*
X162775172Y-143678913D01*
X162697636Y-143533854D01*
X162619439Y-143438570D01*
X162619437Y-143438568D01*
X162593291Y-143406709D01*
X162561433Y-143380564D01*
X160036285Y-140855418D01*
X160055000Y-140761335D01*
X160055000Y-140478665D01*
X159999853Y-140201426D01*
X159891680Y-139940273D01*
X159734637Y-139705241D01*
X159534759Y-139505363D01*
X159302241Y-139350000D01*
X159534759Y-139194637D01*
X159734637Y-138994759D01*
X159891680Y-138759727D01*
X159999853Y-138498574D01*
X160052589Y-138233456D01*
X163165000Y-141345869D01*
X163165001Y-150264130D01*
X156486126Y-156943007D01*
X156477502Y-156932498D01*
X156289449Y-156778167D01*
X156074901Y-156663489D01*
X155842102Y-156592870D01*
X155660665Y-156575000D01*
X154739335Y-156575000D01*
X154557898Y-156592870D01*
X154325099Y-156663489D01*
X154110551Y-156778167D01*
X153922498Y-156932498D01*
X153887618Y-156975000D01*
X127155868Y-156975000D01*
X124889446Y-154708579D01*
X124863291Y-154676709D01*
X124736146Y-154572364D01*
X124591087Y-154494828D01*
X124433689Y-154447082D01*
X124311019Y-154435000D01*
X124311018Y-154435000D01*
X124270000Y-154430960D01*
X124228982Y-154435000D01*
X121912382Y-154435000D01*
X121877502Y-154392498D01*
X121689449Y-154238167D01*
X121474901Y-154123489D01*
X121242102Y-154052870D01*
X121060665Y-154035000D01*
X120139335Y-154035000D01*
X119957898Y-154052870D01*
X119725099Y-154123489D01*
X119510551Y-154238167D01*
X119322498Y-154392498D01*
X119168167Y-154580551D01*
X119053489Y-154795099D01*
X118982870Y-155027898D01*
X118959025Y-155270000D01*
X118982870Y-155512102D01*
X119053489Y-155744901D01*
X119168167Y-155959449D01*
X119322498Y-156147502D01*
X119510551Y-156301833D01*
X119725099Y-156416511D01*
X119957898Y-156487130D01*
X120139335Y-156505000D01*
X121060665Y-156505000D01*
X121242102Y-156487130D01*
X121474901Y-156416511D01*
X121689449Y-156301833D01*
X121877502Y-156147502D01*
X121912382Y-156105000D01*
X123924133Y-156105000D01*
X126190559Y-158371427D01*
X126216709Y-158403291D01*
X126343854Y-158507636D01*
X126488913Y-158585172D01*
X126646311Y-158632918D01*
X126768981Y-158645000D01*
X126768991Y-158645000D01*
X126809999Y-158649039D01*
X126851007Y-158645000D01*
X153887618Y-158645000D01*
X153922498Y-158687502D01*
X154110551Y-158841833D01*
X154325099Y-158956511D01*
X154557898Y-159027130D01*
X154739335Y-159045000D01*
X155660665Y-159045000D01*
X155842102Y-159027130D01*
X156074901Y-158956511D01*
X156289449Y-158841833D01*
X156477502Y-158687502D01*
X156512382Y-158645000D01*
X156758982Y-158645000D01*
X156800000Y-158649040D01*
X156841018Y-158645000D01*
X156841019Y-158645000D01*
X156963689Y-158632918D01*
X157121087Y-158585172D01*
X157266146Y-158507636D01*
X157393291Y-158403291D01*
X157419446Y-158371421D01*
X164561432Y-151229437D01*
X164593291Y-151203291D01*
X164640057Y-151146307D01*
X164697636Y-151076146D01*
X164775172Y-150931087D01*
X164822918Y-150773688D01*
X164839040Y-150610000D01*
X164835000Y-150568982D01*
X164835000Y-141041018D01*
X164839040Y-141000000D01*
X164822918Y-140836312D01*
X164775172Y-140678913D01*
X164714943Y-140566233D01*
X164697636Y-140533854D01*
X164593291Y-140406709D01*
X164561433Y-140380564D01*
X160189880Y-136009012D01*
X160117635Y-135873853D01*
X160036396Y-135774863D01*
X160055000Y-135681335D01*
X160055000Y-135398665D01*
X159999853Y-135121426D01*
X159891680Y-134860273D01*
X159734637Y-134625241D01*
X159534759Y-134425363D01*
X159299727Y-134268320D01*
X159289135Y-134263933D01*
X159475131Y-134152385D01*
X159683519Y-133963414D01*
X159851037Y-133737420D01*
X159971246Y-133483087D01*
X160011904Y-133349039D01*
X159889915Y-133127000D01*
X158747000Y-133127000D01*
X158747000Y-133147000D01*
X158493000Y-133147000D01*
X158493000Y-133127000D01*
X157350085Y-133127000D01*
X157228096Y-133349039D01*
X157268754Y-133483087D01*
X157388963Y-133737420D01*
X157556481Y-133963414D01*
X157764869Y-134152385D01*
X157950865Y-134263933D01*
X157940273Y-134268320D01*
X157705241Y-134425363D01*
X157505363Y-134625241D01*
X157348320Y-134860273D01*
X157240147Y-135121426D01*
X157185000Y-135398665D01*
X157185000Y-135681335D01*
X157240147Y-135958574D01*
X157348320Y-136219727D01*
X157505363Y-136454759D01*
X157705241Y-136654637D01*
X157937759Y-136810000D01*
X157705241Y-136965363D01*
X157505363Y-137165241D01*
X157348320Y-137400273D01*
X157240147Y-137661426D01*
X157185000Y-137938665D01*
X157185000Y-138221335D01*
X157203714Y-138315417D01*
X151354133Y-144165000D01*
X134345868Y-144165000D01*
X133275000Y-143094133D01*
X133275000Y-143036203D01*
X133300882Y-143022369D01*
X133538424Y-142827424D01*
X133733369Y-142589883D01*
X133878226Y-142318875D01*
X133967428Y-142024813D01*
X133990000Y-141795636D01*
X133990000Y-140444364D01*
X135870000Y-140444364D01*
X135870000Y-141795635D01*
X135892572Y-142024812D01*
X135981774Y-142318874D01*
X136126631Y-142589882D01*
X136321576Y-142827424D01*
X136559117Y-143022369D01*
X136830125Y-143167226D01*
X137124187Y-143256428D01*
X137430000Y-143286548D01*
X137735812Y-143256428D01*
X138029874Y-143167226D01*
X138300882Y-143022369D01*
X138538424Y-142827424D01*
X138733369Y-142589883D01*
X138878226Y-142318875D01*
X138967428Y-142024813D01*
X138990000Y-141795636D01*
X138990000Y-140444364D01*
X138967428Y-140215187D01*
X138878226Y-139921125D01*
X138733369Y-139650117D01*
X138538424Y-139412576D01*
X138300883Y-139217631D01*
X138029875Y-139072774D01*
X137735813Y-138983572D01*
X137430000Y-138953452D01*
X137124188Y-138983572D01*
X136830126Y-139072774D01*
X136559118Y-139217631D01*
X136321577Y-139412576D01*
X136126632Y-139650117D01*
X135981774Y-139921125D01*
X135892572Y-140215187D01*
X135870000Y-140444364D01*
X133990000Y-140444364D01*
X133967428Y-140215187D01*
X133878226Y-139921125D01*
X133733369Y-139650117D01*
X133538424Y-139412576D01*
X133300883Y-139217631D01*
X133275000Y-139203796D01*
X133275000Y-130536203D01*
X133300882Y-130522369D01*
X133538424Y-130327424D01*
X133733369Y-130089883D01*
X133878226Y-129818875D01*
X133967428Y-129524813D01*
X133990000Y-129295636D01*
X133990000Y-127944364D01*
X135870000Y-127944364D01*
X135870000Y-129295635D01*
X135892572Y-129524812D01*
X135981774Y-129818874D01*
X136126631Y-130089882D01*
X136321576Y-130327424D01*
X136559117Y-130522369D01*
X136830125Y-130667226D01*
X137124187Y-130756428D01*
X137430000Y-130786548D01*
X137735812Y-130756428D01*
X138029874Y-130667226D01*
X138300882Y-130522369D01*
X138538424Y-130327424D01*
X138733369Y-130089883D01*
X138878226Y-129818875D01*
X138967428Y-129524813D01*
X138990000Y-129295636D01*
X138990000Y-127944364D01*
X138967428Y-127715187D01*
X138878226Y-127421125D01*
X138733369Y-127150117D01*
X138538424Y-126912576D01*
X138300883Y-126717631D01*
X138029875Y-126572774D01*
X137983364Y-126558665D01*
X141765000Y-126558665D01*
X141765000Y-126841335D01*
X141820147Y-127118574D01*
X141928320Y-127379727D01*
X142085363Y-127614759D01*
X142285241Y-127814637D01*
X142365000Y-127867930D01*
X142365001Y-136558971D01*
X142360960Y-136600000D01*
X142377082Y-136763688D01*
X142424828Y-136921086D01*
X142487125Y-137037635D01*
X142502365Y-137066146D01*
X142606710Y-137193291D01*
X142638574Y-137219441D01*
X144060559Y-138641426D01*
X144086709Y-138673291D01*
X144192032Y-138759727D01*
X144213854Y-138777636D01*
X144358913Y-138855172D01*
X144516311Y-138902918D01*
X144679999Y-138919040D01*
X144721018Y-138915000D01*
X149832070Y-138915000D01*
X149885363Y-138994759D01*
X150085241Y-139194637D01*
X150317759Y-139350000D01*
X150085241Y-139505363D01*
X149885363Y-139705241D01*
X149728320Y-139940273D01*
X149620147Y-140201426D01*
X149565000Y-140478665D01*
X149565000Y-140761335D01*
X149620147Y-141038574D01*
X149728320Y-141299727D01*
X149885363Y-141534759D01*
X150085241Y-141734637D01*
X150320273Y-141891680D01*
X150581426Y-141999853D01*
X150858665Y-142055000D01*
X151141335Y-142055000D01*
X151418574Y-141999853D01*
X151679727Y-141891680D01*
X151914759Y-141734637D01*
X152114637Y-141534759D01*
X152271680Y-141299727D01*
X152379853Y-141038574D01*
X152435000Y-140761335D01*
X152435000Y-140478665D01*
X152379853Y-140201426D01*
X152271680Y-139940273D01*
X152114637Y-139705241D01*
X151914759Y-139505363D01*
X151682241Y-139350000D01*
X151914759Y-139194637D01*
X152114637Y-138994759D01*
X152271680Y-138759727D01*
X152379853Y-138498574D01*
X152435000Y-138221335D01*
X152435000Y-137938665D01*
X152379853Y-137661426D01*
X152271680Y-137400273D01*
X152114637Y-137165241D01*
X151914759Y-136965363D01*
X151682241Y-136810000D01*
X151914759Y-136654637D01*
X152114637Y-136454759D01*
X152271680Y-136219727D01*
X152379853Y-135958574D01*
X152435000Y-135681335D01*
X152435000Y-135398665D01*
X152379853Y-135121426D01*
X152271680Y-134860273D01*
X152114637Y-134625241D01*
X151916039Y-134426643D01*
X151924482Y-134425812D01*
X152044180Y-134389502D01*
X152154494Y-134330537D01*
X152251185Y-134251185D01*
X152330537Y-134154494D01*
X152389502Y-134044180D01*
X152425812Y-133924482D01*
X152438072Y-133800000D01*
X152438072Y-132650961D01*
X157228096Y-132650961D01*
X157350085Y-132873000D01*
X158493000Y-132873000D01*
X158493000Y-131729376D01*
X158747000Y-131729376D01*
X158747000Y-132873000D01*
X159889915Y-132873000D01*
X160011904Y-132650961D01*
X159971246Y-132516913D01*
X159851037Y-132262580D01*
X159683519Y-132036586D01*
X159475131Y-131847615D01*
X159233881Y-131702930D01*
X158969040Y-131608091D01*
X158747000Y-131729376D01*
X158493000Y-131729376D01*
X158270960Y-131608091D01*
X158006119Y-131702930D01*
X157764869Y-131847615D01*
X157556481Y-132036586D01*
X157388963Y-132262580D01*
X157268754Y-132516913D01*
X157228096Y-132650961D01*
X152438072Y-132650961D01*
X152438072Y-132200000D01*
X152425812Y-132075518D01*
X152389502Y-131955820D01*
X152330537Y-131845506D01*
X152251185Y-131748815D01*
X152154494Y-131669463D01*
X152044180Y-131610498D01*
X151924482Y-131574188D01*
X151800000Y-131561928D01*
X150200000Y-131561928D01*
X150075518Y-131574188D01*
X149955820Y-131610498D01*
X149845506Y-131669463D01*
X149748815Y-131748815D01*
X149669463Y-131845506D01*
X149610498Y-131955820D01*
X149574188Y-132075518D01*
X149561928Y-132200000D01*
X149561928Y-133800000D01*
X149574188Y-133924482D01*
X149610498Y-134044180D01*
X149669463Y-134154494D01*
X149748815Y-134251185D01*
X149845506Y-134330537D01*
X149955820Y-134389502D01*
X150075518Y-134425812D01*
X150083961Y-134426643D01*
X149885363Y-134625241D01*
X149832070Y-134705000D01*
X149335000Y-134705000D01*
X149335000Y-128767930D01*
X149414759Y-128714637D01*
X149614637Y-128514759D01*
X149771680Y-128279727D01*
X149879853Y-128018574D01*
X149935000Y-127741335D01*
X149935000Y-127458665D01*
X149879853Y-127181426D01*
X149771680Y-126920273D01*
X149730515Y-126858665D01*
X154065000Y-126858665D01*
X154065000Y-127141335D01*
X154120147Y-127418574D01*
X154228320Y-127679727D01*
X154385363Y-127914759D01*
X154585241Y-128114637D01*
X154820273Y-128271680D01*
X155081426Y-128379853D01*
X155358665Y-128435000D01*
X155641335Y-128435000D01*
X155918574Y-128379853D01*
X156179727Y-128271680D01*
X156414759Y-128114637D01*
X156581339Y-127948057D01*
X156610498Y-128044180D01*
X156669463Y-128154494D01*
X156748815Y-128251185D01*
X156845506Y-128330537D01*
X156955820Y-128389502D01*
X157075518Y-128425812D01*
X157200000Y-128438072D01*
X157714250Y-128435000D01*
X157873000Y-128276250D01*
X157873000Y-127127000D01*
X158127000Y-127127000D01*
X158127000Y-128276250D01*
X158285750Y-128435000D01*
X158800000Y-128438072D01*
X158924482Y-128425812D01*
X159044180Y-128389502D01*
X159154494Y-128330537D01*
X159251185Y-128251185D01*
X159330537Y-128154494D01*
X159389502Y-128044180D01*
X159425812Y-127924482D01*
X159438072Y-127800000D01*
X159435000Y-127285750D01*
X159276250Y-127127000D01*
X158127000Y-127127000D01*
X157873000Y-127127000D01*
X157853000Y-127127000D01*
X157853000Y-126873000D01*
X157873000Y-126873000D01*
X157873000Y-125723750D01*
X158127000Y-125723750D01*
X158127000Y-126873000D01*
X159276250Y-126873000D01*
X159435000Y-126714250D01*
X159438072Y-126200000D01*
X159425812Y-126075518D01*
X159389502Y-125955820D01*
X159330537Y-125845506D01*
X159251185Y-125748815D01*
X159154494Y-125669463D01*
X159044180Y-125610498D01*
X158924482Y-125574188D01*
X158800000Y-125561928D01*
X158285750Y-125565000D01*
X158127000Y-125723750D01*
X157873000Y-125723750D01*
X157714250Y-125565000D01*
X157200000Y-125561928D01*
X157075518Y-125574188D01*
X156955820Y-125610498D01*
X156845506Y-125669463D01*
X156748815Y-125748815D01*
X156669463Y-125845506D01*
X156610498Y-125955820D01*
X156581339Y-126051943D01*
X156414759Y-125885363D01*
X156179727Y-125728320D01*
X155918574Y-125620147D01*
X155641335Y-125565000D01*
X155358665Y-125565000D01*
X155081426Y-125620147D01*
X154820273Y-125728320D01*
X154585241Y-125885363D01*
X154385363Y-126085241D01*
X154228320Y-126320273D01*
X154120147Y-126581426D01*
X154065000Y-126858665D01*
X149730515Y-126858665D01*
X149614637Y-126685241D01*
X149414759Y-126485363D01*
X149179727Y-126328320D01*
X148918574Y-126220147D01*
X148641335Y-126165000D01*
X148358665Y-126165000D01*
X148081426Y-126220147D01*
X147820273Y-126328320D01*
X147585241Y-126485363D01*
X147385363Y-126685241D01*
X147228320Y-126920273D01*
X147120147Y-127181426D01*
X147065000Y-127458665D01*
X147065000Y-127741335D01*
X147120147Y-128018574D01*
X147228320Y-128279727D01*
X147385363Y-128514759D01*
X147585241Y-128714637D01*
X147665000Y-128767930D01*
X147665001Y-131551647D01*
X147574482Y-131524188D01*
X147450000Y-131511928D01*
X146885750Y-131515000D01*
X146727000Y-131673750D01*
X146727000Y-132873000D01*
X146747000Y-132873000D01*
X146747000Y-133127000D01*
X146727000Y-133127000D01*
X146727000Y-133147000D01*
X146473000Y-133147000D01*
X146473000Y-133127000D01*
X145273750Y-133127000D01*
X145115000Y-133285750D01*
X145111928Y-133850000D01*
X145124188Y-133974482D01*
X145160498Y-134094180D01*
X145219463Y-134204494D01*
X145298815Y-134301185D01*
X145395506Y-134380537D01*
X145505820Y-134439502D01*
X145578380Y-134461513D01*
X145446525Y-134593368D01*
X145284010Y-134836589D01*
X145172068Y-135106842D01*
X145115000Y-135393740D01*
X145115000Y-135686260D01*
X145172068Y-135973158D01*
X145284010Y-136243411D01*
X145446525Y-136486632D01*
X145653368Y-136693475D01*
X145896589Y-136855990D01*
X146166842Y-136967932D01*
X146453740Y-137025000D01*
X146746260Y-137025000D01*
X147033158Y-136967932D01*
X147303411Y-136855990D01*
X147546632Y-136693475D01*
X147753475Y-136486632D01*
X147827006Y-136376585D01*
X147843099Y-136375000D01*
X149832070Y-136375000D01*
X149885363Y-136454759D01*
X150085241Y-136654637D01*
X150317759Y-136810000D01*
X150085241Y-136965363D01*
X149885363Y-137165241D01*
X149832070Y-137245000D01*
X145025868Y-137245000D01*
X144035000Y-136254133D01*
X144035000Y-132150000D01*
X145111928Y-132150000D01*
X145115000Y-132714250D01*
X145273750Y-132873000D01*
X146473000Y-132873000D01*
X146473000Y-131673750D01*
X146314250Y-131515000D01*
X145750000Y-131511928D01*
X145625518Y-131524188D01*
X145505820Y-131560498D01*
X145395506Y-131619463D01*
X145298815Y-131698815D01*
X145219463Y-131795506D01*
X145160498Y-131905820D01*
X145124188Y-132025518D01*
X145111928Y-132150000D01*
X144035000Y-132150000D01*
X144035000Y-127867930D01*
X144114759Y-127814637D01*
X144314637Y-127614759D01*
X144471680Y-127379727D01*
X144579853Y-127118574D01*
X144635000Y-126841335D01*
X144635000Y-126558665D01*
X144579853Y-126281426D01*
X144471680Y-126020273D01*
X144314637Y-125785241D01*
X144114759Y-125585363D01*
X143879727Y-125428320D01*
X143618574Y-125320147D01*
X143341335Y-125265000D01*
X143058665Y-125265000D01*
X142781426Y-125320147D01*
X142520273Y-125428320D01*
X142285241Y-125585363D01*
X142085363Y-125785241D01*
X141928320Y-126020273D01*
X141820147Y-126281426D01*
X141765000Y-126558665D01*
X137983364Y-126558665D01*
X137735813Y-126483572D01*
X137430000Y-126453452D01*
X137124188Y-126483572D01*
X136830126Y-126572774D01*
X136559118Y-126717631D01*
X136321577Y-126912576D01*
X136126632Y-127150117D01*
X135981774Y-127421125D01*
X135892572Y-127715187D01*
X135870000Y-127944364D01*
X133990000Y-127944364D01*
X133967428Y-127715187D01*
X133878226Y-127421125D01*
X133733369Y-127150117D01*
X133538424Y-126912576D01*
X133300883Y-126717631D01*
X133029875Y-126572774D01*
X132735813Y-126483572D01*
X132430000Y-126453452D01*
X132124188Y-126483572D01*
X131830126Y-126572774D01*
X131559118Y-126717631D01*
X131321577Y-126912576D01*
X131126632Y-127150117D01*
X130981774Y-127421125D01*
X130892572Y-127715187D01*
X130870000Y-127944364D01*
X130870000Y-129295635D01*
X130892572Y-129524812D01*
X130981774Y-129818874D01*
X131126631Y-130089882D01*
X131321576Y-130327424D01*
X131559117Y-130522369D01*
X131605001Y-130546894D01*
X131605001Y-130702972D01*
X131605000Y-130702982D01*
X131605001Y-139193106D01*
X131559118Y-139217631D01*
X131321577Y-139412576D01*
X131126632Y-139650117D01*
X130981774Y-139921125D01*
X130892572Y-140215187D01*
X130870000Y-140444364D01*
X130870000Y-141795635D01*
X130892572Y-142024812D01*
X130981774Y-142318874D01*
X131126631Y-142589882D01*
X131321576Y-142827424D01*
X131559117Y-143022369D01*
X131605000Y-143046894D01*
X131605000Y-143398981D01*
X131600960Y-143440000D01*
X131605000Y-143481018D01*
X131617082Y-143603688D01*
X131664828Y-143761086D01*
X131742364Y-143906145D01*
X131846709Y-144033291D01*
X131878579Y-144059446D01*
X133380559Y-145561426D01*
X133406709Y-145593291D01*
X133490786Y-145662291D01*
X133533854Y-145697636D01*
X133678913Y-145775172D01*
X133836311Y-145822918D01*
X133999999Y-145839040D01*
X134041018Y-145835000D01*
X151658982Y-145835000D01*
X151700000Y-145839040D01*
X151741018Y-145835000D01*
X151741019Y-145835000D01*
X151863689Y-145822918D01*
X152021087Y-145775172D01*
X152166146Y-145697636D01*
X152293291Y-145593291D01*
X152319446Y-145561421D01*
X157185000Y-140695868D01*
X157185000Y-140761335D01*
X157240147Y-141038574D01*
X157348320Y-141299727D01*
X157505363Y-141534759D01*
X157705241Y-141734637D01*
X157940273Y-141891680D01*
X158201426Y-141999853D01*
X158478665Y-142055000D01*
X158761335Y-142055000D01*
X158855418Y-142036285D01*
X161165000Y-144345869D01*
X161165001Y-149724130D01*
X156486126Y-154403007D01*
X156477502Y-154392498D01*
X156289449Y-154238167D01*
X156074901Y-154123489D01*
X155842102Y-154052870D01*
X155660665Y-154035000D01*
X154739335Y-154035000D01*
X154557898Y-154052870D01*
X154325099Y-154123489D01*
X154110551Y-154238167D01*
X153922498Y-154392498D01*
X153887618Y-154435000D01*
X127615868Y-154435000D01*
X126228477Y-153047609D01*
X153606538Y-153047609D01*
X153610409Y-153085282D01*
X153702579Y-153310533D01*
X153836922Y-153513474D01*
X154008275Y-153686307D01*
X154210054Y-153822390D01*
X154434504Y-153916493D01*
X154673000Y-153965000D01*
X155073000Y-153965000D01*
X155073000Y-152857000D01*
X155327000Y-152857000D01*
X155327000Y-153965000D01*
X155727000Y-153965000D01*
X155965496Y-153916493D01*
X156189946Y-153822390D01*
X156391725Y-153686307D01*
X156563078Y-153513474D01*
X156697421Y-153310533D01*
X156789591Y-153085282D01*
X156793462Y-153047609D01*
X156668731Y-152857000D01*
X155327000Y-152857000D01*
X155073000Y-152857000D01*
X153731269Y-152857000D01*
X153606538Y-153047609D01*
X126228477Y-153047609D01*
X125593259Y-152412391D01*
X153606538Y-152412391D01*
X153731269Y-152603000D01*
X155073000Y-152603000D01*
X155073000Y-151495000D01*
X155327000Y-151495000D01*
X155327000Y-152603000D01*
X156668731Y-152603000D01*
X156793462Y-152412391D01*
X156789591Y-152374718D01*
X156697421Y-152149467D01*
X156563078Y-151946526D01*
X156391725Y-151773693D01*
X156189946Y-151637610D01*
X155965496Y-151543507D01*
X155727000Y-151495000D01*
X155327000Y-151495000D01*
X155073000Y-151495000D01*
X154673000Y-151495000D01*
X154434504Y-151543507D01*
X154210054Y-151637610D01*
X154008275Y-151773693D01*
X153836922Y-151946526D01*
X153702579Y-152149467D01*
X153610409Y-152374718D01*
X153606538Y-152412391D01*
X125593259Y-152412391D01*
X125349446Y-152168579D01*
X125323291Y-152136709D01*
X125196146Y-152032364D01*
X125051087Y-151954828D01*
X124893689Y-151907082D01*
X124771019Y-151895000D01*
X124771018Y-151895000D01*
X124730000Y-151890960D01*
X124688982Y-151895000D01*
X121912382Y-151895000D01*
X121877502Y-151852498D01*
X121689449Y-151698167D01*
X121474901Y-151583489D01*
X121242102Y-151512870D01*
X121060665Y-151495000D01*
X120139335Y-151495000D01*
X119957898Y-151512870D01*
X119725099Y-151583489D01*
X119510551Y-151698167D01*
X119322498Y-151852498D01*
X119168167Y-152040551D01*
X119053489Y-152255099D01*
X118982870Y-152487898D01*
X118959025Y-152730000D01*
X104285000Y-152730000D01*
X104285000Y-152713740D01*
X104227932Y-152426842D01*
X104115990Y-152156589D01*
X103953475Y-151913368D01*
X103746632Y-151706525D01*
X103503411Y-151544010D01*
X103233158Y-151432068D01*
X102946260Y-151375000D01*
X102653740Y-151375000D01*
X102366842Y-151432068D01*
X102096589Y-151544010D01*
X101853368Y-151706525D01*
X101646525Y-151913368D01*
X101484010Y-152156589D01*
X101372068Y-152426842D01*
X101315000Y-152713740D01*
X101315000Y-153006260D01*
X101372068Y-153293158D01*
X101484010Y-153563411D01*
X101646525Y-153806632D01*
X101778380Y-153938487D01*
X101705820Y-153960498D01*
X101595506Y-154019463D01*
X101498815Y-154098815D01*
X101419463Y-154195506D01*
X101360498Y-154305820D01*
X101324188Y-154425518D01*
X101311928Y-154550000D01*
X100685000Y-154550000D01*
X100685000Y-150507609D01*
X119006538Y-150507609D01*
X119010409Y-150545282D01*
X119102579Y-150770533D01*
X119236922Y-150973474D01*
X119408275Y-151146307D01*
X119610054Y-151282390D01*
X119834504Y-151376493D01*
X120073000Y-151425000D01*
X120473000Y-151425000D01*
X120473000Y-150317000D01*
X120727000Y-150317000D01*
X120727000Y-151425000D01*
X121127000Y-151425000D01*
X121365496Y-151376493D01*
X121589946Y-151282390D01*
X121791725Y-151146307D01*
X121963078Y-150973474D01*
X122097421Y-150770533D01*
X122189591Y-150545282D01*
X122193462Y-150507609D01*
X122068731Y-150317000D01*
X120727000Y-150317000D01*
X120473000Y-150317000D01*
X119131269Y-150317000D01*
X119006538Y-150507609D01*
X100685000Y-150507609D01*
X100685000Y-123000000D01*
X109873000Y-123000000D01*
X109873000Y-144000000D01*
X109875440Y-144024776D01*
X109882667Y-144048601D01*
X109894403Y-144070557D01*
X109910197Y-144089803D01*
X109929443Y-144105597D01*
X109951399Y-144117333D01*
X109975224Y-144124560D01*
X110000000Y-144127000D01*
X117258734Y-144127000D01*
X117165116Y-144177040D01*
X117015130Y-144300130D01*
X116984289Y-144337710D01*
X115137711Y-146184289D01*
X115100131Y-146215130D01*
X114977041Y-146365116D01*
X114940826Y-146432870D01*
X114885576Y-146536234D01*
X114829253Y-146721907D01*
X114810235Y-146915000D01*
X114815001Y-146963390D01*
X114815001Y-147755603D01*
X114685363Y-147885241D01*
X114528320Y-148120273D01*
X114420147Y-148381426D01*
X114365000Y-148658665D01*
X114365000Y-148941335D01*
X114420147Y-149218574D01*
X114528320Y-149479727D01*
X114685363Y-149714759D01*
X114885241Y-149914637D01*
X115120273Y-150071680D01*
X115381426Y-150179853D01*
X115658665Y-150235000D01*
X115941335Y-150235000D01*
X116167562Y-150190000D01*
X153559025Y-150190000D01*
X153582870Y-150432102D01*
X153653489Y-150664901D01*
X153768167Y-150879449D01*
X153922498Y-151067502D01*
X154110551Y-151221833D01*
X154325099Y-151336511D01*
X154557898Y-151407130D01*
X154739335Y-151425000D01*
X155660665Y-151425000D01*
X155842102Y-151407130D01*
X156074901Y-151336511D01*
X156289449Y-151221833D01*
X156477502Y-151067502D01*
X156631833Y-150879449D01*
X156746511Y-150664901D01*
X156817130Y-150432102D01*
X156840975Y-150190000D01*
X156817130Y-149947898D01*
X156746511Y-149715099D01*
X156631833Y-149500551D01*
X156477502Y-149312498D01*
X156289449Y-149158167D01*
X156074901Y-149043489D01*
X155842102Y-148972870D01*
X155660665Y-148955000D01*
X154739335Y-148955000D01*
X154557898Y-148972870D01*
X154325099Y-149043489D01*
X154110551Y-149158167D01*
X153922498Y-149312498D01*
X153768167Y-149500551D01*
X153653489Y-149715099D01*
X153582870Y-149947898D01*
X153559025Y-150190000D01*
X116167562Y-150190000D01*
X116218574Y-150179853D01*
X116479727Y-150071680D01*
X116714759Y-149914637D01*
X116757005Y-149872391D01*
X119006538Y-149872391D01*
X119131269Y-150063000D01*
X120473000Y-150063000D01*
X120473000Y-148955000D01*
X120727000Y-148955000D01*
X120727000Y-150063000D01*
X122068731Y-150063000D01*
X122193462Y-149872391D01*
X122189591Y-149834718D01*
X122097421Y-149609467D01*
X121963078Y-149406526D01*
X121791725Y-149233693D01*
X121589946Y-149097610D01*
X121365496Y-149003507D01*
X121127000Y-148955000D01*
X120727000Y-148955000D01*
X120473000Y-148955000D01*
X120073000Y-148955000D01*
X119834504Y-149003507D01*
X119610054Y-149097610D01*
X119408275Y-149233693D01*
X119236922Y-149406526D01*
X119102579Y-149609467D01*
X119010409Y-149834718D01*
X119006538Y-149872391D01*
X116757005Y-149872391D01*
X116914637Y-149714759D01*
X117071680Y-149479727D01*
X117179853Y-149218574D01*
X117235000Y-148941335D01*
X117235000Y-148658665D01*
X117179853Y-148381426D01*
X117071680Y-148120273D01*
X116914637Y-147885241D01*
X116785000Y-147755604D01*
X116785000Y-147650000D01*
X118959025Y-147650000D01*
X118982870Y-147892102D01*
X119053489Y-148124901D01*
X119168167Y-148339449D01*
X119322498Y-148527502D01*
X119510551Y-148681833D01*
X119725099Y-148796511D01*
X119957898Y-148867130D01*
X120139335Y-148885000D01*
X121060665Y-148885000D01*
X121242102Y-148867130D01*
X121474901Y-148796511D01*
X121689449Y-148681833D01*
X121877502Y-148527502D01*
X122031833Y-148339449D01*
X122146511Y-148124901D01*
X122217130Y-147892102D01*
X122240975Y-147650000D01*
X122217130Y-147407898D01*
X122146511Y-147175099D01*
X122031833Y-146960551D01*
X121877502Y-146772498D01*
X121689449Y-146618167D01*
X121474901Y-146503489D01*
X121242102Y-146432870D01*
X121060665Y-146415000D01*
X120139335Y-146415000D01*
X119957898Y-146432870D01*
X119725099Y-146503489D01*
X119510551Y-146618167D01*
X119322498Y-146772498D01*
X119168167Y-146960551D01*
X119053489Y-147175099D01*
X118982870Y-147407898D01*
X118959025Y-147650000D01*
X116785000Y-147650000D01*
X116785000Y-147323000D01*
X118123001Y-145985000D01*
X119951620Y-145985000D01*
X120000000Y-145989765D01*
X120048380Y-145985000D01*
X120193094Y-145970747D01*
X120378767Y-145914424D01*
X120549884Y-145822960D01*
X120699870Y-145699870D01*
X120730716Y-145662284D01*
X122266001Y-144127000D01*
X124000000Y-144127000D01*
X124024776Y-144124560D01*
X124048601Y-144117333D01*
X124070557Y-144105597D01*
X124089803Y-144089803D01*
X124105597Y-144070557D01*
X124117333Y-144048601D01*
X124124560Y-144024776D01*
X124127000Y-144000000D01*
X124127000Y-123000000D01*
X124124560Y-122975224D01*
X124117333Y-122951399D01*
X124105597Y-122929443D01*
X124089803Y-122910197D01*
X124070557Y-122894403D01*
X124048601Y-122882667D01*
X124024776Y-122875440D01*
X124000000Y-122873000D01*
X110000000Y-122873000D01*
X109975224Y-122875440D01*
X109951399Y-122882667D01*
X109929443Y-122894403D01*
X109910197Y-122910197D01*
X109894403Y-122929443D01*
X109882667Y-122951399D01*
X109875440Y-122975224D01*
X109873000Y-123000000D01*
X100685000Y-123000000D01*
X100685000Y-118358665D01*
X120165000Y-118358665D01*
X120165000Y-118641335D01*
X120220147Y-118918574D01*
X120328320Y-119179727D01*
X120485363Y-119414759D01*
X120685241Y-119614637D01*
X120920273Y-119771680D01*
X121181426Y-119879853D01*
X121458665Y-119935000D01*
X121741335Y-119935000D01*
X122018574Y-119879853D01*
X122279727Y-119771680D01*
X122514759Y-119614637D01*
X122714637Y-119414759D01*
X122791316Y-119300000D01*
X125161928Y-119300000D01*
X125174188Y-119424482D01*
X125210498Y-119544180D01*
X125269463Y-119654494D01*
X125348815Y-119751185D01*
X125445506Y-119830537D01*
X125555820Y-119889502D01*
X125675518Y-119925812D01*
X125800000Y-119938072D01*
X126314250Y-119935000D01*
X126473000Y-119776250D01*
X126473000Y-118627000D01*
X126727000Y-118627000D01*
X126727000Y-119776250D01*
X126885750Y-119935000D01*
X127400000Y-119938072D01*
X127524482Y-119925812D01*
X127644180Y-119889502D01*
X127754494Y-119830537D01*
X127851185Y-119751185D01*
X127930537Y-119654494D01*
X127989502Y-119544180D01*
X128025812Y-119424482D01*
X128038072Y-119300000D01*
X128035000Y-118785750D01*
X127876250Y-118627000D01*
X126727000Y-118627000D01*
X126473000Y-118627000D01*
X125323750Y-118627000D01*
X125165000Y-118785750D01*
X125161928Y-119300000D01*
X122791316Y-119300000D01*
X122871680Y-119179727D01*
X122979853Y-118918574D01*
X123035000Y-118641335D01*
X123035000Y-118358665D01*
X122979853Y-118081426D01*
X122871680Y-117820273D01*
X122791317Y-117700000D01*
X125161928Y-117700000D01*
X125165000Y-118214250D01*
X125323750Y-118373000D01*
X126473000Y-118373000D01*
X126473000Y-117223750D01*
X126727000Y-117223750D01*
X126727000Y-118373000D01*
X127876250Y-118373000D01*
X128035000Y-118214250D01*
X128038072Y-117700000D01*
X128025812Y-117575518D01*
X127989502Y-117455820D01*
X127930537Y-117345506D01*
X127851185Y-117248815D01*
X127754494Y-117169463D01*
X127644180Y-117110498D01*
X127524482Y-117074188D01*
X127400000Y-117061928D01*
X126885750Y-117065000D01*
X126727000Y-117223750D01*
X126473000Y-117223750D01*
X126314250Y-117065000D01*
X125800000Y-117061928D01*
X125675518Y-117074188D01*
X125555820Y-117110498D01*
X125445506Y-117169463D01*
X125348815Y-117248815D01*
X125269463Y-117345506D01*
X125210498Y-117455820D01*
X125174188Y-117575518D01*
X125161928Y-117700000D01*
X122791317Y-117700000D01*
X122714637Y-117585241D01*
X122514759Y-117385363D01*
X122279727Y-117228320D01*
X122018574Y-117120147D01*
X121741335Y-117065000D01*
X121458665Y-117065000D01*
X121181426Y-117120147D01*
X120920273Y-117228320D01*
X120685241Y-117385363D01*
X120485363Y-117585241D01*
X120328320Y-117820273D01*
X120220147Y-118081426D01*
X120165000Y-118358665D01*
X100685000Y-118358665D01*
X100685000Y-113453740D01*
X130435000Y-113453740D01*
X130435000Y-113746260D01*
X130492068Y-114033158D01*
X130604010Y-114303411D01*
X130766525Y-114546632D01*
X130973368Y-114753475D01*
X131216589Y-114915990D01*
X131486842Y-115027932D01*
X131773740Y-115085000D01*
X132066260Y-115085000D01*
X132353158Y-115027932D01*
X132623411Y-114915990D01*
X132866632Y-114753475D01*
X133073475Y-114546632D01*
X133195195Y-114364466D01*
X133264822Y-114481355D01*
X133459731Y-114697588D01*
X133693080Y-114871641D01*
X133955901Y-114996825D01*
X134103110Y-115041476D01*
X134333000Y-114920155D01*
X134333000Y-113727000D01*
X134313000Y-113727000D01*
X134313000Y-113473000D01*
X134333000Y-113473000D01*
X134333000Y-112279845D01*
X134587000Y-112279845D01*
X134587000Y-113473000D01*
X134607000Y-113473000D01*
X134607000Y-113727000D01*
X134587000Y-113727000D01*
X134587000Y-114920155D01*
X134816890Y-115041476D01*
X134964099Y-114996825D01*
X135226920Y-114871641D01*
X135460269Y-114697588D01*
X135536034Y-114613534D01*
X135560498Y-114694180D01*
X135619463Y-114804494D01*
X135698815Y-114901185D01*
X135795506Y-114980537D01*
X135905820Y-115039502D01*
X136025518Y-115075812D01*
X136150000Y-115088072D01*
X137850000Y-115088072D01*
X137974482Y-115075812D01*
X138094180Y-115039502D01*
X138204494Y-114980537D01*
X138301185Y-114901185D01*
X138380537Y-114804494D01*
X138439502Y-114694180D01*
X138475812Y-114574482D01*
X138488072Y-114450000D01*
X138488072Y-114435000D01*
X141826951Y-114435000D01*
X141928320Y-114679727D01*
X142085363Y-114914759D01*
X142285241Y-115114637D01*
X142520273Y-115271680D01*
X142781426Y-115379853D01*
X143058665Y-115435000D01*
X143341335Y-115435000D01*
X143618574Y-115379853D01*
X143879727Y-115271680D01*
X144114759Y-115114637D01*
X144314637Y-114914759D01*
X144418935Y-114758665D01*
X147065000Y-114758665D01*
X147065000Y-115041335D01*
X147120147Y-115318574D01*
X147228320Y-115579727D01*
X147385363Y-115814759D01*
X147585241Y-116014637D01*
X147820273Y-116171680D01*
X148081426Y-116279853D01*
X148358665Y-116335000D01*
X148641335Y-116335000D01*
X148918574Y-116279853D01*
X149179727Y-116171680D01*
X149414759Y-116014637D01*
X149614637Y-115814759D01*
X149771680Y-115579727D01*
X149879853Y-115318574D01*
X149935000Y-115041335D01*
X149935000Y-114758665D01*
X149879853Y-114481426D01*
X149771680Y-114220273D01*
X149614637Y-113985241D01*
X149414759Y-113785363D01*
X149179727Y-113628320D01*
X148918574Y-113520147D01*
X148641335Y-113465000D01*
X148358665Y-113465000D01*
X148081426Y-113520147D01*
X147820273Y-113628320D01*
X147585241Y-113785363D01*
X147385363Y-113985241D01*
X147228320Y-114220273D01*
X147120147Y-114481426D01*
X147065000Y-114758665D01*
X144418935Y-114758665D01*
X144471680Y-114679727D01*
X144579853Y-114418574D01*
X144635000Y-114141335D01*
X144635000Y-113858665D01*
X144579853Y-113581426D01*
X144471680Y-113320273D01*
X144314637Y-113085241D01*
X144114759Y-112885363D01*
X143879727Y-112728320D01*
X143618574Y-112620147D01*
X143341335Y-112565000D01*
X143058665Y-112565000D01*
X142781426Y-112620147D01*
X142520273Y-112728320D01*
X142465377Y-112765000D01*
X138488072Y-112765000D01*
X138488072Y-112750000D01*
X138475812Y-112625518D01*
X138439502Y-112505820D01*
X138380537Y-112395506D01*
X138301185Y-112298815D01*
X138204494Y-112219463D01*
X138094180Y-112160498D01*
X137974482Y-112124188D01*
X137850000Y-112111928D01*
X136150000Y-112111928D01*
X136025518Y-112124188D01*
X135905820Y-112160498D01*
X135795506Y-112219463D01*
X135698815Y-112298815D01*
X135619463Y-112395506D01*
X135560498Y-112505820D01*
X135536034Y-112586466D01*
X135460269Y-112502412D01*
X135226920Y-112328359D01*
X134964099Y-112203175D01*
X134816890Y-112158524D01*
X134587000Y-112279845D01*
X134333000Y-112279845D01*
X134103110Y-112158524D01*
X133955901Y-112203175D01*
X133693080Y-112328359D01*
X133459731Y-112502412D01*
X133264822Y-112718645D01*
X133195195Y-112835534D01*
X133073475Y-112653368D01*
X132866632Y-112446525D01*
X132623411Y-112284010D01*
X132353158Y-112172068D01*
X132066260Y-112115000D01*
X131773740Y-112115000D01*
X131486842Y-112172068D01*
X131216589Y-112284010D01*
X130973368Y-112446525D01*
X130766525Y-112653368D01*
X130604010Y-112896589D01*
X130492068Y-113166842D01*
X130435000Y-113453740D01*
X100685000Y-113453740D01*
X100685000Y-110127000D01*
X110000000Y-110127000D01*
X110024776Y-110124560D01*
X110048601Y-110117333D01*
X110070557Y-110105597D01*
X110089803Y-110089803D01*
X110105597Y-110070557D01*
X110117333Y-110048601D01*
X110124560Y-110024776D01*
X110127000Y-110000000D01*
X110127000Y-100685000D01*
X159873000Y-100685000D01*
X159873000Y-110000000D01*
M02*
